<svg width="496" height="474" viewBox="0 0 496 474" fill="none" xmlns="http://www.w3.org/2000/svg">
<path d="M16.1858 366.093L25.1069 353.57L-29.4111 258.394L67.7301 282.438M16.1858 366.093L27.585 430.212M16.1858 366.093L106.388 378.616M27.585 430.212L45.9229 462.271M27.585 430.212L106.388 378.616M45.9229 462.271L80.1206 473.291M45.9229 462.271L106.388 378.616M80.1206 473.291H137.117M80.1206 473.291L106.388 378.616M137.117 473.291L151.931 460.768M137.117 473.291L106.388 378.616M218.894 404.163L299.184 175.741M218.894 404.163L275.394 467.28L267.96 473.291L151.931 460.768M218.894 404.163L151.931 460.768M218.894 404.163L106.388 378.616M299.184 175.741C299.184 175.741 303.163 162.631 307.61 155.202C309.694 151.72 311.005 149.836 313.557 146.687C315.553 144.223 316.588 142.714 319.009 140.676C321.942 138.206 323.871 137.05 327.434 135.666C331.474 134.097 333.574 133.386 337.842 132.661C344.402 131.546 348.558 131.691 355.189 131.158C363.1 130.521 367.601 130.491 375.509 131.158C387.539 132.172 394.064 134.58 405.742 137.67C417.113 140.679 423.017 144.095 434.488 146.687C444.799 149.016 450.701 150.113 461.251 150.694C474.223 151.408 494.458 148.69 494.458 148.69L489.502 142.178M299.184 175.741L106.388 378.616M489.502 142.178L491.98 140.676L489.502 133.663H484.05L478.598 129.655M489.502 142.178L478.598 140.676C478.598 140.676 464.096 138.869 454.808 137.67C442.997 136.145 436.337 135.546 424.576 133.663C412.128 131.67 392.856 127.651 392.856 127.651L359.65 123.143L338.338 127.651L307.61 133.663M67.7301 282.438C67.7301 282.438 112.458 242.991 144.055 221.826C166.469 206.812 203.53 186.761 203.53 186.761L283.324 137.67M67.7301 282.438L106.388 378.616M283.324 137.67L299.184 127.651L315.539 111.121L332.391 93.0875L347.755 77.5587M283.324 137.67C283.324 137.67 170.692 255.782 122.248 347.058C115.783 359.239 106.388 378.616 106.388 378.616M347.755 77.5587L353.702 67.5402L394.343 1.41772L395.83 10.4344M347.755 77.5587L307.61 133.663M347.755 77.5587L395.83 10.4344M395.83 10.4344L400.786 8.93164V22.4567M400.786 22.4567L410.698 34.9799V56.5198L416.15 81.5661M400.786 22.4567L359.65 116.13M416.15 81.5661L466.208 119.637L475.129 123.143M416.15 81.5661L359.65 116.13M475.129 123.143L478.598 129.655M475.129 123.143L359.65 116.13M478.598 129.655L359.65 116.13M106.388 378.616L283.324 161.715L307.61 133.663M307.61 133.663L359.65 116.13" stroke="white"/>
</svg>
