<svg width="438" height="401" viewBox="0 0 438 401" fill="none" xmlns="http://www.w3.org/2000/svg">
<path d="M42.5134 307.775L49.7811 297.573L5.36719 220.036L84.5047 239.624M42.5134 307.775L51.7999 360.01M42.5134 307.775L115.998 317.977M51.7999 360.01L66.7391 386.128M51.7999 360.01L115.998 317.977M66.7391 386.128L94.5987 395.106M66.7391 386.128L115.998 317.977M94.5987 395.106H141.031M94.5987 395.106L115.998 317.977M141.031 395.106L153.1 384.904M141.031 395.106L115.998 317.977M207.652 338.79L273.062 152.702M207.652 338.79L253.681 390.209L247.625 395.106L153.1 384.904M207.652 338.79L153.1 384.904M207.652 338.79L115.998 317.977M273.062 152.702C273.062 152.702 276.303 142.022 279.926 135.97C281.624 133.133 282.692 131.598 284.771 129.033C286.397 127.025 287.24 125.796 289.212 124.135C291.602 122.124 293.173 121.182 296.076 120.055C299.367 118.776 301.078 118.197 304.555 117.606C309.899 116.698 313.285 116.816 318.687 116.382C325.131 115.863 328.799 115.839 335.241 116.382C345.042 117.208 350.357 119.17 359.871 121.687C369.134 124.138 373.944 126.921 383.289 129.033C391.689 130.93 396.497 131.824 405.092 132.297C415.66 132.879 432.144 130.665 432.144 130.665L428.107 125.36M273.062 152.702L115.998 317.977M428.107 125.36L430.126 124.135L428.107 118.422H423.665L419.224 115.158M428.107 125.36L419.224 124.135C419.224 124.135 407.409 122.664 399.843 121.687C390.221 120.445 384.795 119.956 375.214 118.422C365.073 116.799 349.373 113.525 349.373 113.525L322.321 109.852L304.959 113.525L279.926 118.422M84.5047 239.624C84.5047 239.624 120.943 207.488 146.684 190.246C164.944 178.015 195.136 161.68 195.136 161.68L260.141 121.687M84.5047 239.624L115.998 317.977M260.141 121.687L273.062 113.525L286.386 100.058L300.114 85.3672L312.631 72.7165M260.141 121.687C260.141 121.687 168.384 217.908 128.919 292.268C123.652 302.191 115.998 317.977 115.998 317.977M312.631 72.7165L317.476 64.5547L350.584 10.6871L351.796 18.0327M312.631 72.7165L279.926 118.422M312.631 72.7165L351.796 18.0327M351.796 18.0327L355.833 16.8084V27.8268M355.833 27.8268L363.908 38.029V55.5768L368.35 75.9812M355.833 27.8268L322.321 104.139M368.35 75.9812L409.13 106.996L416.398 109.852M368.35 75.9812L322.321 104.139M416.398 109.852L419.224 115.158M416.398 109.852L322.321 104.139M419.224 115.158L322.321 104.139M115.998 317.977L260.141 141.275L279.926 118.422M279.926 118.422L322.321 104.139" stroke="white"/>
</svg>
