<svg width="1476" height="1399" viewBox="0 0 1476 1399" fill="none" xmlns="http://www.w3.org/2000/svg">
<g clip-path="url(#clip0_634_30529)">
<g opacity="0.1">
<path d="M347 0C347 0 420.906 182.916 552.5 335C777.521 595.058 1483.5 805.5 1469 1237C1466.79 1302.67 1454.5 1371 1454.5 1371" stroke="white" stroke-opacity="0.9"/>
<path d="M307 0C307 0 382.406 171.416 514 323.5C739.021 583.558 1410 848.5 1410 1216.5C1410 1282.2 1385 1372.5 1385 1372.5" stroke="white" stroke-opacity="0.9"/>
<path d="M267 0C267 0 341.406 165.416 473 317.5C698.021 577.558 1342.5 827.5 1342.5 1195.5C1342.5 1261.2 1316 1372.5 1316 1372.5" stroke="white" stroke-opacity="0.7"/>
<path d="M227 0C227 0 301.406 165.416 433 317.5C658.021 577.558 1275 817.5 1275 1185.5C1275 1281.5 1246 1372.5 1246 1372.5" stroke="white" stroke-opacity="0.7"/>
<path d="M187 6.5C187 6.5 273.406 165.416 405 317.5C630.021 577.558 1182 790.5 1182 1153.5C1182 1235.46 1150.5 1370 1150.5 1370" stroke="white" stroke-opacity="0.6"/>
<path d="M141 6.5C141 6.5 250.406 165.416 382 317.5C607.021 577.558 1091 772.5 1091 1135.5C1091 1231 1051 1375 1051 1375" stroke="white" stroke-opacity="0.4"/>
<path d="M62.4999 29.5C62.4999 29.5 58.9995 33 354 321C613.442 574.286 965.5 774 965.5 1154.5C965.5 1243.5 934.5 1384.5 934.5 1384.5" stroke="white" stroke-opacity="0.3"/>
<path d="M31.5 67.5C31.5 67.5 64.5 98 330 337.5C585.353 567.846 842.5 716 842.5 1079C842.5 1207 790.5 1398.04 790.5 1398.04" stroke="white" stroke-opacity="0.3"/>
<path d="M0.5 283.5C0.5 283.5 323.842 517.183 350.5 715.5C382.4 952.809 0.5 1187 0.5 1187" stroke="white" stroke-opacity="0.9"/>
<path d="M0 264.5C0 264.5 419.367 519.652 418.5 778.5C417.637 1036.29 0 1289 0 1289M0 231C0 231 495 527.669 495 804.5C495 1101.21 68 1380 68 1380" stroke="white" stroke-opacity="0.7"/>
<path d="M0 195.5C0 195.5 578 555.5 578 838.5C578 1119.61 229.5 1380 229.5 1380" stroke="white" stroke-opacity="0.4"/>
<path d="M0 167C0 167 675 587 656.5 877C632.2 1257.92 413.5 1398 413.5 1398" stroke="white" stroke-opacity="0.4"/>
<path d="M0.5 110.5C136.5 221.945 729 613.059 729 935.5C729 1180.5 625.5 1391 625.5 1391" stroke="white" stroke-opacity="0.3"/>
</g>
</g>
<defs>
<clipPath id="clip0_634_30529">
<rect width="1475.22" height="1398.04" fill="white"/>
</clipPath>
</defs>
</svg>
