<svg width="177" height="60" viewBox="0 0 177 60" fill="none" xmlns="http://www.w3.org/2000/svg">
<path d="M4.91355 39.4693L5.59518 38.5239L1.42969 31.3384L8.85184 33.1537M4.91355 39.4693L5.78452 44.3101M4.91355 39.4693L11.8056 40.4148M5.78452 44.3101L7.18564 46.7305M5.78452 44.3101L11.8056 40.4148M7.18564 46.7305L9.79854 47.5625M7.18564 46.7305L11.8056 40.4148M9.79854 47.5625H14.1534M9.79854 47.5625L11.8056 40.4148M14.1534 47.5625L15.2853 46.617M14.1534 47.5625L11.8056 40.4148M20.4016 42.3436L26.5362 25.0983M20.4016 42.3436L24.7186 47.1087L24.1506 47.5625L15.2853 46.617M20.4016 42.3436L15.2853 46.617M20.4016 42.3436L11.8056 40.4148M26.5362 25.0983C26.5362 25.0983 26.8402 24.1086 27.18 23.5478C27.3393 23.2848 27.4395 23.1426 27.6344 22.9049C27.7869 22.7188 27.866 22.6049 28.051 22.451C28.2751 22.2646 28.4225 22.1774 28.6947 22.0729C29.0034 21.9544 29.1639 21.9007 29.49 21.8459C29.9911 21.7618 30.3087 21.7728 30.8153 21.7325C31.4198 21.6844 31.7637 21.6822 32.3679 21.7325C33.2871 21.809 33.7856 21.9908 34.6779 22.2241C35.5467 22.4513 35.9978 22.7092 36.8742 22.9049C37.6621 23.0807 38.113 23.1636 38.9191 23.2074C39.9102 23.2613 41.4563 23.0561 41.4563 23.0561L41.0776 22.5645M26.5362 25.0983L11.8056 40.4148M41.0776 22.5645L41.2669 22.451L41.0776 21.9216H40.6611L40.2445 21.619M41.0776 22.5645L40.2445 22.451C40.2445 22.451 39.1364 22.3146 38.4268 22.2241C37.5243 22.109 37.0155 22.0637 36.1169 21.9216C35.1658 21.7711 33.6933 21.4678 33.6933 21.4678L31.1562 21.1274L29.5278 21.4678L27.18 21.9216M8.85184 33.1537C8.85184 33.1537 12.2693 30.1755 14.6835 28.5776C16.396 27.4442 19.2277 25.9303 19.2277 25.9303L25.3245 22.2241M8.85184 33.1537L11.8056 40.4148M25.3245 22.2241L26.5362 21.4678L27.7859 20.2197L29.0734 18.8583L30.2473 17.6859M25.3245 22.2241C25.3245 22.2241 16.7187 31.1412 13.0173 38.0322C12.5234 38.9519 11.8056 40.4148 11.8056 40.4148M30.2473 17.6859L30.7017 16.9295L33.8069 11.9375L33.9205 12.6182M30.2473 17.6859L27.18 21.9216M30.2473 17.6859L33.9205 12.6182M33.9205 12.6182L34.2992 12.5048V13.5259M34.2992 13.5259L35.0566 14.4713V16.0975L35.4731 17.9885M34.2992 13.5259L31.1562 20.5979M35.4731 17.9885L39.2978 20.8627L39.9794 21.1274M35.4731 17.9885L31.1562 20.5979M39.9794 21.1274L40.2445 21.619M39.9794 21.1274L31.1562 20.5979M40.2445 21.619L31.1562 20.5979M11.8056 40.4148L25.3245 24.0394L27.18 21.9216M27.18 21.9216L31.1562 20.5979" stroke="white" stroke-width="0.5"/>
<path d="M136.412 20.1182H138.013L138.569 23.4583V29.9124H136.969V23.1626L136.412 20.1182ZM143.771 20.0835V21.5273C143.55 21.4578 143.289 21.4056 142.988 21.3708C142.698 21.336 142.42 21.3186 142.153 21.3186C141.457 21.3186 140.837 21.4752 140.292 21.7883C139.746 22.1014 139.323 22.5595 139.022 23.1626C138.72 23.7541 138.569 24.4557 138.569 25.2676L138.117 24.6413C138.14 23.957 138.25 23.325 138.447 22.7451C138.645 22.1652 138.923 21.6665 139.283 21.249C139.654 20.8199 140.094 20.4894 140.605 20.2574C141.127 20.0139 141.712 19.8921 142.362 19.8921C142.605 19.8921 142.855 19.9095 143.11 19.9443C143.376 19.9791 143.597 20.0255 143.771 20.0835Z" fill="white"/>
<path d="M129.918 30.1386C128.793 30.1386 127.796 29.924 126.926 29.4949C126.068 29.0542 125.39 28.4511 124.891 27.6857C124.404 26.9086 124.16 26.0156 124.16 25.0066C124.16 23.986 124.392 23.093 124.856 22.3276C125.32 21.5621 125.964 20.9649 126.787 20.5358C127.61 20.1066 128.556 19.8921 129.623 19.8921C130.678 19.8921 131.6 20.124 132.389 20.5879C133.177 21.0518 133.786 21.7071 134.215 22.5537C134.656 23.3888 134.876 24.363 134.876 25.4763H125.378V24.2064H134.198L133.258 24.7805C133.224 24.0498 133.05 23.4178 132.737 22.8843C132.423 22.3508 132 21.9391 131.467 21.6491C130.933 21.3592 130.313 21.2142 129.605 21.2142C128.84 21.2142 128.173 21.3708 127.605 21.6839C127.036 21.9855 126.59 22.4146 126.265 22.9712C125.952 23.5279 125.795 24.1832 125.795 24.937C125.795 25.7257 125.975 26.4099 126.335 26.9898C126.694 27.5697 127.199 28.0162 127.848 28.3293C128.498 28.6425 129.263 28.799 130.145 28.799C130.945 28.799 131.728 28.6657 132.493 28.3989C133.27 28.1322 133.966 27.7668 134.581 27.3029V28.5555C133.978 29.0426 133.258 29.4311 132.423 29.721C131.588 29.9994 130.753 30.1386 129.918 30.1386Z" fill="white"/>
<path d="M112.35 16.5176H113.95V29.9128H112.35V16.5176ZM117.986 19.8925C118.902 19.8925 119.679 20.078 120.317 20.4492C120.955 20.8087 121.442 21.3364 121.778 22.0322C122.115 22.7165 122.283 23.5457 122.283 24.5199V29.9128H120.682V24.7983C120.682 23.6269 120.416 22.7455 119.882 22.154C119.349 21.5509 118.56 21.2494 117.516 21.2494C116.809 21.2494 116.183 21.4118 115.638 21.7365C115.104 22.0612 114.687 22.5135 114.385 23.0934C114.095 23.6617 113.95 24.3286 113.95 25.094L113.306 24.6417C113.388 23.6675 113.637 22.8267 114.054 22.1192C114.472 21.4118 115.017 20.8667 115.69 20.484C116.374 20.0896 117.139 19.8925 117.986 19.8925Z" fill="white"/>
<path d="M110.348 27.042C110.348 27.6683 110.156 28.2134 109.774 28.6773C109.403 29.1412 108.852 29.5007 108.121 29.7558C107.402 30.011 106.526 30.1386 105.494 30.1386C104.439 30.1386 103.505 29.9936 102.693 29.7036C101.893 29.4021 101.267 28.9846 100.815 28.4511C100.362 27.9176 100.119 27.2971 100.084 26.5897H101.719C101.789 27.042 101.992 27.4421 102.328 27.79C102.664 28.1264 103.105 28.3873 103.65 28.5729C104.195 28.7584 104.816 28.8512 105.512 28.8512C106.521 28.8512 107.309 28.7005 107.878 28.3989C108.457 28.0858 108.747 27.6625 108.747 27.129C108.747 26.7115 108.562 26.4041 108.191 26.207C107.82 25.9982 107.13 25.8417 106.121 25.7373L104.224 25.5459C103.285 25.4531 102.531 25.285 101.963 25.0414C101.406 24.7863 101.006 24.4731 100.762 24.102C100.519 23.7193 100.397 23.296 100.397 22.8321C100.397 22.1942 100.588 21.6607 100.971 21.2316C101.366 20.7909 101.911 20.4604 102.606 20.24C103.302 20.0081 104.108 19.8921 105.025 19.8921C105.999 19.8921 106.863 20.0313 107.617 20.3096C108.382 20.5879 108.991 20.9765 109.443 21.4752C109.896 21.9739 110.145 22.5479 110.191 23.1974H108.573C108.515 22.8263 108.341 22.4899 108.052 22.1884C107.762 21.8753 107.356 21.6259 106.834 21.4404C106.323 21.2548 105.691 21.162 104.938 21.162C104.01 21.162 103.285 21.2954 102.763 21.5621C102.253 21.8289 101.998 22.2174 101.998 22.7277C101.998 23.0988 102.166 23.3946 102.502 23.6149C102.838 23.8353 103.436 23.9918 104.294 24.0846L106.451 24.3108C107.437 24.4036 108.214 24.5659 108.782 24.7979C109.35 25.0298 109.751 25.3314 109.983 25.7025C110.226 26.0736 110.348 26.5201 110.348 27.042Z" fill="white"/>
<path d="M96.6015 20.0837L97.4017 20.2228L98.2019 20.0837V29.9126H96.6015V20.0837ZM97.3843 18.6398C97.0596 18.6398 96.7812 18.5412 96.5493 18.344C96.3289 18.1353 96.2188 17.8801 96.2188 17.5786C96.2188 17.2654 96.3289 17.0103 96.5493 16.8131C96.7812 16.6044 97.0596 16.5 97.3843 16.5C97.7322 16.5 98.0164 16.6044 98.2367 16.8131C98.4571 17.0103 98.5673 17.2654 98.5673 17.5786C98.5673 17.8801 98.4571 18.1353 98.2367 18.344C98.0164 18.5412 97.7322 18.6398 97.3843 18.6398Z" fill="white"/>
<path d="M85.0739 22.7626H94.3983V24.2065H85.0739V22.7626ZM94.6593 16.8652V18.3091H84.8999L85.9263 17.2654V29.9125H84.291V16.8652H94.6593Z" fill="white"/>
<path d="M69.1471 16.8652V29.9125H67.5814V17.248L68.2251 17.2654L61.6318 29.9125H59.8922L53.299 17.2827L53.9426 17.2654V29.9125H52.377V16.8652H54.8472L61.2839 29.3558H60.2575L66.6768 16.8652H69.1471Z" fill="white"/>
<path d="M75.957 17H77.461V30H75.957V17Z" fill="#828282"/>
<path d="M166.853 42.2725V43.0183H163.885V42.2725H166.853ZM164.75 40.9004H165.63V46.3592C165.63 46.6078 165.666 46.7942 165.738 46.9185C165.813 47.0403 165.907 47.1223 166.021 47.1646C166.138 47.2044 166.261 47.2243 166.39 47.2243C166.487 47.2243 166.567 47.2193 166.629 47.2093C166.691 47.1969 166.741 47.187 166.778 47.1795L166.957 47.97C166.898 47.9924 166.814 48.0147 166.707 48.0371C166.601 48.062 166.465 48.0744 166.301 48.0744C166.052 48.0744 165.809 48.0209 165.57 47.9141C165.334 47.8072 165.138 47.6444 164.981 47.4256C164.827 47.2069 164.75 46.9309 164.75 46.5978V40.9004Z" fill="#828282"/>
<path d="M158.892 44.5548V48.0001H158.012V42.2728H158.862V43.1677H158.936C159.071 42.8769 159.275 42.6432 159.548 42.4667C159.821 42.2877 160.174 42.1982 160.607 42.1982C160.995 42.1982 161.334 42.2778 161.625 42.4369C161.916 42.5935 162.142 42.8321 162.303 43.1528C162.465 43.471 162.546 43.8737 162.546 44.3609V48.0001H161.666V44.4205C161.666 43.9706 161.549 43.6201 161.315 43.3691C161.082 43.1155 160.761 42.9887 160.353 42.9887C160.072 42.9887 159.821 43.0496 159.6 43.1714C159.381 43.2932 159.209 43.471 159.082 43.7046C158.955 43.9383 158.892 44.2217 158.892 44.5548Z" fill="#828282"/>
<path d="M154.092 48.1194C153.54 48.1194 153.064 47.9976 152.664 47.754C152.266 47.5079 151.959 47.1649 151.743 46.7249C151.529 46.2824 151.422 45.7678 151.422 45.1812C151.422 44.5945 151.529 44.0775 151.743 43.6301C151.959 43.1801 152.26 42.8296 152.645 42.5786C153.033 42.325 153.485 42.1982 154.002 42.1982C154.3 42.1982 154.595 42.248 154.886 42.3474C155.177 42.4468 155.441 42.6084 155.68 42.8321C155.919 43.0534 156.109 43.3467 156.251 43.7121C156.392 44.0775 156.463 44.5274 156.463 45.0619V45.4347H152.048V44.6741H155.568C155.568 44.3509 155.504 44.0626 155.374 43.809C155.248 43.5555 155.066 43.3554 154.83 43.2087C154.596 43.0621 154.32 42.9887 154.002 42.9887C153.652 42.9887 153.348 43.0757 153.092 43.2497C152.839 43.4213 152.644 43.645 152.507 43.9209C152.37 44.1968 152.302 44.4926 152.302 44.8083V45.3154C152.302 45.748 152.376 46.1146 152.526 46.4154C152.677 46.7137 152.887 46.9411 153.156 47.0977C153.424 47.2519 153.736 47.3289 154.092 47.3289C154.323 47.3289 154.532 47.2966 154.718 47.232C154.907 47.1649 155.07 47.0654 155.207 46.9337C155.343 46.7994 155.449 46.6329 155.523 46.434L156.374 46.6727C156.284 46.961 156.134 47.2146 155.922 47.4333C155.711 47.6496 155.45 47.8186 155.139 47.9404C154.829 48.0597 154.479 48.1194 154.092 48.1194Z" fill="#828282"/>
<path d="M142.354 48.0001V42.2728H143.204V43.1677H143.278C143.398 42.8619 143.59 42.6246 143.856 42.4555C144.122 42.284 144.442 42.1982 144.814 42.1982C145.192 42.1982 145.507 42.284 145.758 42.4555C146.011 42.6246 146.209 42.8619 146.351 43.1677H146.41C146.557 42.8719 146.777 42.637 147.07 42.463C147.364 42.2865 147.715 42.1982 148.126 42.1982C148.638 42.1982 149.056 42.3586 149.382 42.6792C149.708 42.9974 149.871 43.4933 149.871 44.167V48.0001H148.991V44.167C148.991 43.7444 148.875 43.4424 148.644 43.2609C148.413 43.0795 148.14 42.9887 147.827 42.9887C147.425 42.9887 147.113 43.1105 146.891 43.3541C146.67 43.5953 146.559 43.901 146.559 44.2714V48.0001H145.665V44.0775C145.665 43.7519 145.559 43.4896 145.348 43.2907C145.136 43.0894 144.864 42.9887 144.531 42.9887C144.302 42.9887 144.089 43.0496 143.89 43.1714C143.693 43.2932 143.534 43.4623 143.412 43.6785C143.293 43.8923 143.233 44.1396 143.233 44.4205V48.0001H142.354Z" fill="#828282"/>
<path d="M135.744 50.1478V42.2728H136.594V43.1826H136.699C136.763 43.0832 136.853 42.9564 136.967 42.8023C137.084 42.6457 137.251 42.5065 137.467 42.3847C137.686 42.2604 137.981 42.1982 138.354 42.1982C138.836 42.1982 139.262 42.3188 139.629 42.5599C139.997 42.801 140.284 43.1428 140.491 43.5853C140.697 44.0278 140.8 44.5498 140.8 45.1514C140.8 45.7579 140.697 46.2836 140.491 46.7286C140.284 47.1711 139.999 47.5141 139.633 47.7577C139.268 47.9988 138.846 48.1194 138.369 48.1194C138.001 48.1194 137.707 48.0585 137.485 47.9367C137.264 47.8124 137.094 47.672 136.975 47.5154C136.855 47.3563 136.763 47.2245 136.699 47.1201H136.624V50.1478H135.744ZM136.609 45.1365C136.609 45.569 136.673 45.9506 136.799 46.2812C136.926 46.6093 137.111 46.8666 137.355 47.053C137.599 47.2369 137.897 47.3289 138.25 47.3289C138.618 47.3289 138.925 47.232 139.171 47.0381C139.419 46.8417 139.606 46.5782 139.73 46.2476C139.857 45.9145 139.92 45.5441 139.92 45.1365C139.92 44.7338 139.858 44.3708 139.734 44.0477C139.612 43.722 139.427 43.4648 139.178 43.2758C138.932 43.0844 138.623 42.9887 138.25 42.9887C137.892 42.9887 137.591 43.0795 137.347 43.2609C137.104 43.4399 136.92 43.691 136.796 44.0141C136.671 44.3348 136.609 44.7089 136.609 45.1365Z" fill="#828282"/>
<path d="M131.597 48.1194C131.08 48.1194 130.626 47.9964 130.236 47.7503C129.848 47.5042 129.545 47.1599 129.326 46.7174C129.11 46.2749 129.002 45.7579 129.002 45.1663C129.002 44.5697 129.11 44.0489 129.326 43.604C129.545 43.159 129.848 42.8135 130.236 42.5674C130.626 42.3213 131.08 42.1982 131.597 42.1982C132.114 42.1982 132.567 42.3213 132.954 42.5674C133.345 42.8135 133.648 43.159 133.864 43.604C134.083 44.0489 134.192 44.5697 134.192 45.1663C134.192 45.7579 134.083 46.2749 133.864 46.7174C133.648 47.1599 133.345 47.5042 132.954 47.7503C132.567 47.9964 132.114 48.1194 131.597 48.1194ZM131.597 47.3289C131.99 47.3289 132.313 47.2282 132.567 47.0269C132.82 46.8256 133.008 46.5608 133.13 46.2327C133.251 45.9046 133.312 45.5491 133.312 45.1663C133.312 44.7835 133.251 44.4268 133.13 44.0961C133.008 43.7655 132.82 43.4983 132.567 43.2945C132.313 43.0906 131.99 42.9887 131.597 42.9887C131.204 42.9887 130.881 43.0906 130.628 43.2945C130.374 43.4983 130.186 43.7655 130.065 44.0961C129.943 44.4268 129.882 44.7835 129.882 45.1663C129.882 45.5491 129.943 45.9046 130.065 46.2327C130.186 46.5608 130.374 46.8256 130.628 47.0269C130.881 47.2282 131.204 47.3289 131.597 47.3289Z" fill="#828282"/>
<path d="M127.448 40.3638V48.0001H126.568V40.3638H127.448Z" fill="#828282"/>
<path d="M122.648 48.1194C122.096 48.1194 121.62 47.9976 121.22 47.754C120.822 47.5079 120.515 47.1649 120.299 46.7249C120.085 46.2824 119.979 45.7678 119.979 45.1812C119.979 44.5945 120.085 44.0775 120.299 43.6301C120.515 43.1801 120.816 42.8296 121.202 42.5786C121.589 42.325 122.042 42.1982 122.559 42.1982C122.857 42.1982 123.152 42.248 123.442 42.3474C123.733 42.4468 123.998 42.6084 124.237 42.8321C124.475 43.0534 124.665 43.3467 124.807 43.7121C124.949 44.0775 125.02 44.5274 125.02 45.0619V45.4347H120.605V44.6741H124.125C124.125 44.3509 124.06 44.0626 123.931 43.809C123.804 43.5555 123.623 43.3554 123.387 43.2087C123.153 43.0621 122.877 42.9887 122.559 42.9887C122.208 42.9887 121.905 43.0757 121.649 43.2497C121.395 43.4213 121.2 43.645 121.064 43.9209C120.927 44.1968 120.858 44.4926 120.858 44.8083V45.3154C120.858 45.748 120.933 46.1146 121.082 46.4154C121.234 46.7137 121.444 46.9411 121.712 47.0977C121.981 47.2519 122.293 47.3289 122.648 47.3289C122.879 47.3289 123.088 47.2966 123.275 47.232C123.464 47.1649 123.626 47.0654 123.763 46.9337C123.9 46.7994 124.006 46.6329 124.08 46.434L124.93 46.6727C124.841 46.961 124.69 47.2146 124.479 47.4333C124.268 47.6496 124.007 47.8186 123.696 47.9404C123.385 48.0597 123.036 48.1194 122.648 48.1194Z" fill="#828282"/>
<path d="M119.08 42.2729L116.962 48.0002H116.067L113.949 42.2729H114.904L116.485 46.8369H116.544L118.125 42.2729H119.08Z" fill="#828282"/>
<path d="M110.652 48.1194C110.1 48.1194 109.624 47.9976 109.224 47.754C108.826 47.5079 108.519 47.1649 108.303 46.7249C108.089 46.2824 107.982 45.7678 107.982 45.1812C107.982 44.5945 108.089 44.0775 108.303 43.6301C108.519 43.1801 108.82 42.8296 109.205 42.5786C109.593 42.325 110.046 42.1982 110.563 42.1982C110.861 42.1982 111.156 42.248 111.446 42.3474C111.737 42.4468 112.002 42.6084 112.241 42.8321C112.479 43.0534 112.669 43.3467 112.811 43.7121C112.953 44.0775 113.024 44.5274 113.024 45.0619V45.4347H108.609V44.6741H112.129C112.129 44.3509 112.064 44.0626 111.935 43.809C111.808 43.5555 111.627 43.3554 111.39 43.2087C111.157 43.0621 110.881 42.9887 110.563 42.9887C110.212 42.9887 109.909 43.0757 109.653 43.2497C109.399 43.4213 109.204 43.645 109.067 43.9209C108.931 44.1968 108.862 44.4926 108.862 44.8083V45.3154C108.862 45.748 108.937 46.1146 109.086 46.4154C109.238 46.7137 109.448 46.9411 109.716 47.0977C109.985 47.2519 110.297 47.3289 110.652 47.3289C110.883 47.3289 111.092 47.2966 111.279 47.232C111.468 47.1649 111.63 47.0654 111.767 46.9337C111.904 46.7994 112.009 46.6329 112.084 46.434L112.934 46.6727C112.845 46.961 112.694 47.2146 112.483 47.4333C112.272 47.6496 112.011 47.8186 111.7 47.9404C111.389 48.0597 111.04 48.1194 110.652 48.1194Z" fill="#828282"/>
<path d="M102.97 48.0001H100.613V40.3638H103.074C103.815 40.3638 104.449 40.5166 104.976 40.8224C105.503 41.1257 105.907 41.5619 106.188 42.1312C106.469 42.6979 106.609 43.3766 106.609 44.167C106.609 44.9625 106.467 45.6473 106.184 46.2215C105.901 46.7933 105.488 47.2333 104.946 47.5415C104.404 47.8473 103.745 48.0001 102.97 48.0001ZM101.538 47.1798H102.91C103.542 47.1798 104.065 47.058 104.48 46.8144C104.895 46.5708 105.205 46.224 105.408 45.7741C105.612 45.3242 105.714 44.7885 105.714 44.167C105.714 43.5506 105.613 43.0198 105.412 42.5749C105.211 42.1274 104.91 41.7844 104.51 41.5458C104.11 41.3046 103.611 41.1841 103.015 41.1841H101.538V47.1798Z" fill="#828282"/>
<path d="M92.5659 48.1044C92.0637 48.1044 91.6312 48.0124 91.2683 47.8285C90.9054 47.6445 90.6257 47.3922 90.4293 47.0716C90.233 46.7509 90.1348 46.3842 90.1348 45.9716C90.1348 45.6534 90.2019 45.3713 90.3361 45.1252C90.4728 44.8766 90.6605 44.6467 90.8992 44.4354C91.1403 44.2216 91.4174 44.0078 91.7306 43.794L92.8343 42.9737C93.0506 42.832 93.2234 42.6804 93.3526 42.5188C93.4844 42.3572 93.5502 42.146 93.5502 41.8849C93.5502 41.6911 93.4645 41.5034 93.293 41.3219C93.1239 41.1404 92.9015 41.0497 92.6255 41.0497C92.4316 41.0497 92.2601 41.0994 92.111 41.1989C91.9643 41.2958 91.8487 41.4201 91.7642 41.5717C91.6822 41.7209 91.6412 41.875 91.6412 42.0341C91.6412 42.2131 91.6896 42.3945 91.7866 42.5785C91.886 42.7599 92.0115 42.9464 92.1632 43.1378C92.3173 43.3267 92.4764 43.5206 92.6404 43.7195L96.1454 48H95.0865L92.193 44.5099C91.9245 44.1868 91.6809 43.8935 91.4622 43.63C91.2434 43.3665 91.0694 43.1067 90.9402 42.8507C90.8109 42.5946 90.7463 42.3175 90.7463 42.0192C90.7463 41.6761 90.8221 41.3754 90.9737 41.1168C91.1278 40.8558 91.3429 40.6532 91.6188 40.5091C91.8972 40.3624 92.2228 40.2891 92.5957 40.2891C92.9785 40.2891 93.3079 40.3636 93.5838 40.5128C93.8597 40.6594 94.0723 40.8546 94.2214 41.0982C94.3706 41.3393 94.4451 41.6016 94.4451 41.8849C94.4451 42.2504 94.3544 42.5673 94.1729 42.8358C93.9915 43.1042 93.7441 43.354 93.4309 43.5852L91.9096 44.7188C91.5666 44.9723 91.3342 45.2184 91.2124 45.457C91.0906 45.6957 91.0297 45.8672 91.0297 45.9716C91.0297 46.2102 91.0918 46.4327 91.2161 46.639C91.3404 46.8453 91.5156 47.0119 91.7418 47.1387C91.968 47.2654 92.2328 47.3288 92.536 47.3288C92.8244 47.3288 93.1053 47.2679 93.3787 47.1461C93.6522 47.0218 93.8995 46.8429 94.1207 46.6092C94.3445 46.3755 94.521 46.0946 94.6502 45.7665C94.782 45.4384 94.8478 45.0692 94.8478 44.6591H95.698C95.698 45.1662 95.6396 45.5801 95.5227 45.9007C95.4059 46.2214 95.2741 46.4725 95.1275 46.6539C94.9808 46.8354 94.8627 46.9709 94.7733 47.0604C94.7434 47.0977 94.7161 47.1349 94.6912 47.1722C94.6664 47.2095 94.639 47.2468 94.6092 47.2841C94.3631 47.56 94.0524 47.7663 93.677 47.9031C93.3017 48.0373 92.9313 48.1044 92.5659 48.1044Z" fill="#828282"/>
<path d="M81.7686 44.5548V48.0001H80.8887V42.2728H81.7388V43.1677H81.8134C81.9476 42.8769 82.1515 42.6432 82.4249 42.4667C82.6983 42.2877 83.0513 42.1982 83.4838 42.1982C83.8716 42.1982 84.2109 42.2778 84.5018 42.4369C84.7926 42.5935 85.0188 42.8321 85.1804 43.1528C85.342 43.471 85.4228 43.8737 85.4228 44.3609V48.0001H84.5428V44.4205C84.5428 43.9706 84.426 43.6201 84.1923 43.3691C83.9586 43.1155 83.638 42.9887 83.2303 42.9887C82.9494 42.9887 82.6983 43.0496 82.4771 43.1714C82.2583 43.2932 82.0856 43.471 81.9588 43.7046C81.832 43.9383 81.7686 44.2217 81.7686 44.5548Z" fill="#828282"/>
<path d="M76.592 50.2671C76.1669 50.2671 75.8015 50.2124 75.4957 50.1031C75.19 49.9962 74.9352 49.8545 74.7314 49.678C74.53 49.504 74.3697 49.3176 74.2504 49.1187L74.9513 48.6265C75.0309 48.7309 75.1316 48.8502 75.2534 48.9845C75.3752 49.1212 75.5417 49.2393 75.753 49.3387C75.9668 49.4406 76.2464 49.4916 76.592 49.4916C77.0543 49.4916 77.4359 49.3797 77.7367 49.156C78.0375 48.9323 78.1879 48.5818 78.1879 48.1045V46.9411H78.1133C78.0486 47.0455 77.9567 47.1748 77.8374 47.3289C77.7205 47.4806 77.5515 47.616 77.3303 47.7354C77.1115 47.8522 76.8157 47.9106 76.4428 47.9106C75.9805 47.9106 75.5653 47.8012 75.1974 47.5825C74.832 47.3637 74.5424 47.0455 74.3287 46.6279C74.1174 46.2103 74.0117 45.7032 74.0117 45.1066C74.0117 44.52 74.1149 44.0091 74.3212 43.5741C74.5275 43.1366 74.8146 42.7986 75.1825 42.5599C75.5504 42.3188 75.9755 42.1982 76.4577 42.1982C76.8306 42.1982 77.1264 42.2604 77.3452 42.3847C77.5664 42.5065 77.7354 42.6457 77.8523 42.8023C77.9716 42.9564 78.0636 43.0832 78.1282 43.1826H78.2177V42.2728H79.0678V48.1641C79.0678 48.6563 78.956 49.0565 78.7322 49.3648C78.511 49.6755 78.2127 49.903 77.8374 50.0471C77.4645 50.1938 77.0494 50.2671 76.592 50.2671ZM76.5621 47.1201C76.9151 47.1201 77.2134 47.0393 77.457 46.8778C77.7006 46.7162 77.8858 46.4838 78.0126 46.1805C78.1394 45.8772 78.2028 45.5143 78.2028 45.0917C78.2028 44.6791 78.1406 44.3149 78.0163 43.9992C77.892 43.6835 77.7081 43.4362 77.4645 43.2572C77.2209 43.0782 76.9201 42.9887 76.5621 42.9887C76.1893 42.9887 75.8785 43.0832 75.63 43.2721C75.3839 43.461 75.1987 43.7146 75.0744 44.0328C74.9526 44.3509 74.8917 44.7039 74.8917 45.0917C74.8917 45.4894 74.9538 45.8412 75.0781 46.1469C75.2049 46.4502 75.3913 46.6888 75.6374 46.8628C75.886 47.0344 76.1942 47.1201 76.5621 47.1201Z" fill="#828282"/>
<path d="M71.5794 48V42.2727H72.4593V48H71.5794ZM72.0268 41.3182C71.8553 41.3182 71.7074 41.2598 71.5831 41.1429C71.4613 41.0261 71.4004 40.8857 71.4004 40.7216C71.4004 40.5575 71.4613 40.4171 71.5831 40.3002C71.7074 40.1834 71.8553 40.125 72.0268 40.125C72.1983 40.125 72.345 40.1834 72.4668 40.3002C72.5911 40.4171 72.6532 40.5575 72.6532 40.7216C72.6532 40.8857 72.5911 41.0261 72.4668 41.1429C72.345 41.2598 72.1983 41.3182 72.0268 41.3182Z" fill="#828282"/>
<path d="M69.9393 43.5555L69.1488 43.7792C69.0991 43.6475 69.0257 43.5194 68.9288 43.3952C68.8343 43.2684 68.7051 43.164 68.541 43.0819C68.377 42.9999 68.1669 42.9589 67.9109 42.9589C67.5604 42.9589 67.2683 43.0397 67.0346 43.2013C66.8034 43.3604 66.6879 43.5629 66.6879 43.809C66.6879 44.0278 66.7674 44.2006 66.9265 44.3273C67.0856 44.4541 67.3342 44.5597 67.6722 44.6443L68.5224 44.8531C69.0344 44.9774 69.416 45.1675 69.6671 45.4236C69.9181 45.6771 70.0437 46.004 70.0437 46.4042C70.0437 46.7323 69.9492 47.0257 69.7603 47.2842C69.5739 47.5427 69.3129 47.7465 68.9773 47.8957C68.6417 48.0448 68.2514 48.1194 67.8065 48.1194C67.2223 48.1194 66.7388 47.9926 66.356 47.7391C65.9732 47.4855 65.7308 47.1151 65.6289 46.6279L66.4641 46.4191C66.5437 46.7274 66.6941 46.9585 66.9153 47.1127C67.139 47.2668 67.4311 47.3438 67.7915 47.3438C68.2017 47.3438 68.5273 47.2568 68.7685 47.0828C69.0121 46.9063 69.1339 46.695 69.1339 46.449C69.1339 46.2501 69.0643 46.0835 68.9251 45.9493C68.7859 45.8126 68.5721 45.7107 68.2837 45.6436L67.3292 45.4198C66.8047 45.2955 66.4194 45.1029 66.1733 44.8419C65.9297 44.5784 65.8079 44.249 65.8079 43.8538C65.8079 43.5306 65.8986 43.2448 66.0801 42.9962C66.264 42.7476 66.5138 42.5525 66.8295 42.4108C67.1477 42.2691 67.5082 42.1982 67.9109 42.1982C68.4776 42.1982 68.9226 42.3225 69.2457 42.5711C69.5714 42.8197 69.8026 43.1478 69.9393 43.5555Z" fill="#828282"/>
<path d="M61.9627 48.1194C61.4109 48.1194 60.9348 47.9976 60.5346 47.754C60.1369 47.5079 59.8299 47.1649 59.6136 46.7249C59.3999 46.2824 59.293 45.7678 59.293 45.1812C59.293 44.5945 59.3999 44.0775 59.6136 43.6301C59.8299 43.1801 60.1307 42.8296 60.516 42.5786C60.9038 42.325 61.3562 42.1982 61.8732 42.1982C62.1715 42.1982 62.4661 42.248 62.7569 42.3474C63.0478 42.4468 63.3125 42.6084 63.5511 42.8321C63.7898 43.0534 63.9799 43.3467 64.1216 43.7121C64.2633 44.0775 64.3342 44.5274 64.3342 45.0619V45.4347H59.9194V44.6741H63.4393C63.4393 44.3509 63.3746 44.0626 63.2454 43.809C63.1186 43.5555 62.9371 43.3554 62.701 43.2087C62.4673 43.0621 62.1914 42.9887 61.8732 42.9887C61.5227 42.9887 61.2195 43.0757 60.9634 43.2497C60.7099 43.4213 60.5147 43.645 60.378 43.9209C60.2413 44.1968 60.1729 44.4926 60.1729 44.8083V45.3154C60.1729 45.748 60.2475 46.1146 60.3967 46.4154C60.5483 46.7137 60.7583 46.9411 61.0268 47.0977C61.2953 47.2519 61.6072 47.3289 61.9627 47.3289C62.1939 47.3289 62.4027 47.2966 62.5891 47.232C62.7781 47.1649 62.9409 47.0654 63.0776 46.9337C63.2143 46.7994 63.32 46.6329 63.3945 46.434L64.2447 46.6727C64.1552 46.961 64.0048 47.2146 63.7935 47.4333C63.5822 47.6496 63.3212 47.8186 63.0105 47.9404C62.6998 48.0597 62.3505 48.1194 61.9627 48.1194Z" fill="#828282"/>
<path d="M54.2804 48.0001H51.9238V40.3638H54.3848C55.1255 40.3638 55.7594 40.5166 56.2864 40.8224C56.8134 41.1257 57.2173 41.5619 57.4982 42.1312C57.7791 42.6979 57.9196 43.3766 57.9196 44.167C57.9196 44.9625 57.7779 45.6473 57.4945 46.2215C57.2111 46.7933 56.7985 47.2333 56.2566 47.5415C55.7147 47.8473 55.0559 48.0001 54.2804 48.0001ZM52.8485 47.1798H54.2207C54.8521 47.1798 55.3754 47.058 55.7905 46.8144C56.2056 46.5708 56.5151 46.224 56.7189 45.7741C56.9228 45.3242 57.0247 44.7885 57.0247 44.167C57.0247 43.5506 56.924 43.0198 56.7227 42.5749C56.5213 42.1274 56.2205 41.7844 55.8203 41.5458C55.4201 41.3046 54.9217 41.1841 54.3251 41.1841H52.8485V47.1798Z" fill="#828282"/>
</svg>
