<svg width="354" height="121" viewBox="0 0 354 121" fill="none" xmlns="http://www.w3.org/2000/svg">
<path d="M154 59.1826V27.6826H160.03L173.44 49.9126H170.245L183.43 27.6826H189.415L189.505 59.1826H182.665L182.62 38.1676H183.88L173.35 55.8526H170.065L159.31 38.1676H160.84V59.1826H154Z" fill="#232323"/>
<path d="M218.155 41.8576H232.735V47.7076H218.155V41.8576ZM218.155 59.1826H210.865V27.6826H234.67V33.5326H218.155V59.1826Z" fill="#232323"/>
<path d="M239.11 59.1826V34.9726H246.13V59.1826H239.11ZM242.62 31.5976C241.33 31.5976 240.28 31.2226 239.47 30.4726C238.66 29.7226 238.255 28.7926 238.255 27.6826C238.255 26.5726 238.66 25.6426 239.47 24.8926C240.28 24.1426 241.33 23.7676 242.62 23.7676C243.91 23.7676 244.96 24.1276 245.77 24.8476C246.58 25.5376 246.985 26.4376 246.985 27.5476C246.985 28.7176 246.58 29.6926 245.77 30.4726C244.99 31.2226 243.94 31.5976 242.62 31.5976Z" fill="#232323"/>
<path d="M260.791 59.5426C258.721 59.5426 256.726 59.3026 254.806 58.8226C252.916 58.3126 251.416 57.6826 250.306 56.9326L252.646 51.8926C253.756 52.5826 255.061 53.1526 256.561 53.6026C258.091 54.0226 259.591 54.2326 261.061 54.2326C262.681 54.2326 263.821 54.0376 264.481 53.6476C265.171 53.2576 265.516 52.7176 265.516 52.0276C265.516 51.4576 265.246 51.0376 264.706 50.7676C264.196 50.4676 263.506 50.2426 262.636 50.0926C261.766 49.9426 260.806 49.7926 259.756 49.6426C258.736 49.4926 257.701 49.2976 256.651 49.0576C255.601 48.7876 254.641 48.3976 253.771 47.8876C252.901 47.3776 252.196 46.6876 251.656 45.8176C251.146 44.9476 250.891 43.8226 250.891 42.4426C250.891 40.9126 251.326 39.5626 252.196 38.3926C253.096 37.2226 254.386 36.3076 256.066 35.6476C257.746 34.9576 259.756 34.6126 262.096 34.6126C263.746 34.6126 265.426 34.7926 267.136 35.1526C268.846 35.5126 270.271 36.0376 271.411 36.7276L269.071 41.7226C267.901 41.0326 266.716 40.5676 265.516 40.3276C264.346 40.0576 263.206 39.9226 262.096 39.9226C260.536 39.9226 259.396 40.1326 258.676 40.5526C257.956 40.9726 257.596 41.5126 257.596 42.1726C257.596 42.7726 257.851 43.2226 258.361 43.5226C258.901 43.8226 259.606 44.0626 260.476 44.2426C261.346 44.4226 262.291 44.5876 263.311 44.7376C264.361 44.8576 265.411 45.0526 266.461 45.3226C267.511 45.5926 268.456 45.9826 269.296 46.4926C270.166 46.9726 270.871 47.6476 271.411 48.5176C271.951 49.3576 272.221 50.4676 272.221 51.8476C272.221 53.3476 271.771 54.6826 270.871 55.8526C269.971 56.9926 268.666 57.8926 266.956 58.5526C265.276 59.2126 263.221 59.5426 260.791 59.5426Z" fill="#232323"/>
<path d="M291.267 34.6126C293.187 34.6126 294.897 35.0026 296.397 35.7826C297.927 36.5326 299.127 37.7026 299.997 39.2926C300.867 40.8526 301.302 42.8626 301.302 45.3226V59.1826H294.282V46.4026C294.282 44.4526 293.847 43.0126 292.977 42.0826C292.137 41.1526 290.937 40.6876 289.377 40.6876C288.267 40.6876 287.262 40.9276 286.362 41.4076C285.492 41.8576 284.802 42.5626 284.292 43.5226C283.812 44.4826 283.572 45.7126 283.572 47.2126V59.1826H276.552V25.7926H283.572V37.5151V41.6776C282.151 39.8512 281.787 39.3067 283.572 37.5151C284.197 36.8877 284.917 36.3552 285.732 35.9176C287.352 35.0476 289.197 34.6126 291.267 34.6126Z" fill="#232323"/>
<path d="M319.856 59.5426C317.096 59.5426 314.666 59.0026 312.566 57.9226C310.496 56.8426 308.891 55.3726 307.751 53.5126C306.611 51.6226 306.041 49.4776 306.041 47.0776C306.041 44.6476 306.596 42.5026 307.706 40.6426C308.846 38.7526 310.391 37.2826 312.341 36.2326C314.291 35.1526 316.496 34.6126 318.956 34.6126C321.326 34.6126 323.456 35.1226 325.346 36.1426C327.266 37.1326 328.781 38.5726 329.891 40.4626C331.001 42.3226 331.556 44.5576 331.556 47.1676C331.556 47.4376 331.541 47.7526 331.511 48.1126C331.481 48.4426 331.451 48.7576 331.421 49.0576H311.756V44.9626H327.731L325.031 46.1776C325.031 44.9176 324.776 43.8226 324.266 42.8926C323.756 41.9626 323.051 41.2426 322.151 40.7326C321.251 40.1926 320.201 39.9226 319.001 39.9226C317.801 39.9226 316.736 40.1926 315.806 40.7326C314.906 41.2426 314.201 41.9776 313.691 42.9376C313.181 43.8676 312.926 44.9776 312.926 46.2676V47.3476C312.926 48.6676 313.211 49.8376 313.781 50.8576C314.381 51.8476 315.206 52.6126 316.256 53.1526C317.336 53.6626 318.596 53.9176 320.036 53.9176C321.326 53.9176 322.451 53.7226 323.411 53.3326C324.401 52.9426 325.301 52.3576 326.111 51.5776L329.846 55.6276C328.736 56.8876 327.341 57.8626 325.661 58.5526C323.981 59.2126 322.046 59.5426 319.856 59.5426Z" fill="#232323"/>
<path d="M336.23 59.1826V34.9726H342.935V41.8126L341.99 39.8326C342.71 38.1226 343.865 36.8326 345.455 35.9626C347.045 35.0626 348.98 34.6126 351.26 34.6126V41.0926C350.96 41.0626 350.69 41.0476 350.45 41.0476C350.21 41.0176 349.955 41.0026 349.685 41.0026C347.765 41.0026 346.205 41.5576 345.005 42.6676C343.835 43.7476 343.25 45.4426 343.25 47.7526V59.1826H336.23Z" fill="#232323"/>
<path d="M154 101.158V83.3076H161.064C162.951 83.3076 164.608 83.6901 166.036 84.4551C167.464 85.2201 168.569 86.2741 169.351 87.6171C170.15 88.9601 170.549 90.4986 170.549 92.2326C170.549 93.9666 170.15 95.5051 169.351 96.8481C168.569 98.1911 167.464 99.2451 166.036 100.01C164.608 100.775 162.951 101.158 161.064 101.158H154ZM155.301 99.9846H160.961C162.644 99.9846 164.107 99.6531 165.348 98.9901C166.589 98.3271 167.549 97.4176 168.229 96.2616C168.909 95.0886 169.249 93.7456 169.249 92.2326C169.249 90.7196 168.909 89.3851 168.229 88.2291C167.549 87.0561 166.589 86.1381 165.348 85.4751C164.107 84.8121 162.644 84.4806 160.961 84.4806H155.301V99.9846Z" fill="#232323"/>
<path d="M180.065 101.26C178.722 101.26 177.532 100.971 176.495 100.393C175.475 99.8146 174.668 99.0156 174.073 97.9956C173.495 96.9756 173.206 95.8111 173.206 94.5021C173.206 93.1761 173.478 92.0116 174.022 91.0086C174.583 89.9886 175.348 89.1896 176.317 88.6116C177.286 88.0336 178.374 87.7446 179.581 87.7446C180.788 87.7446 181.867 88.0251 182.819 88.5861C183.788 89.1471 184.545 89.9376 185.089 90.9576C185.65 91.9606 185.93 93.1251 185.93 94.4511C185.93 94.5021 185.922 94.5616 185.905 94.6296C185.905 94.6806 185.905 94.7401 185.905 94.8081H174.149V93.8136H185.216L184.706 94.2981C184.723 93.2611 184.502 92.3346 184.043 91.5186C183.601 90.6856 182.998 90.0396 182.233 89.5806C181.468 89.1046 180.584 88.8666 179.581 88.8666C178.595 88.8666 177.711 89.1046 176.929 89.5806C176.164 90.0396 175.56 90.6856 175.118 91.5186C174.676 92.3346 174.455 93.2696 174.455 94.3236V94.5531C174.455 95.6411 174.693 96.6101 175.169 97.4601C175.662 98.2931 176.334 98.9476 177.184 99.4236C178.034 99.8826 179.003 100.112 180.091 100.112C180.941 100.112 181.731 99.9591 182.462 99.6531C183.21 99.3471 183.839 98.8796 184.349 98.2506L185.089 99.0921C184.511 99.8061 183.78 100.35 182.896 100.724C182.029 101.081 181.085 101.26 180.065 101.26Z" fill="#232323"/>
<path d="M193.241 101.26C192.136 101.26 191.099 101.098 190.13 100.775C189.178 100.452 188.438 100.044 187.911 99.5511L188.498 98.5311C189.008 98.9731 189.688 99.3556 190.538 99.6786C191.388 99.9846 192.306 100.138 193.292 100.138C194.686 100.138 195.689 99.9081 196.301 99.4491C196.913 98.9901 197.219 98.3866 197.219 97.6386C197.219 97.0946 197.057 96.6696 196.734 96.3636C196.428 96.0406 196.012 95.7941 195.485 95.6241C194.958 95.4541 194.38 95.3181 193.751 95.2161C193.122 95.0971 192.493 94.9696 191.864 94.8336C191.235 94.6976 190.657 94.5021 190.13 94.2471C189.603 93.9921 189.178 93.6436 188.855 93.2016C188.549 92.7426 188.396 92.1391 188.396 91.3911C188.396 90.7111 188.583 90.0991 188.957 89.5551C189.331 89.0111 189.892 88.5776 190.64 88.2546C191.388 87.9146 192.323 87.7446 193.445 87.7446C194.278 87.7446 195.111 87.8636 195.944 88.1016C196.794 88.3396 197.482 88.6541 198.009 89.0451L197.423 90.0651C196.862 89.6401 196.233 89.3341 195.536 89.1471C194.839 88.9601 194.133 88.8666 193.419 88.8666C192.127 88.8666 191.175 89.1046 190.563 89.5806C189.968 90.0566 189.671 90.6516 189.671 91.3656C189.671 91.9266 189.824 92.3771 190.13 92.7171C190.453 93.0401 190.878 93.2951 191.405 93.4821C191.932 93.6521 192.51 93.7966 193.139 93.9156C193.768 94.0176 194.397 94.1366 195.026 94.2726C195.655 94.4086 196.233 94.6041 196.76 94.8591C197.287 95.0971 197.703 95.4371 198.009 95.8791C198.332 96.3041 198.494 96.8821 198.494 97.6131C198.494 98.3441 198.29 98.9816 197.882 99.5256C197.491 100.07 196.904 100.495 196.122 100.801C195.34 101.107 194.38 101.26 193.241 101.26Z" fill="#232323"/>
<path d="M202.052 101.158V87.8466H203.327V101.158H202.052ZM202.689 84.6081C202.4 84.6081 202.154 84.5061 201.95 84.3021C201.746 84.0981 201.644 83.8601 201.644 83.5881C201.644 83.2991 201.746 83.0526 201.95 82.8486C202.154 82.6446 202.4 82.5426 202.689 82.5426C202.995 82.5426 203.242 82.6446 203.429 82.8486C203.633 83.0356 203.735 83.2736 203.735 83.5626C203.735 83.8516 203.633 84.0981 203.429 84.3021C203.242 84.5061 202.995 84.6081 202.689 84.6081Z" fill="#232323"/>
<path d="M214.234 106.207C213.027 106.207 211.88 106.02 210.792 105.646C209.704 105.272 208.82 104.753 208.14 104.09L208.828 103.121C209.491 103.733 210.282 104.209 211.2 104.549C212.135 104.889 213.138 105.059 214.209 105.059C215.994 105.059 217.303 104.643 218.136 103.81C218.986 102.977 219.411 101.668 219.411 99.8826V96.1851L219.666 94.1961L219.462 92.2071V87.8466H220.686V99.7296C220.686 101.957 220.142 103.589 219.054 104.626C217.983 105.68 216.376 106.207 214.234 106.207ZM213.877 100.673C212.619 100.673 211.489 100.401 210.486 99.8571C209.5 99.2961 208.709 98.5311 208.114 97.5621C207.536 96.5761 207.247 95.4541 207.247 94.1961C207.247 92.9211 207.536 91.7991 208.114 90.8301C208.709 89.8611 209.5 89.1046 210.486 88.5606C211.489 88.0166 212.619 87.7446 213.877 87.7446C215.084 87.7446 216.164 88.0081 217.116 88.5351C218.085 89.0451 218.85 89.7846 219.411 90.7536C219.972 91.7056 220.252 92.8531 220.252 94.1961C220.252 95.5221 219.972 96.6696 219.411 97.6386C218.85 98.6076 218.085 99.3556 217.116 99.8826C216.164 100.41 215.084 100.673 213.877 100.673ZM213.979 99.5256C215.05 99.5256 215.994 99.3046 216.81 98.8626C217.626 98.4036 218.263 97.7746 218.722 96.9756C219.198 96.1596 219.436 95.2331 219.436 94.1961C219.436 93.1421 219.198 92.2156 218.722 91.4166C218.263 90.6176 217.626 89.9971 216.81 89.5551C215.994 89.1131 215.05 88.8921 213.979 88.8921C212.942 88.8921 212.007 89.1131 211.174 89.5551C210.358 89.9971 209.712 90.6176 209.236 91.4166C208.777 92.2156 208.548 93.1421 208.548 94.1961C208.548 95.2331 208.777 96.1596 209.236 96.9756C209.712 97.7746 210.358 98.4036 211.174 98.8626C212.007 99.3046 212.942 99.5256 213.979 99.5256Z" fill="#232323"/>
<path d="M232.585 87.7446C233.673 87.7446 234.617 87.9571 235.416 88.3821C236.232 88.7901 236.861 89.4191 237.303 90.2691C237.762 91.1021 237.991 92.1391 237.991 93.3801V101.158H236.716V93.4821C236.716 91.9861 236.334 90.8471 235.569 90.0651C234.821 89.2831 233.767 88.8921 232.407 88.8921C231.37 88.8921 230.469 89.1046 229.704 89.5296C228.939 89.9546 228.352 90.5496 227.944 91.3146C227.553 92.0796 227.358 92.9976 227.358 94.0686V101.158H226.083V87.8466H227.307V91.5441L227.128 91.1361C227.536 90.0821 228.208 89.2576 229.143 88.6626C230.078 88.0506 231.225 87.7446 232.585 87.7446Z" fill="#232323"/>
<path d="M247.214 101.158L255.425 83.3076H256.726L264.937 101.158H263.534L255.782 84.1236H256.343L248.617 101.158H247.214ZM250.223 96.1341L250.657 95.0376H261.341L261.775 96.1341H250.223Z" fill="#232323"/>
<path d="M273.178 106.207C271.971 106.207 270.824 106.02 269.736 105.646C268.648 105.272 267.764 104.753 267.084 104.09L267.772 103.121C268.435 103.733 269.226 104.209 270.144 104.549C271.079 104.889 272.082 105.059 273.153 105.059C274.938 105.059 276.247 104.643 277.08 103.81C277.93 102.977 278.355 101.668 278.355 99.8826V96.1851L278.61 94.1961L278.406 92.2071V87.8466H279.63V99.7296C279.63 101.957 279.086 103.589 277.998 104.626C276.927 105.68 275.32 106.207 273.178 106.207ZM272.821 100.673C271.563 100.673 270.433 100.401 269.43 99.8571C268.444 99.2961 267.653 98.5311 267.058 97.5621C266.48 96.5761 266.191 95.4541 266.191 94.1961C266.191 92.9211 266.48 91.7991 267.058 90.8301C267.653 89.8611 268.444 89.1046 269.43 88.5606C270.433 88.0166 271.563 87.7446 272.821 87.7446C274.028 87.7446 275.108 88.0081 276.06 88.5351C277.029 89.0451 277.794 89.7846 278.355 90.7536C278.916 91.7056 279.196 92.8531 279.196 94.1961C279.196 95.5221 278.916 96.6696 278.355 97.6386C277.794 98.6076 277.029 99.3556 276.06 99.8826C275.108 100.41 274.028 100.673 272.821 100.673ZM272.923 99.5256C273.994 99.5256 274.938 99.3046 275.754 98.8626C276.57 98.4036 277.207 97.7746 277.666 96.9756C278.142 96.1596 278.38 95.2331 278.38 94.1961C278.38 93.1421 278.142 92.2156 277.666 91.4166C277.207 90.6176 276.57 89.9971 275.754 89.5551C274.938 89.1131 273.994 88.8921 272.923 88.8921C271.886 88.8921 270.951 89.1131 270.118 89.5551C269.302 89.9971 268.656 90.6176 268.18 91.4166C267.721 92.2156 267.492 93.1421 267.492 94.1961C267.492 95.2331 267.721 96.1596 268.18 96.9756C268.656 97.7746 269.302 98.4036 270.118 98.8626C270.951 99.3046 271.886 99.5256 272.923 99.5256Z" fill="#232323"/>
<path d="M290.433 101.26C289.09 101.26 287.9 100.971 286.863 100.393C285.843 99.8146 285.035 99.0156 284.44 97.9956C283.862 96.9756 283.573 95.8111 283.573 94.5021C283.573 93.1761 283.845 92.0116 284.389 91.0086C284.95 89.9886 285.715 89.1896 286.684 88.6116C287.653 88.0336 288.741 87.7446 289.948 87.7446C291.155 87.7446 292.235 88.0251 293.187 88.5861C294.156 89.1471 294.912 89.9376 295.456 90.9576C296.017 91.9606 296.298 93.1251 296.298 94.4511C296.298 94.5021 296.289 94.5616 296.272 94.6296C296.272 94.6806 296.272 94.7401 296.272 94.8081H284.517V93.8136H295.584L295.074 94.2981C295.091 93.2611 294.87 92.3346 294.411 91.5186C293.969 90.6856 293.365 90.0396 292.6 89.5806C291.835 89.1046 290.951 88.8666 289.948 88.8666C288.962 88.8666 288.078 89.1046 287.296 89.5806C286.531 90.0396 285.928 90.6856 285.486 91.5186C285.044 92.3346 284.823 93.2696 284.823 94.3236V94.5531C284.823 95.6411 285.061 96.6101 285.537 97.4601C286.03 98.2931 286.701 98.9476 287.551 99.4236C288.401 99.8826 289.37 100.112 290.458 100.112C291.308 100.112 292.099 99.9591 292.83 99.6531C293.578 99.3471 294.207 98.8796 294.717 98.2506L295.456 99.0921C294.878 99.8061 294.147 100.35 293.263 100.724C292.396 101.081 291.453 101.26 290.433 101.26Z" fill="#232323"/>
<path d="M306.744 87.7446C307.832 87.7446 308.776 87.9571 309.575 88.3821C310.391 88.7901 311.02 89.4191 311.462 90.2691C311.921 91.1021 312.15 92.1391 312.15 93.3801V101.158H310.875V93.4821C310.875 91.9861 310.493 90.8471 309.728 90.0651C308.98 89.2831 307.926 88.8921 306.566 88.8921C305.529 88.8921 304.628 89.1046 303.863 89.5296C303.098 89.9546 302.511 90.5496 302.103 91.3146C301.712 92.0796 301.517 92.9976 301.517 94.0686V101.158H300.242V87.8466H301.466V91.5441L301.287 91.1361C301.695 90.0821 302.367 89.2576 303.302 88.6626C304.237 88.0506 305.384 87.7446 306.744 87.7446Z" fill="#232323"/>
<path d="M322.678 101.26C321.386 101.26 320.23 100.971 319.21 100.393C318.207 99.8146 317.408 99.0156 316.813 97.9956C316.235 96.9756 315.946 95.8111 315.946 94.5021C315.946 93.1761 316.235 92.0031 316.813 90.9831C317.408 89.9631 318.207 89.1726 319.21 88.6116C320.23 88.0336 321.386 87.7446 322.678 87.7446C323.749 87.7446 324.718 87.9486 325.585 88.3566C326.469 88.7646 327.183 89.3766 327.727 90.1926L326.784 90.8811C326.308 90.2011 325.713 89.6996 324.999 89.3766C324.285 89.0536 323.511 88.8921 322.678 88.8921C321.641 88.8921 320.706 89.1301 319.873 89.6061C319.057 90.0651 318.411 90.7196 317.935 91.5696C317.476 92.4026 317.247 93.3801 317.247 94.5021C317.247 95.6241 317.476 96.6101 317.935 97.4601C318.411 98.2931 319.057 98.9476 319.873 99.4236C320.706 99.8826 321.641 100.112 322.678 100.112C323.511 100.112 324.285 99.9506 324.999 99.6276C325.713 99.3046 326.308 98.8031 326.784 98.1231L327.727 98.8116C327.183 99.6276 326.469 100.24 325.585 100.648C324.718 101.056 323.749 101.26 322.678 101.26Z" fill="#232323"/>
<path d="M331.014 106.207C330.402 106.207 329.824 106.105 329.28 105.901C328.753 105.697 328.303 105.399 327.929 105.008L328.566 104.039C328.906 104.396 329.272 104.66 329.663 104.83C330.071 105 330.53 105.085 331.04 105.085C331.652 105.085 332.187 104.915 332.646 104.575C333.122 104.235 333.564 103.614 333.972 102.713L334.89 100.673L335.069 100.444L340.704 87.8466H342.005L335.171 102.968C334.814 103.784 334.423 104.422 333.998 104.881C333.59 105.357 333.139 105.697 332.646 105.901C332.153 106.105 331.609 106.207 331.014 106.207ZM334.865 101.489L328.694 87.8466H330.045L335.655 100.367L334.865 101.489Z" fill="#232323"/>
<path d="M14.228 91.2845L16.4248 88.2591L3 65.2654L26.9205 71.0743M14.228 91.2845L17.035 106.775M14.228 91.2845L36.4399 94.31M17.035 106.775L21.5506 114.52M17.035 106.775L36.4399 94.31M21.5506 114.52L29.9716 117.183M21.5506 114.52L36.4399 94.31M29.9716 117.183H44.0066M29.9716 117.183L36.4399 94.31M44.0066 117.183L47.6547 114.157M44.0066 117.183L36.4399 94.31M64.1438 100.482L83.9149 45.2973M64.1438 100.482L78.0568 115.73L76.2261 117.183L47.6547 114.157M64.1438 100.482L47.6547 114.157M64.1438 100.482L36.4399 94.31M83.9149 45.2973C83.9149 45.2973 84.8946 42.1303 85.9896 40.3355C86.503 39.494 86.8258 39.0391 87.4541 38.2782C87.9456 37.6829 88.2005 37.3184 88.7966 36.8259C89.5188 36.2293 89.9939 35.9501 90.8713 35.6157C91.8661 35.2366 92.3833 35.0648 93.4342 34.8896C95.0495 34.6204 96.073 34.6555 97.7058 34.5266C99.6537 34.3728 100.762 34.3655 102.71 34.5266C105.672 34.7715 107.279 35.3533 110.154 36.0998C112.954 36.8267 114.408 37.6521 117.233 38.2782C119.772 38.8409 121.225 39.106 123.823 39.2463C127.017 39.4188 132 38.7622 132 38.7622L130.78 37.189M83.9149 45.2973L36.4399 94.31M130.78 37.189L131.39 36.8259L130.78 35.1317H129.437L128.095 34.1635M130.78 37.189L128.095 36.8259C128.095 36.8259 124.523 36.3894 122.237 36.0998C119.328 35.7315 117.688 35.5866 114.792 35.1317C111.727 34.6502 106.981 33.6794 106.981 33.6794L98.8042 32.5903L93.5563 33.6794L85.9896 35.1317M26.9205 71.0743C26.9205 71.0743 37.9345 61.5444 45.7152 56.431C51.2344 52.8039 60.3605 47.9597 60.3605 47.9597L80.0095 36.0998M26.9205 71.0743L36.4399 94.31M80.0095 36.0998L83.9149 33.6794L87.9423 29.6858L92.0918 25.3291L95.8751 21.5775M80.0095 36.0998C80.0095 36.0998 52.2744 64.6344 40.3453 86.6858C38.7533 89.6286 36.4399 94.31 36.4399 94.31M95.8751 21.5775L97.3396 19.1571L107.347 3.18262L107.713 5.36096M95.8751 21.5775L85.9896 35.1317M95.8751 21.5775L107.713 5.36096M107.713 5.36096L108.934 4.9979V8.26542M108.934 8.26542L111.375 11.2909V16.4947L112.717 22.5457M108.934 8.26542L98.8042 30.896M112.717 22.5457L125.044 31.7431L127.24 32.5903M112.717 22.5457L98.8042 30.896M127.24 32.5903L128.095 34.1635M127.24 32.5903L98.8042 30.896M128.095 34.1635L98.8042 30.896M36.4399 94.31L80.0095 41.9087L85.9896 35.1317M85.9896 35.1317L98.8042 30.896" stroke="#232323" stroke-width="2"/>
<path d="M198 64.3026V22.1826H202.43V64.3026H198Z" fill="#DBDBDB"/>
</svg>
