<svg width="984" height="1018" viewBox="0 0 984 1018" fill="none" xmlns="http://www.w3.org/2000/svg">
<g opacity="0.15">
<path d="M-68.1075 786.566L-48.5154 759.614L-168.245 554.779L45.091 606.527M-68.1075 786.566L-43.0732 924.56M-68.1075 786.566L129.99 813.518M-43.0732 924.56L-2.80063 993.557M-43.0732 924.56L129.99 813.518M-2.80063 993.557L72.3022 1017.27M-2.80063 993.557L129.99 813.518M72.3022 1017.27L197.474 1017.27M72.3022 1017.27L129.99 813.518M197.474 1017.27L230.009 990.323M197.474 1017.27L129.99 813.518M377.067 868.5L553.396 376.896M377.067 868.5L501.15 1004.34L484.824 1017.27L230.009 990.323M377.067 868.5L230.009 990.323M377.067 868.5L129.99 813.518M553.396 376.896C553.396 376.896 562.134 348.684 571.9 332.695C576.478 325.199 579.357 321.146 584.961 314.368C589.345 309.065 591.617 305.818 596.934 301.431C603.375 296.116 607.612 293.629 615.437 290.65C624.309 287.273 628.922 285.742 638.295 284.182C652.7 281.783 661.829 282.096 676.391 280.947C693.763 279.577 703.649 279.513 721.017 280.947C747.436 283.13 761.765 288.312 787.412 294.962C812.384 301.438 825.35 308.791 850.542 314.368C873.187 319.381 886.149 321.743 909.318 322.992C937.806 324.529 982.244 318.68 982.244 318.68L971.36 304.665M553.396 376.896L129.99 813.518M971.36 304.665L976.802 301.431L971.36 286.338H959.387L947.414 277.713M971.36 304.665L947.414 301.431C947.414 301.431 915.565 297.542 895.168 294.962C869.228 291.681 854.602 290.39 828.773 286.338C801.436 282.049 759.112 273.401 759.112 273.401L686.187 263.698L639.383 273.401L571.9 286.338M45.091 606.527C45.091 606.527 143.319 521.631 212.712 476.08C261.935 443.768 343.326 400.614 343.326 400.614L518.566 294.962M45.091 606.527L129.99 813.518M518.566 294.962L553.396 273.401L589.315 237.824L626.322 199.013L660.064 165.593M518.566 294.962C518.566 294.962 271.21 549.158 164.82 745.599C150.622 771.815 129.99 813.518 129.99 813.518M660.064 165.593L673.125 144.031L762.378 1.72498L765.643 21.1304M660.064 165.593L571.9 286.338M660.064 165.593L765.643 21.1304M765.643 21.1304L776.528 17.8962V47.0043M776.528 47.0043L798.297 73.9562V120.314L810.27 174.218M776.528 47.0043L686.187 248.605M810.27 174.218L920.203 256.152L939.795 263.698M810.27 174.218L686.187 248.605M939.795 263.698L947.414 277.713M939.795 263.698L686.187 248.605M947.414 277.713L686.187 248.605M129.99 813.518L518.566 346.71L571.9 286.338M571.9 286.338L686.187 248.605" stroke="#A2A2A2"/>
</g>
</svg>
