<svg width="456" height="413" viewBox="0 0 456 413" fill="none" xmlns="http://www.w3.org/2000/svg">
<path d="M170.793 0L97.8327 306.847L84.5673 235.526C111.098 235.526 132.655 243.819 149.236 260.406C165.818 275.886 174.109 296.896 174.109 323.434C174.109 349.972 165.818 371.534 149.236 388.121C132.655 404.707 112.204 413 87.8836 413C61.3527 413 39.7964 404.707 23.2145 388.121C7.73818 370.428 0 348.866 0 323.434C0 313.482 0.552728 304.636 1.65818 296.896C2.76364 289.155 4.97455 279.756 8.29091 268.699C11.6073 257.641 16.0291 244.372 21.5564 228.892L91.2 0H170.793ZM452.684 0L379.724 306.847L366.458 235.526C392.989 235.526 414.545 243.819 431.127 260.406C447.709 275.886 456 296.896 456 323.434C456 349.972 447.709 371.534 431.127 388.121C414.545 404.707 394.095 413 369.775 413C343.244 413 321.687 404.707 305.105 388.121C289.629 370.428 281.891 348.866 281.891 323.434C281.891 313.482 282.444 304.636 283.549 296.896C284.655 289.155 286.865 279.756 290.182 268.699C293.498 257.641 297.92 244.372 303.447 228.892L373.091 0H452.684Z" fill="black" fill-opacity="0.05"/>
</svg>
