<svg width="181" height="181" viewBox="0 0 181 181" fill="none" xmlns="http://www.w3.org/2000/svg">
<circle cx="90.5" cy="91.5" r="50" fill="#6D45FF" stroke="#6D45FF"/>
<rect x="113.5" y="68.5" width="46" height="46" transform="rotate(90 113.5 68.5)" stroke="#6D45FF"/>
<path d="M90.5004 73.5666L90.5004 109.433M90.5004 109.433L104.256 95.6781M90.5004 109.433L76.745 95.6781" stroke="#82DA71" stroke-width="1.5" stroke-linecap="round" stroke-linejoin="round"/>
<circle cx="90.5" cy="90.5" r="90" stroke="#6D45FF"/>
<circle cx="90" cy="158" r="6.5" fill="#82DA71" stroke="#6D45FF"/>
<path d="M49.9439 150.285L51.3231 151.066C51.1798 151.509 51.1251 151.938 51.1588 152.354C51.1888 152.768 51.2906 153.159 51.4642 153.527C51.632 153.896 51.8608 154.231 52.1504 154.533C52.4401 154.834 52.774 155.092 53.1522 155.306C53.8418 155.697 54.5652 155.877 55.3225 155.845C56.0761 155.812 56.8102 155.55 57.5246 155.058C58.2353 154.565 58.8702 153.825 59.429 152.839C59.9879 151.852 60.2965 150.928 60.3547 150.064C60.4093 149.199 60.2572 148.434 59.8986 147.771C59.5363 147.105 59.0103 146.577 58.3208 146.186C57.9426 145.972 57.5499 145.818 57.1425 145.724C56.7352 145.63 56.331 145.604 55.93 145.647C55.5232 145.69 55.1346 145.806 54.7642 145.992C54.388 146.181 54.0478 146.448 53.7435 146.795L52.3643 146.014C52.798 145.49 53.2823 145.077 53.8172 144.772C54.352 144.468 54.9148 144.27 55.5054 144.179C56.0939 144.091 56.6894 144.108 57.2918 144.229C57.8906 144.348 58.4773 144.57 59.0519 144.896C60.0233 145.446 60.7526 146.173 61.24 147.076C61.7274 147.979 61.94 148.991 61.8779 150.112C61.8159 151.233 61.4444 152.394 60.7637 153.595C60.083 154.796 59.2778 155.711 58.3482 156.34C57.4186 156.97 56.4411 157.307 55.4159 157.353C54.3906 157.399 53.3923 157.147 52.421 156.596C51.8464 156.271 51.3542 155.881 50.9446 155.429C50.5312 154.974 50.212 154.47 49.987 153.916C49.7598 153.366 49.6394 152.784 49.6256 152.169C49.6096 151.557 49.7158 150.929 49.9439 150.285Z" fill="white"/>
<path fill-rule="evenodd" clip-rule="evenodd" d="M49.3992 148.826L52.5255 150.598L52.2746 151.374C52.1671 151.706 52.1336 152.003 52.1555 152.273L52.1562 152.282C52.1775 152.575 52.2486 152.846 52.3685 153.1L52.3717 153.106L52.3747 153.113C52.4942 153.376 52.6579 153.618 52.8714 153.84C53.0914 154.068 53.3478 154.267 53.6452 154.436C54.1796 154.739 54.7184 154.869 55.2798 154.846C55.8186 154.822 56.3735 154.636 56.956 154.236C57.5109 153.85 58.0527 153.239 58.559 152.346C59.0654 151.452 59.3109 150.673 59.3568 149.999C59.401 149.294 59.2757 148.722 59.0195 148.247C58.7507 147.754 58.3621 147.359 57.8277 147.056C57.5303 146.887 57.2278 146.77 56.9184 146.698C56.6152 146.629 56.3225 146.611 56.0358 146.641C55.7507 146.672 55.4787 146.752 55.2146 146.885L55.2121 146.886C54.962 147.012 54.7225 147.196 54.4951 147.455L53.9584 148.066L50.8324 146.295L51.5944 145.375C52.0972 144.769 52.6724 144.273 53.3228 143.903C53.9601 143.541 54.6381 143.301 55.3524 143.191L55.358 143.19C56.0644 143.085 56.7761 143.105 57.488 143.248C57.4883 143.248 57.4877 143.248 57.488 143.248L57.2918 144.229M50.9446 155.429C50.5312 154.974 50.212 154.47 49.987 153.916C49.7599 153.366 49.6394 152.784 49.6256 152.169C49.618 151.879 49.6379 151.585 49.6853 151.287C49.7378 150.958 49.824 150.623 49.9439 150.285L51.3231 151.066C51.1798 151.509 51.1251 151.938 51.1588 152.354C51.1888 152.768 51.2906 153.159 51.4642 153.527C51.6321 153.896 51.8608 154.231 52.1505 154.533C52.4401 154.834 52.774 155.092 53.1522 155.306C53.8418 155.697 54.5652 155.877 55.3225 155.845C56.0761 155.812 56.8102 155.55 57.5246 155.058C58.2354 154.565 58.8702 153.825 59.4291 152.839C59.9879 151.852 60.2965 150.928 60.3547 150.064C60.4093 149.199 60.2572 148.434 59.8986 147.771C59.5363 147.105 59.0104 146.577 58.3208 146.186C57.9426 145.972 57.5499 145.818 57.1426 145.724C56.7352 145.63 56.3311 145.604 55.93 145.647C55.5232 145.69 55.1346 145.806 54.7642 145.992C54.388 146.181 54.0478 146.448 53.7435 146.795L52.3643 146.014C52.5931 145.738 52.8359 145.492 53.0928 145.277C53.323 145.084 53.5644 144.916 53.8172 144.772C54.352 144.468 54.9148 144.27 55.5054 144.179M48.6259 152.193C48.6067 151.446 48.7372 150.697 49.0012 149.951L49.3992 148.826M48.6259 152.193C48.6425 152.926 48.7867 153.629 49.0616 154.295C49.332 154.96 49.7148 155.563 50.2041 156.101C50.2043 156.101 50.2039 156.101 50.2041 156.101L50.9446 155.429" fill="#6D45FF"/>
<path d="M46.4265 135.279C47.1007 135.942 47.5359 136.663 47.7319 137.442C47.9219 138.221 47.8845 139.01 47.6197 139.807C47.3488 140.605 46.8607 141.362 46.1553 142.079C45.4499 142.796 44.6975 143.299 43.8983 143.589C43.093 143.878 42.3041 143.945 41.5314 143.788C40.7527 143.632 40.0475 143.243 39.4158 142.621C39.0513 142.262 38.7512 141.847 38.5154 141.376C38.2796 140.905 38.1504 140.389 38.1279 139.829C38.1023 139.271 38.2227 138.684 38.489 138.068C38.7553 137.451 39.2097 136.816 39.8524 136.163L40.3008 135.707L45.6948 141.016L44.7801 141.945L40.4795 137.713C40.0909 138.108 39.8231 138.538 39.6762 139.003C39.5262 139.465 39.5073 139.928 39.6194 140.391C39.7286 140.851 39.9775 141.272 40.3663 141.655C40.7945 142.076 41.2697 142.335 41.7918 142.43C42.3078 142.525 42.8152 142.487 43.3141 142.314C43.8129 142.141 44.2521 141.862 44.6317 141.476L45.2415 140.857C45.7616 140.328 46.1114 139.791 46.2909 139.244C46.4643 138.697 46.4811 138.167 46.3414 137.652C46.1987 137.141 45.9102 136.672 45.4759 136.244C45.1935 135.967 44.8995 135.755 44.594 135.61C44.2824 135.465 43.9639 135.39 43.6385 135.387C43.31 135.386 42.9807 135.463 42.6504 135.616L41.8987 134.302C42.3547 134.058 42.8434 133.929 43.3646 133.915C43.8828 133.905 44.405 134.013 44.9311 134.237C45.4542 134.465 45.9527 134.812 46.4265 135.279Z" fill="white"/>
<path fill-rule="evenodd" clip-rule="evenodd" d="M48.7039 137.205C48.9406 138.176 48.8902 139.155 48.5692 140.122L48.5671 140.129C48.2393 141.094 47.6593 141.977 46.8684 142.78C46.0773 143.584 45.2023 144.18 44.2394 144.529L44.2372 144.529C43.2754 144.876 42.3009 144.964 41.334 144.768C40.3434 144.569 39.4682 144.075 38.7148 143.334C38.2695 142.895 37.905 142.39 37.6215 141.823C37.3187 141.218 37.1574 140.563 37.1292 139.872C37.096 139.136 37.2574 138.398 37.5713 137.671C37.9009 136.908 38.4402 136.173 39.1401 135.461L40.2899 134.293L41.324 135.311L40.5208 133.907L41.4263 133.421C42.0213 133.102 42.6633 132.933 43.3397 132.916L43.3454 132.916C44.0194 132.902 44.6817 133.043 45.3244 133.318L45.3308 133.321C45.9832 133.605 46.5814 134.028 47.1283 134.566C47.9098 135.335 48.4539 136.212 48.7021 137.198L48.7039 137.205ZM42.7213 136.686L45.2463 139.171C45.2835 139.091 45.3144 139.013 45.3396 138.937C45.4577 138.562 45.4619 138.23 45.3778 137.918C45.2883 137.6 45.1023 137.279 44.7749 136.957C44.5599 136.746 44.3568 136.604 44.1685 136.514C43.9817 136.428 43.8057 136.389 43.6331 136.387C43.4669 136.387 43.2824 136.425 43.0719 136.523L42.7213 136.686ZM43.6389 135.387C43.9644 135.39 44.2829 135.465 44.5944 135.61C44.8999 135.755 45.1939 135.967 45.4764 136.244C45.9107 136.672 46.1992 137.141 46.3419 137.652C46.4816 138.167 46.4647 138.697 46.2913 139.244C46.2187 139.465 46.1183 139.685 45.9899 139.903C45.8306 140.174 45.6283 140.442 45.3831 140.709L40.3012 135.707L39.8528 136.163C39.7666 136.25 39.6838 136.338 39.6044 136.425C39.0916 136.986 38.72 137.533 38.4894 138.068C38.2231 138.684 38.1028 139.271 38.1283 139.829C38.1509 140.389 38.28 140.905 38.5158 141.376C38.7516 141.847 39.0517 142.262 39.4162 142.621C40.0479 143.243 40.7531 143.632 41.5318 143.788C42.3045 143.945 43.0935 143.878 43.8987 143.589C44.1598 143.494 44.4158 143.377 44.6668 143.236C44.9027 143.105 45.1341 142.953 45.3611 142.781C45.6322 142.576 45.8971 142.342 46.1557 142.079C46.4143 141.816 46.6437 141.548 46.8439 141.274C46.9206 141.169 46.9931 141.064 47.0613 140.957C47.3004 140.584 47.4866 140.2 47.6201 139.807C47.885 139.01 47.9224 138.221 47.7324 137.442C47.5363 136.663 47.1011 135.942 46.4269 135.279C45.9531 134.812 45.4546 134.465 44.9315 134.237C44.4054 134.013 43.8832 133.905 43.365 133.915C43.1928 133.92 43.0241 133.937 42.859 133.966C42.5245 134.027 42.2045 134.138 41.8991 134.302L42.6509 135.616C42.9811 135.463 43.3105 135.386 43.6389 135.387ZM43.6099 142.196C43.9207 142.055 44.2059 141.868 44.4656 141.635L40.4799 137.713C40.2286 137.968 40.0278 138.238 39.8776 138.523C39.7955 138.678 39.7285 138.838 39.6766 139.003C39.5266 139.465 39.5077 139.928 39.6199 140.391C39.729 140.851 39.978 141.272 40.3667 141.655C40.795 142.076 41.2701 142.335 41.7922 142.43C42.3082 142.525 42.8157 142.487 43.3145 142.314C43.4154 142.279 43.5139 142.24 43.6099 142.196ZM40.6401 139.273C40.6367 139.284 40.6334 139.294 40.6302 139.304L40.6278 139.311C40.5337 139.601 40.524 139.876 40.5918 140.155L40.5929 140.16C40.6523 140.411 40.7925 140.671 41.0682 140.942C41.3731 141.242 41.6722 141.392 41.9717 141.446L41.9738 141.447C42.2617 141.5 42.5406 141.491 42.8206 141.419L40.6401 139.273Z" fill="#6D45FF"/>
<path d="M38.9417 126.842L30.676 132.14L29.8895 130.913L31.138 130.113L31.0828 130.027C30.5772 130.139 30.0706 130.079 29.5629 129.847C29.0552 129.616 28.6427 129.253 28.3253 128.758C28.2655 128.664 28.1926 128.547 28.1065 128.404C28.0204 128.262 27.9579 128.153 27.9191 128.077L29.2106 127.249C29.2274 127.299 29.2745 127.408 29.3519 127.576C29.4234 127.742 29.5132 127.91 29.6212 128.079C29.8788 128.481 30.1931 128.785 30.5641 128.993C30.9292 129.199 31.3175 129.3 31.7289 129.294C32.1345 129.287 32.5239 129.164 32.897 128.925L38.1276 125.572L38.9417 126.842Z" fill="white"/>
<path fill-rule="evenodd" clip-rule="evenodd" d="M40.3237 127.144L30.3743 133.522L28.5084 130.611L28.6784 130.502C28.1997 130.197 27.8006 129.791 27.4839 129.297C27.4178 129.194 27.3401 129.069 27.2515 128.922C27.1621 128.775 27.0842 128.64 27.0281 128.53L26.618 127.723L29.7496 125.716L30.1558 126.921C30.1561 126.922 30.1566 126.923 30.1571 126.924C30.161 126.934 30.1674 126.949 30.177 126.971C30.1962 127.016 30.2237 127.077 30.2607 127.158L30.2662 127.17L30.2715 127.182C30.3192 127.293 30.3822 127.412 30.4636 127.539C30.6435 127.82 30.8421 128.002 31.0529 128.12L31.0565 128.122C31.27 128.243 31.4837 128.297 31.7139 128.294C31.9165 128.29 32.1264 128.231 32.3577 128.083L38.4302 124.19L40.3237 127.144ZM30.7216 129.074C30.6688 129.049 30.6164 129.022 30.5645 128.993C30.2143 128.797 29.9146 128.514 29.6654 128.145C29.6506 128.123 29.6361 128.101 29.6217 128.079C29.5136 127.91 29.4238 127.742 29.3523 127.576C29.275 127.408 29.2279 127.299 29.211 127.249L27.9195 128.077C27.9583 128.153 28.0208 128.262 28.1069 128.404C28.193 128.547 28.266 128.664 28.3258 128.758C28.6431 129.253 29.0556 129.616 29.5633 129.847C29.5904 129.86 29.6176 129.871 29.6447 129.883C29.9414 130.007 30.2377 130.073 30.5336 130.081C30.717 130.085 30.9002 130.067 31.0832 130.027L31.1384 130.113L29.8899 130.913L30.6765 132.14L38.9421 126.842L38.128 125.572L32.8974 128.925C32.5459 129.15 32.1799 129.272 31.7996 129.292C31.7762 129.293 31.7528 129.294 31.7294 129.294C31.4376 129.298 31.1574 129.249 30.8889 129.146C30.8326 129.124 30.7769 129.101 30.7216 129.074Z" fill="#6D45FF"/>
<path d="M22.1354 115.538L23.3273 115.076L25.1665 119.82L23.9745 120.283L22.1354 115.538ZM21.2452 119.75L20.7 118.344L29.4252 114.961C29.8225 114.807 30.0982 114.634 30.2522 114.442C30.4007 114.247 30.4733 114.045 30.47 113.836C30.4611 113.625 30.4167 113.416 30.3366 113.209C30.2765 113.054 30.2193 112.93 30.1649 112.837C30.1065 112.745 30.0598 112.672 30.0248 112.617L31.1774 111.841C31.2501 111.923 31.3375 112.042 31.4394 112.199C31.5454 112.354 31.6492 112.563 31.7509 112.825C31.9049 113.223 31.9704 113.645 31.9475 114.093C31.9229 114.537 31.7844 114.951 31.5318 115.337C31.2776 115.719 30.8843 116.013 30.3519 116.22L21.2452 119.75Z" fill="white"/>
<path fill-rule="evenodd" clip-rule="evenodd" d="M20.8421 114.968L23.8989 113.783L24.6567 115.737L29.0644 114.029C29.2207 113.968 29.3284 113.913 29.3987 113.869C29.4351 113.846 29.4564 113.829 29.4671 113.82C29.4586 113.741 29.4388 113.658 29.4048 113.571C29.3606 113.457 29.3278 113.388 29.3087 113.353L28.6581 112.332L31.3432 110.525L31.9241 111.175C32.0442 111.31 32.1616 111.475 32.2731 111.646C32.4345 111.885 32.5684 112.166 32.6839 112.464C32.8915 113 32.9766 113.563 32.9468 114.144L32.9466 114.148C32.912 114.774 32.7141 115.358 32.369 115.885L32.3649 115.891C31.9712 116.483 31.3912 116.89 30.714 117.152L25.9249 119.009L26.4609 120.391L23.4042 121.576L22.8681 120.194L20.6749 121.044L19.4067 117.773L21.6 116.922L20.8421 114.968ZM22.8938 117.493L22.136 115.538L23.328 115.076L24.0858 117.031L29.4258 114.961C29.8232 114.807 30.0988 114.634 30.2528 114.442C30.4013 114.247 30.4739 114.045 30.4706 113.836C30.4618 113.625 30.4173 113.416 30.3372 113.209C30.2771 113.054 30.2199 112.93 30.1655 112.837L30.0254 112.617L31.178 111.841C31.2507 111.923 31.3381 112.042 31.4401 112.199C31.4877 112.269 31.5348 112.349 31.5815 112.441C31.6211 112.518 31.6603 112.603 31.6992 112.696C31.7167 112.737 31.7341 112.781 31.7515 112.825C31.9055 113.223 31.9711 113.645 31.9481 114.093C31.9236 114.537 31.785 114.951 31.5324 115.337C31.2782 115.719 30.885 116.013 30.3525 116.22L24.6311 118.438L25.1671 119.82L23.9751 120.283L23.4391 118.9L21.2458 119.75L20.7006 118.344L22.8938 117.493Z" fill="#6D45FF"/>
<path d="M29.041 104.035L19.4045 105.916L19.1156 104.435L28.752 102.555L29.041 104.035ZM17.6515 105.476C17.7079 105.765 17.6581 106.033 17.5024 106.28C17.3458 106.524 17.1294 106.672 16.8534 106.726C16.5774 106.78 16.3211 106.724 16.0845 106.557C15.8471 106.386 15.7003 106.157 15.6439 105.868C15.5876 105.579 15.6378 105.313 15.7944 105.07C15.9501 104.823 16.166 104.672 16.4421 104.618C16.7181 104.564 16.9748 104.623 17.2122 104.793C17.4488 104.96 17.5952 105.188 17.6515 105.476Z" fill="white"/>
<path fill-rule="evenodd" clip-rule="evenodd" d="M30.2139 104.825L18.6145 107.089L18.5035 106.52C18.4601 106.62 18.4085 106.718 18.3486 106.813L18.3432 106.822C18.044 107.287 17.5968 107.6 17.0449 107.708C16.4929 107.815 15.9608 107.693 15.5087 107.375L15.5004 107.369C15.0552 107.049 14.7671 106.596 14.6624 106.06C14.5579 105.524 14.6541 104.996 14.9507 104.533C15.2469 104.065 15.6934 103.745 16.2505 103.637C16.8076 103.528 17.3415 103.656 17.792 103.979C17.8847 104.044 17.9706 104.116 18.0493 104.192L17.9425 103.645L29.5419 101.382L30.2139 104.825ZM17.2121 104.793C16.9748 104.623 16.7181 104.564 16.442 104.618C16.166 104.672 15.9501 104.823 15.7943 105.07C15.6377 105.313 15.5876 105.579 15.6439 105.868C15.7002 106.157 15.847 106.386 16.0844 106.557C16.321 106.724 16.5773 106.78 16.8533 106.726C17.1294 106.672 17.3457 106.524 17.5023 106.28C17.6581 106.033 17.7078 105.765 17.6515 105.476C17.5952 105.188 17.4487 104.96 17.2121 104.793ZM29.0409 104.035L28.752 102.555L19.1155 104.435L19.4044 105.916L29.0409 104.035Z" fill="#6D45FF"/>
<path d="M17.8216 90.4277L19.0997 90.398L19.2229 95.6891L17.9449 95.7189L17.8216 90.4277ZM27.7235 93.9055L16.5532 94.1657C15.9909 94.1788 15.5192 94.0576 15.1381 93.8022C14.7571 93.5468 14.4679 93.2104 14.2706 92.793C14.0734 92.3756 13.9693 91.9326 13.9584 91.464C13.9497 91.0934 13.9725 90.7902 14.0267 90.5545C14.0809 90.3188 14.1322 90.1428 14.1806 90.0266L15.4944 90.4308C15.4706 90.5081 15.4411 90.6153 15.406 90.7525C15.3707 90.8855 15.3556 91.0606 15.3607 91.2779C15.3723 91.7763 15.5063 92.1334 15.7628 92.3491C16.0192 92.5605 16.3903 92.6605 16.8759 92.6492L27.6884 92.3974L27.7235 93.9055Z" fill="white"/>
<path fill-rule="evenodd" clip-rule="evenodd" d="M16.7985 89.4513L20.076 89.3749L20.1272 91.5732L28.6647 91.3743L28.7464 94.8819L20.2089 95.0808L20.2458 96.6656L16.9683 96.7419L16.9314 95.1571L16.5764 95.1654C15.8552 95.1822 15.1691 95.0269 14.5812 94.6329C14.0491 94.2762 13.6404 93.8 13.3664 93.2203C13.1084 92.6744 12.9726 92.0936 12.9585 91.4873C12.9488 91.0726 12.9721 90.6781 13.052 90.3304C13.1095 90.0801 13.1758 89.8379 13.2575 89.6419L13.6068 88.8039L16.7441 89.769L16.45 90.7248C16.4331 90.7798 16.4082 90.8694 16.3745 91.0008L16.3724 91.0089C16.372 91.0109 16.3678 91.0295 16.3644 91.0695C16.3606 91.1135 16.3584 91.1743 16.3603 91.2546C16.3642 91.4242 16.3884 91.5212 16.406 91.568C16.409 91.5762 16.4117 91.5824 16.4139 91.587C16.4523 91.6079 16.5713 91.6557 16.8497 91.6496L16.7985 89.4513ZM16.873 92.6493C16.8739 92.6493 16.8749 92.6492 16.8758 92.6492L17.8727 92.626L17.8215 90.4277L19.0996 90.398L19.1508 92.5962L27.6882 92.3974L27.7234 93.9055L19.1859 94.1043L19.2228 95.6891L17.9448 95.7189L17.9078 94.1341L16.5531 94.1657C15.9908 94.1788 15.5191 94.0576 15.138 93.8022C14.757 93.5468 14.4678 93.2104 14.2705 92.793C14.0732 92.3756 13.9691 91.9326 13.9582 91.464C13.9544 91.298 13.9568 91.1456 13.9655 91.0067C13.9763 90.8354 13.9966 90.6847 14.0266 90.5545C14.0364 90.5116 14.0462 90.4707 14.0558 90.4318C14.0993 90.2568 14.1409 90.1217 14.1805 90.0266L15.4943 90.4308C15.4941 90.4311 15.494 90.4315 15.4939 90.4319C15.4702 90.5091 15.4408 90.616 15.4058 90.7525C15.3706 90.8855 15.3555 91.0606 15.3605 91.2779C15.3721 91.7763 15.5062 92.1334 15.7627 92.3491C16.0186 92.5601 16.3887 92.6601 16.873 92.6493Z" fill="#6D45FF"/>
<path d="M28.1742 83.0317L18.4607 81.6021L18.6803 80.1097L28.3939 81.5393L28.1742 83.0317ZM16.9535 80.605C16.9106 80.8959 16.7746 81.1321 16.5455 81.3138C16.3169 81.4912 16.0635 81.5594 15.7853 81.5185C15.507 81.4775 15.284 81.3391 15.1163 81.1034C14.9491 80.8634 14.887 80.598 14.9298 80.3071C14.9726 80.0162 15.1083 79.7821 15.3369 79.6046C15.566 79.423 15.8197 79.3527 16.098 79.3936C16.3763 79.4346 16.5989 79.575 16.7661 79.815C16.9338 80.0507 16.9963 80.3141 16.9535 80.605Z" fill="white"/>
<path fill-rule="evenodd" clip-rule="evenodd" d="M29.0181 84.1667L17.3259 82.4458L17.4103 81.8728C17.3361 81.9526 17.2549 82.0277 17.1668 82.0975L17.1589 82.1037C16.7221 82.4428 16.1962 82.5897 15.6398 82.5078C15.0834 82.4259 14.6223 82.1337 14.3017 81.6832L14.2958 81.6749C13.9823 81.2248 13.861 80.7027 13.9407 80.1615C14.0201 79.6216 14.2862 79.156 14.7199 78.8178C15.1549 78.4746 15.6823 78.3216 16.2438 78.4043C16.8053 78.4869 17.2663 78.7854 17.584 79.2393C17.6496 79.332 17.7068 79.4279 17.7556 79.5263L17.8368 78.9747L29.529 80.6956L29.0181 84.1667ZM16.7663 79.815C16.5991 79.575 16.3764 79.4346 16.0982 79.3936C15.8199 79.3527 15.5662 79.423 15.337 79.6046C15.1085 79.782 14.9728 80.0162 14.93 80.3071C14.8872 80.598 14.9493 80.8634 15.1165 81.1034C15.2842 81.3391 15.5072 81.4775 15.7855 81.5184C16.0637 81.5594 16.3171 81.4912 16.5457 81.3138C16.7748 81.1321 16.9108 80.8959 16.9536 80.605C16.9965 80.3141 16.934 80.0507 16.7663 79.815ZM28.1744 83.0317L28.3941 81.5393L18.6805 80.1096L18.4609 81.6021L28.1744 83.0317Z" fill="#6D45FF"/>
<path d="M31.5653 69.9137C31.2442 70.8035 30.7707 71.5002 30.145 72.0038C29.5167 72.5019 28.7849 72.7973 27.9496 72.89C27.1117 72.9772 26.2198 72.8501 25.2738 72.5087C24.3279 72.1673 23.5564 71.6941 22.9593 71.089C22.3596 70.4784 21.9695 69.7894 21.7889 69.022C21.6057 68.2492 21.6646 67.4459 21.9654 66.6122C22.139 66.1312 22.3906 65.6851 22.7202 65.274C23.0498 64.8629 23.4644 64.5301 23.964 64.2754C24.4596 64.0194 25.0433 63.8835 25.715 63.8676C26.3866 63.8518 27.1534 63.9994 28.0152 64.3104L28.6164 64.5274L26.0472 71.6462L24.8207 71.2035L26.8691 65.5278C26.348 65.3397 25.8454 65.2761 25.3614 65.337C24.8787 65.3939 24.4505 65.57 24.0765 65.8655C23.7041 66.1569 23.4253 66.5591 23.2401 67.0722C23.0361 67.6374 22.9999 68.177 23.1315 68.6911C23.2605 69.1998 23.5077 69.6446 23.8731 70.0257C24.2384 70.4067 24.6756 70.6891 25.1847 70.8728L26.0024 71.1679C26.6998 71.4196 27.3345 71.5127 27.9063 71.4473C28.4755 71.3764 28.9645 71.17 29.3733 70.8283C29.778 70.4851 30.0838 70.0269 30.2907 69.4537C30.4252 69.0809 30.4946 68.7254 30.4989 68.3872C30.5006 68.0435 30.435 67.7231 30.3022 67.4259C30.1653 67.1274 29.9582 66.8601 29.6809 66.6241L30.5605 65.3921C30.9734 65.7042 31.2947 66.0943 31.5245 66.5623C31.7502 67.0289 31.8709 67.5481 31.8865 68.12C31.898 68.6905 31.791 69.2884 31.5653 69.9137Z" fill="white"/>
<path fill-rule="evenodd" clip-rule="evenodd" d="M30.7661 72.7874C29.9833 73.408 29.0723 73.7716 28.0597 73.8839L28.053 73.8847C27.0389 73.9902 25.9947 73.8321 24.9342 73.4493C23.8733 73.0665 22.9666 72.5204 22.2473 71.7914L22.2456 71.7897C21.5294 71.0604 21.0416 70.2121 20.8155 69.2519C20.5826 68.2687 20.6658 67.2671 21.0246 66.2727C21.2367 65.685 21.5435 65.1428 21.9398 64.6485C22.3631 64.1205 22.8907 63.7004 23.5073 63.3857C24.1619 63.0481 24.8994 62.8866 25.6912 62.8679C26.5225 62.8483 27.4159 63.0311 28.3544 63.3698L29.8963 63.9263L29.4038 65.291L30.3435 63.9747L31.1633 64.5944C31.7019 65.0016 32.1237 65.5143 32.4219 66.1216L32.4244 66.1267C32.718 66.7335 32.8669 67.3941 32.8859 68.0928L32.8861 68.0998C32.9005 68.8112 32.7663 69.5313 32.5057 70.2532C32.1335 71.2845 31.5641 72.1452 30.7718 72.7829L30.7661 72.7874ZM28.7382 67.1351L27.5356 70.4675C27.6238 70.4678 27.7077 70.4633 27.7875 70.4543C28.1775 70.4049 28.4805 70.2702 28.729 70.0633C28.9806 69.8491 29.1939 69.5463 29.3499 69.1142C29.4523 68.8304 29.4956 68.5869 29.4987 68.3783C29.4993 68.1724 29.4609 67.9964 29.391 67.8385C29.3211 67.6877 29.2093 67.536 29.0326 67.3856L28.7382 67.1351ZM30.302 67.4259C30.4348 67.7231 30.5004 68.0435 30.4987 68.3872C30.4944 68.7254 30.425 69.0809 30.2905 69.4537C30.0836 70.0269 29.7778 70.4851 29.3731 70.8283C28.9643 71.17 28.4753 71.3764 27.9061 71.4473C27.6748 71.4738 27.4332 71.4743 27.1814 71.4489C26.8687 71.4173 26.5401 71.3458 26.1957 71.2342L28.6162 64.5274L28.015 64.3104C27.8994 64.2687 27.7855 64.23 27.6734 64.1941C26.9492 63.9628 26.2964 63.8539 25.7148 63.8676C25.0431 63.8835 24.4595 64.0194 23.9638 64.2755C23.4642 64.5301 23.0496 64.8629 22.72 65.274C22.3904 65.6851 22.1389 66.1312 21.9653 66.6122C21.6644 67.4459 21.6055 68.2492 21.7887 69.022C21.9693 69.7894 22.3594 70.4784 22.9591 71.089C23.1541 71.2866 23.3677 71.4702 23.6 71.6397C23.8181 71.7989 24.0527 71.9457 24.3037 72.0802C24.6036 72.2407 24.9269 72.3836 25.2737 72.5087C25.6204 72.6339 25.9599 72.7302 26.2921 72.7978C26.4195 72.8237 26.5458 72.8453 26.6711 72.8628C27.1103 72.9239 27.5364 72.933 27.9494 72.89C28.7848 72.7973 29.5166 72.5019 30.1448 72.0038C30.7706 71.5003 31.244 70.8035 31.5651 69.9137C31.7908 69.2884 31.8979 68.6905 31.8863 68.12C31.8707 67.5481 31.75 67.0289 31.5243 66.5623C31.4483 66.4077 31.3624 66.2616 31.2665 66.1239C31.0722 65.8451 30.8367 65.6011 30.5603 65.3921L29.6807 66.6241C29.958 66.8601 30.1651 67.1274 30.302 67.4259ZM24.1034 70.2448C24.3616 70.4681 24.6507 70.6492 24.9705 70.7879L26.8689 65.5278C26.5319 65.4061 26.2026 65.3366 25.8811 65.3191C25.7055 65.3095 25.5322 65.3155 25.3612 65.337C24.8785 65.3939 24.4503 65.57 24.0764 65.8655C23.7039 66.1569 23.4251 66.5591 23.2399 67.0722C23.0359 67.6374 22.9997 68.177 23.1313 68.6911C23.2603 69.1998 23.5075 69.6446 23.8729 70.0257C23.9468 70.1027 24.0236 70.1758 24.1034 70.2448ZM25.5179 66.3254C25.5072 66.3266 25.4966 66.3278 25.486 66.3292L25.4782 66.3302C25.1755 66.3658 24.9221 66.4717 24.6963 66.6501L24.6926 66.653C24.4898 66.8117 24.3118 67.0478 24.1805 67.4117C24.0353 67.8141 24.0246 68.1482 24.1001 68.4432L24.1006 68.4453C24.1726 68.729 24.2969 68.9789 24.4793 69.2031L25.5179 66.3254Z" fill="#6D45FF"/>
<path d="M38.2097 56.663C37.7422 57.3344 37.1599 57.8091 36.4627 58.087C35.7621 58.3625 34.9994 58.4287 34.1748 58.2856C33.3467 58.14 32.506 57.7702 31.6527 57.1761C30.8064 56.5868 30.173 55.9304 29.7526 55.2067C29.3321 54.483 29.1325 53.7443 29.1536 52.9905C29.1747 52.2367 29.4215 51.5206 29.8939 50.8422C30.2591 50.3176 30.635 49.964 31.0217 49.7815C31.4074 49.5931 31.7663 49.4951 32.0987 49.4876C32.4299 49.4742 32.6972 49.4707 32.9004 49.4772L32.9734 49.3723L29.0075 46.6112L29.8695 45.3731L40.613 52.853L39.7803 54.0491L38.5423 53.1871L38.44 53.334C38.5236 53.5272 38.6189 53.7856 38.7258 54.1093C38.8293 54.4306 38.8601 54.8077 38.8182 55.2407C38.7729 55.6713 38.57 56.1454 38.2097 56.663ZM37.2144 55.7208C37.5602 55.2242 37.723 54.7144 37.7028 54.1915C37.6791 53.6662 37.4985 53.1536 37.1611 52.6539C36.8201 52.1517 36.3454 51.6888 35.7369 51.2651C35.1353 50.8463 34.5481 50.5673 33.9752 50.428C33.3989 50.2864 32.8655 50.2993 32.375 50.4667C31.8811 50.6317 31.4589 50.966 31.1082 51.4696C30.743 51.9941 30.5733 52.525 30.5991 53.0622C30.6238 53.5935 30.8044 54.1061 31.1408 54.5999C31.4761 55.0878 31.9271 55.529 32.4936 55.9234C33.0672 56.3227 33.6491 56.5981 34.2395 56.7495C34.8288 56.895 35.3822 56.8908 35.8995 56.7369C36.4158 56.5771 36.8541 56.2384 37.2144 55.7208Z" fill="white"/>
<path fill-rule="evenodd" clip-rule="evenodd" d="M36.8335 59.0159L36.8291 59.0177C35.9392 59.3675 34.9887 59.4417 34.0043 59.2708L34.0022 59.2705C33.0012 59.0945 32.0268 58.6547 31.0818 57.9967C30.1428 57.343 29.3971 56.5848 28.8883 55.709C28.3851 54.8428 28.1276 53.9221 28.1545 52.9625C28.1816 51.9954 28.5011 51.093 29.0736 50.2708C29.4816 49.6848 29.9642 49.1898 30.5465 48.9008L27.6159 46.8605L29.6206 43.9811L42.0055 52.6037L40.0301 55.4411L39.8181 55.2935C39.8168 55.308 39.8154 55.3224 39.814 55.3369L39.8132 55.3454C39.744 56.003 39.4465 56.6373 39.0308 57.2343C38.462 58.0514 37.7289 58.659 36.8335 59.0159ZM38.8242 54.6016C38.8077 54.425 38.7751 54.261 38.7263 54.1093C38.7153 54.076 38.7044 54.0434 38.6936 54.0115C38.5998 53.7332 38.5155 53.5073 38.4405 53.334L38.5427 53.1871L39.7808 54.049L40.6135 52.853L29.8699 45.3731L29.008 46.6111L32.9739 49.3723L32.9008 49.4772C32.7104 49.4711 32.4638 49.4738 32.161 49.4852C32.1406 49.486 32.12 49.4868 32.0991 49.4876C31.916 49.4917 31.7248 49.5233 31.5255 49.5824C31.3631 49.6305 31.1953 49.6969 31.0222 49.7815C30.6355 49.964 30.2595 50.3176 29.8943 50.8421C29.422 51.5206 29.1752 52.2367 29.1541 52.9905C29.133 53.7443 29.3326 54.483 29.753 55.2067C30.1734 55.9304 30.8068 56.5868 31.6531 57.176C32.5065 57.7701 33.3472 58.14 34.1753 58.2855C34.9999 58.4287 35.7625 58.3625 36.4632 58.087C37.1603 57.8091 37.7427 57.3344 38.2101 56.663C38.5705 56.1454 38.7733 55.6713 38.8187 55.2407C38.8408 55.0121 38.8426 54.799 38.8242 54.6016ZM30.5996 53.0622C30.6243 53.5935 30.8049 54.1061 31.1413 54.5999C31.4766 55.0878 31.9275 55.529 32.4941 55.9234C33.0677 56.3227 33.6496 56.5981 34.24 56.7495C34.8293 56.895 35.3826 56.8908 35.9 56.7369C36.4162 56.5771 36.8545 56.2384 37.2149 55.7208C37.5571 55.2292 37.7201 54.7248 37.7038 54.2075C37.7036 54.2022 37.7035 54.1968 37.7032 54.1915C37.6956 54.0211 37.6714 53.852 37.6307 53.6843C37.5806 53.4778 37.5054 53.2733 37.4052 53.0708C37.336 52.9309 37.2547 52.7919 37.1615 52.6539C36.8206 52.1517 36.3458 51.6887 35.7373 51.2651C35.1358 50.8463 34.5486 50.5673 33.9757 50.428C33.8186 50.3894 33.6647 50.3623 33.514 50.3466C33.2935 50.3237 33.0798 50.3254 32.873 50.3517C32.7025 50.3733 32.5367 50.4116 32.3755 50.4667C32.3628 50.4709 32.3501 50.4753 32.3374 50.4798C31.8598 50.649 31.4503 50.9789 31.1087 51.4695C30.7435 51.9941 30.5738 52.525 30.5996 53.0622ZM36.3334 53.2144C36.0746 52.8336 35.6951 52.4541 35.1659 52.0858C34.6421 51.721 34.167 51.5036 33.7395 51.3997L33.737 51.3991C33.3187 51.2963 32.9827 51.316 32.6986 51.413L32.6923 51.4152C32.4373 51.5004 32.1797 51.6814 31.9294 52.0409C31.6657 52.4197 31.5851 52.737 31.5984 53.0143L31.5985 53.0157C31.6136 53.3396 31.7219 53.6755 31.9666 54.0352C32.2233 54.4082 32.5824 54.7664 33.0655 55.1027C33.5537 55.4426 34.0262 55.6617 34.484 55.7797C34.9181 55.8862 35.2856 55.8752 35.6093 55.78C35.8767 55.696 36.1406 55.5137 36.3942 55.1494C36.635 54.8036 36.7139 54.5051 36.7041 54.2333C36.6893 53.9188 36.582 53.5828 36.3334 53.2144Z" fill="#6D45FF"/>
<path d="M57.619 37.7113L54.1051 39.7044L47.6465 28.3177L51.316 26.2363C52.4206 25.6098 53.4951 25.3016 54.5395 25.3118C55.5818 25.3183 56.5531 25.6272 57.4534 26.2384C58.3516 26.846 59.135 27.7391 59.8036 28.9178C60.4763 30.1039 60.8443 31.2449 60.9074 32.3408C60.9684 33.433 60.7252 34.4381 60.1779 35.356C59.6284 36.2703 58.7755 37.0554 57.619 37.7113ZM54.7902 37.6992L56.8363 36.5386C57.7777 36.0046 58.455 35.3804 58.8679 34.6661C59.2809 33.9517 59.4491 33.1729 59.3725 32.3296C59.2959 31.4863 58.9948 30.6013 58.4692 29.6747C57.9478 28.7554 57.3488 28.0492 56.6722 27.556C55.9935 27.0591 55.2549 26.802 54.4563 26.7847C53.6556 26.7636 52.8105 27.0054 51.9209 27.51L49.7191 28.7588L54.7902 37.6992Z" fill="white"/>
<path fill-rule="evenodd" clip-rule="evenodd" d="M53.7286 41.0676L46.2832 27.9413L50.8226 25.3665C52.0469 24.6721 53.2929 24.3 54.5474 24.3119C55.7962 24.32 56.9589 24.694 58.015 25.4111C59.068 26.1237 59.9476 27.145 60.6733 28.4244C61.4039 29.7124 61.8318 31.0016 61.9056 32.2833L61.9057 32.2851C61.9776 33.5712 61.6886 34.7748 61.0367 35.8682L61.0349 35.8712C60.3774 36.9651 59.3821 37.8609 58.1123 38.5812L53.7286 41.0676ZM60.1778 35.356C59.6283 36.2703 58.7754 37.0554 57.6189 37.7113L54.1051 39.7044L47.6464 28.3177L51.3159 26.2363C52.4205 25.6098 53.495 25.3016 54.5394 25.3118C55.5817 25.3183 56.553 25.6272 57.4533 26.2384C58.3515 26.846 59.1349 27.7391 59.8035 28.9178C60.4762 30.1039 60.8442 31.2449 60.9073 32.3408C60.9683 33.433 60.7251 34.4381 60.1778 35.356ZM54.4562 26.7847C53.6555 26.7636 52.8104 27.0054 51.9208 27.51L49.7191 28.7588L54.7901 37.6992L56.8362 36.5386C57.7776 36.0046 58.4549 35.3804 58.8678 34.6661C59.2808 33.9517 59.449 33.1729 59.3724 32.3296C59.2958 31.4863 58.9947 30.6013 58.4691 29.6747C57.9477 28.7554 57.3487 28.0492 56.6721 27.556C55.9935 27.0591 55.2548 26.802 54.4562 26.7847ZM55.1666 36.336L56.3428 35.6688C57.1765 35.1959 57.7018 34.685 58.0021 34.1656C58.3088 33.635 58.4349 33.0634 58.3765 32.42C58.3156 31.7501 58.0722 31.0018 57.5993 30.168C57.1302 29.3411 56.6188 28.7546 56.0831 28.3641L56.0814 28.3629C55.5588 27.9803 55.0169 27.7971 54.4345 27.7844L54.4299 27.7843C53.8549 27.7692 53.1887 27.9405 52.4142 28.3798L51.0822 29.1352L55.1666 36.336Z" fill="#6D45FF"/>
<path d="M75.3071 30.6395C74.3879 30.8632 73.5457 30.8533 72.7803 30.6097C72.018 30.361 71.3676 29.9141 70.8291 29.2689C70.2936 28.6186 69.907 27.8048 69.6692 26.8276C69.4314 25.8505 69.3998 24.9459 69.5745 24.114C69.7523 23.2769 70.1113 22.5711 70.6513 21.9967C71.1944 21.4172 71.8966 21.0227 72.7578 20.8131C73.2547 20.6921 73.7655 20.6555 74.2902 20.7033C74.815 20.751 75.3214 20.9128 75.8096 21.1887C76.2968 21.4605 76.7324 21.872 77.1166 22.4232C77.5007 22.9744 77.8011 23.6951 78.0178 24.5853L78.1689 25.2064L70.8154 26.996L70.507 25.729L76.37 24.3022C76.239 23.7639 76.0144 23.3098 75.6963 22.9399C75.3824 22.5689 74.999 22.3092 74.5462 22.1606C74.0976 22.0111 73.6082 22.0008 73.0782 22.1297C72.4944 22.2718 72.0246 22.5397 71.6686 22.9333C71.3158 23.3218 71.0815 23.7735 70.9656 24.2885C70.8497 24.8036 70.8558 25.324 70.9838 25.8498L71.1893 26.6945C71.3647 27.415 71.6375 27.9955 72.0079 28.436C72.3814 28.8714 72.8234 29.1651 73.3341 29.3171C73.8437 29.465 74.3946 29.4669 74.9867 29.3228C75.3718 29.2291 75.7065 29.0906 75.9908 28.9074C76.2783 28.719 76.5092 28.4874 76.6835 28.2125C76.8568 27.9335 76.9653 27.6133 77.0089 27.2518L78.5217 27.3047C78.4895 27.8212 78.3418 28.3045 78.0785 28.7546C77.8142 29.2004 77.448 29.5878 76.9798 29.9166C76.5106 30.2413 75.9531 30.4823 75.3071 30.6395Z" fill="white"/>
<path fill-rule="evenodd" clip-rule="evenodd" d="M72.4702 31.5604C71.5206 31.2506 70.7143 30.6918 70.0615 29.9097L70.0571 29.9045C69.4091 29.1175 68.9642 28.1596 68.6976 27.0641C68.4309 25.9683 68.3855 24.9108 68.5959 23.9085L68.5964 23.9062C68.8088 22.9063 69.2466 22.0312 69.9223 21.3124C70.6133 20.5752 71.4943 20.0914 72.5214 19.8414C73.1285 19.6937 73.7499 19.65 74.3809 19.7074C75.0549 19.7687 75.6965 19.9765 76.2993 20.3168C76.9423 20.676 77.4843 21.2017 77.9371 21.8515C78.4125 22.5337 78.7535 23.3794 78.9895 24.3489L79.3771 25.9416L77.9673 26.2847L79.5837 26.3412L79.5198 27.3668C79.4779 28.0407 79.2834 28.6755 78.9418 29.2595L78.9389 29.2644C78.5951 29.8443 78.1267 30.3332 77.5547 30.735L77.549 30.7389C76.9639 31.1439 76.2894 31.4297 75.5437 31.6111C74.4784 31.8704 73.4463 31.871 72.4772 31.5627L72.4702 31.5604ZM76.0625 26.7483L72.6201 27.586C72.6686 27.6598 72.7188 27.7272 72.7702 27.7887C73.0268 28.0866 73.3065 28.2648 73.6162 28.3577C73.9338 28.4492 74.304 28.4598 74.7503 28.3512C75.0435 28.2798 75.2704 28.1815 75.446 28.0689C75.618 27.9556 75.7436 27.8264 75.8366 27.6809C75.9237 27.5393 75.9884 27.3624 76.0162 27.132L76.0625 26.7483ZM76.6836 28.2125C76.5093 28.4874 76.2784 28.719 75.9909 28.9074C75.7066 29.0906 75.3719 29.2291 74.9868 29.3228C74.3947 29.4669 73.8438 29.465 73.3342 29.3171C72.8235 29.1651 72.3814 28.8714 72.008 28.436C71.8582 28.2578 71.7243 28.0567 71.6064 27.8327C71.46 27.5546 71.3382 27.2412 71.241 26.8925L78.169 25.2064L78.0178 24.5853C77.9888 24.466 77.9582 24.3496 77.9262 24.2363C77.7191 23.5049 77.4493 22.9005 77.1167 22.4232C76.7325 21.872 76.2969 21.4605 75.8097 21.1887C75.3215 20.9128 74.8151 20.751 74.2903 20.7033C73.7656 20.6555 73.2548 20.6921 72.7579 20.8131C71.8967 21.0227 71.1945 21.4172 70.6514 21.9968C70.1114 22.5711 69.7524 23.2769 69.5746 24.114C69.5175 24.3857 69.4825 24.6652 69.4694 24.9524C69.4572 25.2222 69.4643 25.4989 69.4909 25.7823C69.5226 26.121 69.5821 26.4695 69.6693 26.8276C69.7564 27.1858 69.8636 27.5221 69.9908 27.8363C70.0395 27.9568 70.0912 28.0741 70.1459 28.1882C70.3375 28.5881 70.5652 28.9484 70.8292 29.2689C71.3677 29.9141 72.0181 30.3611 72.7804 30.6097C73.5458 30.8533 74.388 30.8632 75.3072 30.6395C75.9532 30.4823 76.5107 30.2413 76.9799 29.9166C77.4481 29.5878 77.8143 29.2004 78.0786 28.7546C78.1656 28.6059 78.24 28.4535 78.3017 28.2976C78.4269 27.9815 78.5002 27.6506 78.5218 27.3047L77.009 27.2518C76.9654 27.6133 76.8569 27.9335 76.6836 28.2125ZM70.9104 24.6017C70.8668 24.9403 70.8755 25.2813 70.9364 25.6246L76.3701 24.3022C76.2853 23.9541 76.1615 23.6411 75.9985 23.3634C75.9095 23.2117 75.8088 23.0706 75.6964 22.9399C75.3825 22.5689 74.9991 22.3092 74.5463 22.1606C74.0977 22.0111 73.6083 22.0008 73.0783 22.1297C72.4945 22.2718 72.0247 22.5397 71.6687 22.9333C71.3159 23.3218 71.0816 23.7735 70.9657 24.2886C70.9423 24.3927 70.9238 24.4971 70.9104 24.6017ZM74.9589 23.6164C74.9521 23.6081 74.9452 23.6 74.9382 23.5919L74.9331 23.5859C74.7362 23.3532 74.508 23.2005 74.2346 23.1108L74.2301 23.1093C73.9858 23.0279 73.6907 23.0099 73.3148 23.1014C72.8991 23.2026 72.6146 23.3782 72.4105 23.604L72.409 23.6056C72.2122 23.8223 72.0726 24.0639 71.9863 24.3399L74.9589 23.6164Z" fill="#6D45FF"/>
<path d="M93.2966 21.0256L91.9444 21.4196C91.8575 21.1944 91.7301 20.9759 91.5622 20.7641C91.3986 20.548 91.1757 20.3708 90.8934 20.2323C90.611 20.0939 90.2504 20.0263 89.8115 20.0297C89.2107 20.0343 88.711 20.1767 88.3126 20.4567C87.9184 20.7325 87.723 21.0813 87.7262 21.5032C87.7291 21.8782 87.8677 22.1733 88.1421 22.3885C88.4165 22.6037 88.844 22.7816 89.4247 22.922L90.8848 23.2687C91.7642 23.475 92.4208 23.7959 92.8546 24.2315C93.2883 24.6629 93.5078 25.2216 93.5131 25.9076C93.5175 26.4701 93.3594 26.9742 93.039 27.4198C92.7228 27.8655 92.278 28.2183 91.7047 28.4784C91.1315 28.7385 90.4634 28.8715 89.7007 28.8774C88.6993 28.8851 87.8688 28.6742 87.2092 28.2446C86.5496 27.815 86.1293 27.1833 85.9481 26.3494L87.3771 25.9804C87.5176 26.5078 87.7784 26.9021 88.1597 27.1634C88.5453 27.4246 89.047 27.5529 89.6649 27.5481C90.368 27.5427 90.925 27.3892 91.3361 27.0878C91.7513 26.782 91.9574 26.4182 91.9541 25.9963C91.9515 25.6554 91.83 25.3709 91.5896 25.1426C91.3491 24.9101 90.9813 24.7382 90.4861 24.6269L88.8469 24.256C87.9461 24.0499 87.2831 23.7247 86.8578 23.2805C86.4367 22.8321 86.2235 22.269 86.2183 21.5915C86.214 21.0375 86.3658 20.5463 86.6736 20.1178C86.9856 19.6892 87.4113 19.3514 87.9506 19.1044C88.4942 18.8573 89.1111 18.7311 89.8015 18.7258C90.773 18.7183 91.5374 18.9255 92.0947 19.3473C92.6562 19.7692 93.0568 20.3286 93.2966 21.0256Z" fill="white"/>
<path fill-rule="evenodd" clip-rule="evenodd" d="M94.5832 21.6923L91.8211 22.497C92.5044 22.7309 93.1007 23.0623 93.5613 23.5242C94.2041 24.1644 94.5059 24.9861 94.513 25.8999C94.5189 26.6678 94.2989 27.3793 93.8526 28.0011C93.4194 28.6105 92.8263 29.0676 92.1178 29.3891C91.3931 29.7179 90.5819 29.8706 89.7082 29.8774C88.5636 29.8862 87.527 29.6451 86.6633 29.0825C85.7636 28.4965 85.2026 27.6289 84.9708 26.5617L84.7666 25.6217L87.5584 24.9008C87.0036 24.6744 86.5183 24.3721 86.1353 23.9721L86.1286 23.965C85.5171 23.3139 85.2251 22.5007 85.2182 21.5992C85.2124 20.8446 85.4234 20.144 85.8612 19.5344L85.865 19.5291C86.2896 18.946 86.8577 18.5051 87.534 18.1952L87.5367 18.194C88.2262 17.8805 88.9849 17.732 89.7936 17.7258C90.9006 17.7173 91.9066 17.9515 92.6966 18.5489C93.4253 19.0968 93.9409 19.8248 94.242 20.7004L94.5832 21.6923ZM88.1818 25.1165L88.3433 25.7231C88.4335 26.0617 88.5739 26.2343 88.7227 26.337C88.8938 26.4522 89.1785 26.5518 89.657 26.5481C90.2272 26.5437 90.5556 26.4197 90.7439 26.2819C90.9564 26.1252 90.9547 26.0394 90.954 26.0075C90.954 26.0063 90.954 26.0051 90.954 26.004C90.9536 25.9524 90.9449 25.9286 90.9412 25.9199C90.9377 25.9118 90.9293 25.8948 90.9008 25.8677L90.8942 25.8614C90.8373 25.8064 90.6686 25.6929 90.2668 25.6026L90.2653 25.6023L88.6236 25.2308C88.4733 25.1964 88.3259 25.1584 88.1818 25.1165ZM91.3359 27.0878C90.9249 27.3892 90.3678 27.5427 89.6647 27.5481C89.0468 27.5529 88.5451 27.4246 88.1596 27.1634C87.7783 26.9021 87.5174 26.5078 87.377 25.9804L85.948 26.3494C85.9692 26.4472 85.9937 26.5421 86.0215 26.6343C86.0931 26.8716 86.1864 27.0904 86.3016 27.2909C86.5233 27.6771 86.8258 27.9949 87.2091 28.2446C87.8686 28.6742 88.6991 28.8851 89.7005 28.8774C90.4633 28.8715 91.1313 28.7385 91.7046 28.4784C92.2779 28.2183 92.7226 27.8655 93.0388 27.4198C93.3593 26.9742 93.5173 26.4701 93.513 25.9076C93.5077 25.2216 93.2882 24.6629 92.8545 24.2315C92.4207 23.7959 91.7641 23.475 90.8846 23.2687L89.4245 22.922C88.8439 22.7815 88.4164 22.6037 88.142 22.3885C87.8676 22.1733 87.7289 21.8782 87.7261 21.5032C87.7228 21.0813 87.9183 20.7325 88.3125 20.4567C88.7109 20.1767 89.2105 20.0343 89.8114 20.0297C90.2503 20.0263 90.6109 20.0939 90.8932 20.2323C91.1755 20.3708 91.3985 20.548 91.5621 20.7641C91.7299 20.9759 91.8573 21.1944 91.9443 21.4196L93.2964 21.0256C93.1813 20.691 93.0292 20.3882 92.84 20.117C92.635 19.8232 92.3865 19.5667 92.0945 19.3473C91.5373 18.9255 90.7729 18.7183 89.8013 18.7258C89.111 18.7311 88.4941 18.8573 87.9505 19.1044C87.4112 19.3514 86.9855 19.6892 86.6734 20.1178C86.3657 20.5463 86.2139 21.0375 86.2182 21.5915C86.2234 22.269 86.4365 22.832 86.8576 23.2805C87.2829 23.7247 87.946 24.0499 88.8467 24.256L90.486 24.6269C90.9812 24.7382 91.349 24.91 91.5894 25.1426C91.8298 25.3708 91.9513 25.6554 91.954 25.9963C91.9572 26.4182 91.7512 26.782 91.3359 27.0878ZM89.6577 21.9495C89.6583 21.9497 89.659 21.9498 89.6596 21.95L91.113 22.2951C91.1136 22.2952 91.1141 22.2954 91.1146 22.2955C91.1501 22.3038 91.1853 22.3123 91.2204 22.3211L91.0114 21.7798C90.9648 21.659 90.891 21.5273 90.7784 21.3852L90.7715 21.3765L90.7648 21.3677C90.7096 21.2948 90.6174 21.2108 90.4529 21.1302C90.3539 21.0816 90.1605 21.027 89.8191 21.0297C89.3735 21.0331 89.0844 21.1365 88.8875 21.2748L88.8857 21.2761C88.7872 21.345 88.7533 21.3949 88.7426 21.414C88.7345 21.4284 88.7257 21.4484 88.726 21.4955C88.7263 21.5286 88.7294 21.5503 88.7321 21.5628C88.7346 21.5749 88.737 21.58 88.7373 21.5805C88.7374 21.5808 88.7375 21.5811 88.7379 21.5817C88.7382 21.582 88.7385 21.5824 88.7389 21.583C88.7404 21.5848 88.746 21.5914 88.7591 21.6017C88.8676 21.6867 89.1319 21.8222 89.6577 21.9495Z" fill="#6D45FF"/>
<path d="M99.8804 29.4503L101.61 19.7858L103.095 20.0516L101.365 29.7161L99.8804 29.4503ZM102.654 18.3101C102.364 18.2583 102.132 18.1151 101.958 17.8804C101.788 17.6465 101.727 17.3911 101.777 17.1142C101.826 16.8374 101.972 16.6188 102.212 16.4584C102.457 16.2988 102.725 16.2449 103.014 16.2967C103.304 16.3485 103.533 16.4914 103.704 16.7253C103.878 16.96 103.941 17.2158 103.891 17.4926C103.841 17.7695 103.694 17.9877 103.449 18.1473C103.208 18.3077 102.943 18.362 102.654 18.3101Z" fill="white"/>
<path fill-rule="evenodd" clip-rule="evenodd" d="M98.7194 30.2585L100.802 18.6252L101.372 18.7273C101.294 18.6507 101.222 18.5671 101.155 18.4769L101.149 18.4688C100.823 18.0218 100.693 17.4916 100.792 16.938C100.891 16.3844 101.197 15.9325 101.658 15.626L101.666 15.6204C102.126 15.3211 102.651 15.216 103.19 15.3123C103.727 15.4085 104.184 15.6889 104.509 16.1328C104.838 16.5782 104.975 17.1101 104.875 17.6688C104.775 18.2275 104.462 18.679 103.999 18.9825C103.904 19.0452 103.806 19.0994 103.707 19.1452L104.255 19.2434L102.173 30.8767L98.7194 30.2585ZM103.449 18.1473C103.694 17.9877 103.841 17.7695 103.891 17.4926C103.94 17.2158 103.878 16.96 103.703 16.7253C103.533 16.4914 103.303 16.3485 103.014 16.2967C102.724 16.2449 102.457 16.2988 102.212 16.4584C101.971 16.6188 101.826 16.8374 101.776 17.1142C101.727 17.3911 101.787 17.6465 101.957 17.8804C102.132 18.1151 102.364 18.2583 102.653 18.3101C102.943 18.362 103.208 18.3077 103.449 18.1473ZM99.88 29.4503L101.365 29.7161L103.095 20.0516L101.61 19.7858L99.88 29.4503Z" fill="#6D45FF"/>
<path d="M111.299 36.5659C110.626 36.287 110.083 35.9606 109.671 35.5868C109.257 35.2169 108.946 34.8253 108.739 34.4121C108.534 34.0044 108.403 33.6039 108.344 33.2107L109.777 32.8911C109.835 33.1086 109.916 33.3636 110.021 33.6562C110.124 33.9526 110.31 34.2489 110.58 34.545C110.851 34.8467 111.261 35.1108 111.808 35.3375C112.54 35.6409 113.218 35.7141 113.841 35.5571C114.464 35.4001 114.933 34.9437 115.246 34.1878L116.009 32.3453L115.891 32.2964C115.72 32.4194 115.49 32.5637 115.199 32.7295C114.915 32.893 114.558 32.9967 114.13 33.0405C113.707 33.082 113.2 32.9805 112.609 32.7358C111.877 32.4325 111.291 31.9869 110.852 31.399C110.417 30.8128 110.167 30.1189 110.102 29.3173C110.042 28.5172 110.207 27.6448 110.599 26.6999C110.984 25.7708 111.482 25.0295 112.094 24.4759C112.708 23.9183 113.385 23.5713 114.124 23.4347C114.865 23.2942 115.617 23.3822 116.381 23.6986C116.971 23.9432 117.399 24.2357 117.664 24.5761C117.934 24.9142 118.111 25.2455 118.193 25.5702C118.281 25.8926 118.343 26.1537 118.381 26.3536L118.522 26.4123L119.119 24.9714L120.466 25.5292L116.6 34.8596C116.277 35.6392 115.838 36.1996 115.281 36.541C114.727 36.888 114.105 37.0525 113.416 37.0345C112.729 37.0222 112.024 36.866 111.299 36.5659ZM113.317 31.5622C113.876 31.7938 114.401 31.8615 114.893 31.7654C115.385 31.6694 115.831 31.4228 116.231 31.0257C116.63 30.6285 116.969 30.0953 117.246 29.4261C117.517 28.7725 117.657 28.155 117.668 27.5735C117.678 26.9919 117.549 26.4795 117.28 26.0362C117.012 25.5929 116.594 25.2539 116.027 25.019C115.437 24.7744 114.883 24.7201 114.365 24.8562C113.851 24.994 113.392 25.274 112.986 25.6964C112.585 26.1204 112.257 26.6395 112.002 27.2537C111.741 27.8836 111.609 28.4814 111.605 29.0472C111.607 29.6107 111.746 30.1109 112.021 30.548C112.302 30.9827 112.734 31.3208 113.317 31.5622Z" fill="white"/>
<path fill-rule="evenodd" clip-rule="evenodd" d="M110.02 33.6561C110.123 33.9526 110.31 34.2489 110.579 34.545C110.851 34.8466 111.26 35.1108 111.807 35.3375C112.54 35.6409 113.217 35.7141 113.84 35.5571C114.464 35.4001 114.932 34.9437 115.245 34.1878L116.008 32.3453L115.89 32.2964C115.723 32.4164 115.5 32.5568 115.22 32.7175C115.213 32.7215 115.206 32.7255 115.199 32.7295C115.046 32.8172 114.873 32.8876 114.679 32.9408C114.511 32.9869 114.328 33.0202 114.129 33.0405C113.706 33.082 113.199 32.9804 112.608 32.7358C111.876 32.4324 111.29 31.9869 110.851 31.399C110.416 30.8128 110.166 30.1189 110.102 29.3172C110.041 28.5172 110.206 27.6448 110.598 26.6999C110.983 25.7708 111.481 25.0295 112.093 24.4759C112.707 23.9183 113.384 23.5713 114.123 23.4347C114.864 23.2942 115.616 23.3822 116.38 23.6986C116.97 23.9432 117.398 24.2357 117.663 24.5761C117.796 24.7428 117.907 24.9078 117.995 25.0713C118.085 25.2393 118.15 25.4056 118.192 25.5702C118.2 25.6007 118.209 25.6306 118.216 25.6599C118.292 25.9414 118.346 26.1726 118.38 26.3536L118.521 26.4123L119.118 24.9714L120.465 25.5292L116.599 34.8596C116.276 35.6391 115.837 36.1996 115.28 36.541C114.726 36.888 114.104 37.0525 113.415 37.0345C112.728 37.0222 112.023 36.8659 111.298 36.5659C110.625 36.287 110.082 35.9606 109.67 35.5868C109.256 35.2169 108.945 34.8253 108.738 34.412C108.698 34.3318 108.66 34.2519 108.626 34.1722C108.556 34.0123 108.498 33.8536 108.452 33.6959C108.403 33.533 108.367 33.3712 108.343 33.2107L109.777 32.8911C109.834 33.1086 109.915 33.3636 110.02 33.6561ZM107.845 34.8608C107.599 34.372 107.431 33.8702 107.354 33.3578L107.217 32.4372L109.932 31.8318C109.447 31.1174 109.177 30.2969 109.105 29.3975L109.104 29.3928C109.029 28.3994 109.238 27.3683 109.674 26.3172C110.103 25.2809 110.679 24.4072 111.422 23.7349C112.158 23.0666 112.999 22.6258 113.939 22.4518C114.889 22.2722 115.838 22.3916 116.763 22.7747C117.439 23.055 118.037 23.4318 118.448 23.9563C118.45 23.9586 118.452 23.961 118.453 23.9634L118.577 23.6648L121.771 24.988L117.523 35.2424C117.144 36.1583 116.588 36.9108 115.807 37.391C115.079 37.8456 114.265 38.0562 113.393 38.0343C112.566 38.0189 111.738 37.8305 110.916 37.4897C110.169 37.1802 109.52 36.7997 109.001 36.3302C108.513 35.8936 108.118 35.4057 107.845 34.8608ZM110.785 32.7845C110.83 32.9368 110.888 33.1144 110.961 33.3188L110.964 33.3273C111.013 33.4666 111.116 33.6493 111.319 33.872L111.322 33.8757C111.459 34.0279 111.722 34.2198 112.19 34.4137C112.771 34.6543 113.226 34.6806 113.596 34.5874C113.794 34.5375 114.011 34.4078 114.212 34.0371C113.568 34.0969 112.893 33.936 112.226 33.6597C111.688 33.4369 111.206 33.1456 110.785 32.7845ZM117.646 27.1322C117.622 26.9158 117.575 26.7104 117.506 26.5158C117.448 26.3498 117.373 26.1917 117.283 26.0415C117.282 26.0397 117.281 26.038 117.28 26.0362C117.011 25.5929 116.594 25.2539 116.027 25.019C115.436 24.7744 114.882 24.7201 114.364 24.8562C113.851 24.994 113.391 25.274 112.985 25.6964C112.584 26.1204 112.256 26.6395 112.001 27.2536C111.74 27.8835 111.608 28.4814 111.604 29.0472C111.606 29.6107 111.745 30.1109 112.02 30.548C112.301 30.9827 112.733 31.3208 113.316 31.5622C113.861 31.788 114.375 31.8581 114.856 31.7722C114.868 31.7701 114.88 31.7678 114.892 31.7654C115.065 31.7316 115.233 31.6791 115.395 31.608C115.598 31.5184 115.793 31.3993 115.978 31.2506C116.064 31.1819 116.148 31.1069 116.23 31.0257C116.629 30.6285 116.968 30.0953 117.245 29.426C117.516 28.7725 117.656 28.155 117.667 27.5735C117.669 27.4217 117.663 27.2746 117.646 27.1322ZM112.604 29.0489C112.606 29.4375 112.699 29.7477 112.863 30.0096C113.012 30.2382 113.265 30.4586 113.699 30.6383C114.114 30.8104 114.439 30.8352 114.701 30.784C114.975 30.7305 115.247 30.5919 115.525 30.3162C115.808 30.0349 116.081 29.6237 116.321 29.0433C116.554 28.4813 116.659 27.9881 116.667 27.5558C116.674 27.1391 116.583 26.8169 116.424 26.5541C116.285 26.3248 116.051 26.1117 115.644 25.9429C115.216 25.7656 114.888 25.7531 114.621 25.8228C114.303 25.9086 114 26.0843 113.709 26.3866C113.403 26.7101 113.139 27.121 112.925 27.6364C112.705 28.1687 112.608 28.6369 112.604 29.0489Z" fill="#6D45FF"/>
<path d="M129.541 35.2737L125.873 39.9032L124.691 38.9665L130.788 31.2706L131.93 32.1756L130.978 33.3781L131.078 33.4575C131.568 33.2096 132.09 33.1126 132.646 33.1665C133.204 33.2171 133.773 33.4726 134.354 33.933C134.875 34.3458 135.247 34.8139 135.468 35.3373C135.692 35.8573 135.742 36.4188 135.618 37.0217C135.496 37.6212 135.176 38.2484 134.658 38.903L130.784 43.7931L129.601 42.8564L133.412 38.0465C133.891 37.4419 134.107 36.8465 134.06 36.2604C134.016 35.671 133.72 35.1593 133.172 34.7253C132.795 34.4263 132.393 34.2409 131.966 34.169C131.542 34.0998 131.121 34.1548 130.702 34.3338C130.282 34.5128 129.896 34.8261 129.541 35.2737Z" fill="white"/>
<path fill-rule="evenodd" clip-rule="evenodd" d="M126.036 41.308L123.286 39.1294L130.625 29.8658L133.335 32.0128L133.158 32.236C133.804 32.3776 134.411 32.7024 134.975 33.1492C135.604 33.6477 136.09 34.2438 136.388 34.9447C136.699 35.6681 136.759 36.4384 136.597 37.222C136.435 38.021 136.023 38.7892 135.441 39.524L130.946 45.1979L128.196 43.0192L132.628 37.4255C133 36.9556 133.084 36.6034 133.063 36.3399L133.063 36.335C133.043 36.0751 132.923 35.8041 132.551 35.5092C132.291 35.3036 132.044 35.1967 131.802 35.1556C131.578 35.1195 131.349 35.1445 131.094 35.2534C130.862 35.3525 130.602 35.5452 130.325 35.8947L126.036 41.308ZM130.62 34.3706C130.647 34.3577 130.674 34.3455 130.701 34.3338C130.942 34.2308 131.184 34.1689 131.427 34.148C131.606 34.1327 131.785 34.1397 131.965 34.169C131.986 34.1726 132.007 34.1764 132.028 34.1804C132.432 34.2594 132.813 34.441 133.172 34.7253C133.72 35.1593 134.016 35.671 134.06 36.2604C134.106 36.8465 133.89 37.4419 133.411 38.0465L129.601 42.8564L130.783 43.7931L134.657 38.903C135.176 38.2484 135.496 37.6212 135.618 37.0217C135.742 36.4188 135.692 35.8574 135.468 35.3373C135.246 34.8139 134.875 34.3459 134.354 33.933C133.773 33.4726 133.203 33.2171 132.645 33.1665C132.574 33.1595 132.502 33.1551 132.431 33.1532C132.299 33.1496 132.168 33.1549 132.039 33.169C131.706 33.2057 131.385 33.3019 131.078 33.4575L130.977 33.3781L131.93 32.1756L130.788 31.2707L124.691 38.9665L125.873 39.9032L129.541 35.2737C129.872 34.8553 130.232 34.5543 130.62 34.3706Z" fill="#6D45FF"/>
<path d="M155.344 60.2971C155.884 59.9314 156.188 59.4241 156.256 58.7752C156.323 58.1263 156.175 57.4498 155.81 56.7457C155.544 56.231 155.228 55.8236 154.862 55.5236C154.498 55.2275 154.114 55.0469 153.711 54.9818C153.31 54.9206 152.924 54.9859 152.553 55.1777C152.242 55.3382 152.014 55.55 151.867 55.8132C151.726 56.0781 151.642 56.3661 151.616 56.6771C151.593 56.9862 151.601 57.2939 151.64 57.6002C151.682 57.9046 151.73 58.1793 151.785 58.4244L152.078 59.7698C152.155 60.1137 152.22 60.5074 152.271 60.9508C152.325 61.3979 152.319 61.8545 152.253 62.3204C152.192 62.7882 152.033 63.2306 151.773 63.6477C151.514 64.0649 151.112 64.4144 150.567 64.6962C149.939 65.0212 149.286 65.1501 148.608 65.0831C147.933 65.0199 147.283 64.7515 146.659 64.2778C146.037 63.8078 145.495 63.1262 145.033 62.2329C144.602 61.4002 144.364 60.6096 144.317 59.8612C144.273 59.1166 144.401 58.4459 144.702 57.8491C145.004 57.256 145.462 56.7724 146.074 56.3981L146.826 57.8516C146.406 58.1165 146.119 58.452 145.965 58.8582C145.816 59.2662 145.774 59.7051 145.84 60.175C145.911 60.6467 146.066 61.1134 146.305 61.5752C146.583 62.1127 146.919 62.5503 147.315 62.888C147.714 63.2237 148.135 63.4352 148.578 63.5226C149.025 63.608 149.461 63.5411 149.885 63.3218C150.271 63.1222 150.529 62.8518 150.66 62.5108C150.791 62.1697 150.841 61.7841 150.81 61.3538C150.78 60.9234 150.715 60.4745 150.617 60.007L150.286 58.3648C150.078 57.3213 150.079 56.4093 150.289 55.6288C150.5 54.8483 150.997 54.2555 151.78 53.8503C152.431 53.5136 153.09 53.396 153.756 53.4975C154.429 53.6007 155.054 53.8819 155.632 54.341C156.216 54.8019 156.699 55.4033 157.083 56.1452C157.471 56.8947 157.681 57.6303 157.713 58.3522C157.75 59.0722 157.625 59.7219 157.34 60.3014C157.056 60.8846 156.626 61.3374 156.049 61.6598L155.344 60.2971Z" fill="white"/>
<path fill-rule="evenodd" clip-rule="evenodd" d="M154.048 59.9672L154.784 59.469C155.08 59.269 155.225 59.0271 155.261 58.6719C155.305 58.255 155.217 57.7735 154.923 57.2051C154.706 56.7857 154.47 56.4949 154.23 56.2984C153.983 56.0981 153.76 56.0035 153.556 55.9697C153.372 55.9424 153.201 55.9689 153.013 56.066C152.854 56.1481 152.782 56.2289 152.745 56.2936C152.673 56.4301 152.628 56.5811 152.613 56.7558C152.596 56.9952 152.602 57.2328 152.632 57.4693C152.671 57.7496 152.714 57.9946 152.762 58.2062L152.763 58.2118L153.055 59.5543C153.141 59.9384 153.21 60.3657 153.265 60.833C153.329 61.3678 153.321 61.9092 153.244 62.4547C153.164 63.068 152.954 63.6439 152.623 64.1756C152.248 64.7797 151.692 65.2403 151.027 65.5845C150.235 65.9942 149.39 66.1647 148.513 66.0785C147.626 65.995 146.804 65.6427 146.056 65.075C145.286 64.4928 144.656 63.6808 144.145 62.6923C143.666 61.7661 143.377 60.8403 143.32 59.9231L143.32 59.9208C143.266 59.0211 143.42 58.1714 143.809 57.3992L143.811 57.3946C144.205 56.6242 144.796 56.0076 145.553 55.5448L146.47 54.9848L148.136 58.2072L147.36 58.6971C147.1 58.8616 146.97 59.0341 146.902 59.2078C146.817 59.4452 146.786 59.7138 146.83 60.0314C146.884 60.3839 147.002 60.7445 147.194 61.1159C147.421 61.5556 147.681 61.8843 147.962 62.1252C148.249 62.3664 148.518 62.4907 148.769 62.5409C148.984 62.5813 149.192 62.5547 149.426 62.4336C149.638 62.324 149.7 62.2229 149.727 62.153C149.797 61.9711 149.835 61.7354 149.813 61.4248C149.786 61.0439 149.729 60.6399 149.639 60.2119L149.638 60.2047L149.306 58.5608C149.077 57.412 149.063 56.3373 149.324 55.3685L150.29 55.6288C150.079 56.4093 150.078 57.3213 150.287 58.3648L150.618 60.007C150.716 60.4745 150.78 60.9234 150.811 61.3538C150.841 61.7841 150.791 62.1698 150.661 62.5108C150.53 62.8518 150.272 63.1222 149.886 63.3218C149.462 63.5411 149.026 63.608 148.579 63.5226C148.136 63.4352 147.714 63.2237 147.315 62.888C146.92 62.5503 146.583 62.1127 146.305 61.5752C146.067 61.1134 145.912 60.6467 145.84 60.175C145.775 59.7051 145.816 59.2662 145.965 58.8582C146.12 58.4521 146.407 58.1165 146.826 57.8516L146.075 56.3981C145.771 56.5836 145.506 56.7959 145.278 57.0351C145.047 57.2786 144.855 57.5499 144.702 57.8491C144.402 58.4459 144.273 59.1166 144.318 59.8612C144.364 60.6096 144.603 61.4002 145.034 62.2329C145.495 63.1262 146.037 63.8078 146.659 64.2778C147.283 64.7515 147.933 65.0199 148.609 65.0831C149.286 65.1501 149.939 65.0212 150.568 64.6962C151.113 64.4144 151.515 64.0649 151.774 63.6477C152.033 63.2306 152.193 62.7882 152.253 62.3204C152.319 61.8545 152.326 61.3979 152.272 60.9508C152.22 60.5074 152.156 60.1137 152.079 59.7698L151.786 58.4244C151.731 58.1793 151.682 57.9046 151.64 57.6002C151.602 57.2939 151.594 56.9862 151.616 56.6771C151.642 56.3661 151.726 56.0781 151.867 55.8132C152.014 55.55 152.243 55.3382 152.553 55.1777C152.924 54.9859 153.31 54.9206 153.711 54.9818C154.115 55.0469 154.498 55.2275 154.862 55.5236C155.229 55.8236 155.545 56.231 155.811 56.7457C156.175 57.4498 156.324 58.1263 156.256 58.7752C156.189 59.4241 155.885 59.9314 155.345 60.2971L156.05 61.6598C156.358 61.4873 156.625 61.2774 156.85 61.0302C157.045 60.8154 157.209 60.5725 157.34 60.3014C157.626 59.7219 157.751 59.0722 157.714 58.3522C157.681 57.6303 157.471 56.8947 157.084 56.1452C156.7 55.4033 156.216 54.8019 155.633 54.341C155.054 53.8819 154.429 53.6007 153.757 53.4975C153.09 53.396 152.432 53.5136 151.781 53.8503C150.997 54.2555 150.5 54.8483 150.29 55.6288L149.324 55.3685C149.615 54.2905 150.314 53.4831 151.321 52.962C152.143 52.5373 153.014 52.3728 153.908 52.5088L153.909 52.5091C154.767 52.6409 155.551 52.9998 156.253 53.557C156.961 54.1162 157.531 54.8336 157.972 55.6858C158.414 56.5415 158.672 57.4166 158.713 58.3043C158.757 59.1724 158.607 59.993 158.239 60.7411C157.864 61.5108 157.288 62.1131 156.537 62.5327L155.636 63.0365L154.048 59.9672Z" fill="#6D45FF"/>
<path d="M150.583 77.2498C150.373 76.3273 150.396 75.4852 150.652 74.7238C150.912 73.9655 151.369 73.3221 152.023 72.7937C152.681 72.2684 153.501 71.8945 154.482 71.672C155.463 71.4494 156.368 71.432 157.197 71.6196C158.031 71.8105 158.731 72.1804 159.297 72.7293C159.868 73.2814 160.251 73.9896 160.448 74.854C160.561 75.3527 160.589 75.864 160.533 76.3879C160.478 76.9119 160.308 77.4157 160.024 77.8996C159.745 78.3824 159.327 78.8116 158.77 79.1871C158.213 79.5626 157.487 79.8517 156.594 80.0545L155.97 80.1959L154.296 72.8154L155.567 72.5268L156.903 78.4113C157.443 78.2887 157.9 78.0713 158.275 77.759C158.651 77.4509 158.917 77.0716 159.072 76.6212C159.229 76.1749 159.247 75.6858 159.126 75.1539C158.993 74.5679 158.733 74.0939 158.345 73.7319C157.962 73.3731 157.514 73.1317 157 73.0078C156.487 72.8839 155.967 72.8819 155.439 73.0016L154.591 73.194C153.868 73.3581 153.284 73.6219 152.837 73.9853C152.396 74.352 152.096 74.7894 151.936 75.2976C151.78 75.8049 151.769 76.3557 151.904 76.95C151.992 77.3364 152.125 77.6733 152.304 77.9604C152.488 78.2508 152.716 78.4853 152.988 78.6639C153.264 78.8415 153.583 78.9549 153.943 79.0042L153.867 80.516C153.351 80.4757 152.87 80.3205 152.424 80.0503C151.982 79.7791 151.601 79.4068 151.279 78.9336C150.962 78.4594 150.73 77.8981 150.583 77.2498Z" fill="white"/>
<path fill-rule="evenodd" clip-rule="evenodd" d="M149.706 74.3988C150.031 73.4541 150.602 72.6567 151.394 72.0161L151.399 72.0118C152.196 71.3762 153.161 70.9463 154.261 70.6968C155.36 70.4472 156.419 70.4182 157.417 70.6443L157.42 70.6448C158.416 70.8728 159.284 71.3242 159.993 72.0109C160.719 72.7134 161.189 73.6018 161.423 74.6327C161.561 75.242 161.595 75.864 161.528 76.494C161.456 77.167 161.238 77.8052 160.889 78.4027C160.519 79.04 159.985 79.5737 159.329 80.0164C158.639 80.4811 157.788 80.8089 156.815 81.0297L155.217 81.3924L154.895 79.9775L154.814 81.5928L153.789 81.5129C153.116 81.4605 152.484 81.2561 151.906 80.9054L151.901 80.9024C151.326 80.5497 150.845 80.0737 150.452 79.4955L150.448 79.4898C150.052 78.8984 149.777 78.2195 149.607 77.4711C149.365 76.4019 149.38 75.3699 149.704 74.4057L149.706 74.3988ZM154.462 78.0656L153.678 74.6107C153.603 74.658 153.535 74.7071 153.473 74.7576C153.171 75.0095 152.988 75.2864 152.89 75.5946C152.794 75.9107 152.778 76.2807 152.879 76.7287C152.946 77.0229 153.041 77.2513 153.151 77.4287C153.261 77.6024 153.389 77.73 153.533 77.8252C153.673 77.9146 153.849 77.982 154.079 78.0134L154.462 78.0656ZM152.988 78.6639C152.716 78.4853 152.488 78.2508 152.304 77.9604C152.125 77.6733 151.992 77.3364 151.904 76.95C151.769 76.3557 151.78 75.8049 151.936 75.2976C152.096 74.7894 152.396 74.352 152.837 73.9853C153.018 73.8383 153.221 73.7076 153.447 73.5932C153.727 73.4512 154.042 73.3343 154.393 73.2425L155.97 80.1959L156.594 80.0545C156.714 80.0273 156.83 79.9986 156.944 79.9683C157.679 79.7726 158.287 79.5123 158.77 79.1871C159.327 78.8116 159.745 78.3824 160.024 77.8996C160.308 77.4157 160.478 76.9119 160.533 76.3879C160.589 75.864 160.561 75.3527 160.448 74.854C160.251 73.9896 159.868 73.2814 159.297 72.7292C158.731 72.1804 158.031 71.8105 157.197 71.6196C156.926 71.5583 156.647 71.5189 156.36 71.5014C156.09 71.4849 155.814 71.4878 155.53 71.5099C155.191 71.5364 154.841 71.5904 154.482 71.672C154.122 71.7535 153.785 71.8555 153.468 71.9777C153.347 72.0246 153.229 72.0745 153.114 72.1273C152.711 72.3127 152.347 72.5348 152.023 72.7937C151.369 73.3221 150.912 73.9655 150.652 74.7238C150.396 75.4852 150.373 76.3273 150.583 77.2498C150.73 77.8981 150.962 78.4594 151.279 78.9336C151.601 79.4068 151.982 79.7791 152.424 80.0503C152.571 80.1395 152.723 80.2163 152.878 80.2805C153.192 80.4105 153.521 80.489 153.867 80.516L153.943 79.0042C153.583 78.9549 153.264 78.8415 152.988 78.6639ZM156.688 72.9476C156.35 72.8988 156.009 72.9021 155.665 72.9577L156.903 78.4113C157.252 78.332 157.567 78.2131 157.847 78.0544C158 77.9678 158.143 77.8693 158.275 77.759C158.651 77.4509 158.917 77.0716 159.072 76.6212C159.229 76.1749 159.247 75.6858 159.126 75.1539C158.993 74.5679 158.733 74.0939 158.345 73.7319C157.962 73.3731 157.514 73.1317 157 73.0078C156.897 72.9828 156.793 72.9627 156.688 72.9476ZM157.61 77.0111C157.619 77.0043 157.627 76.9975 157.635 76.9907L157.641 76.9857C157.877 76.7924 158.033 76.5666 158.127 76.2947L158.129 76.2902C158.214 76.0472 158.236 75.7524 158.151 75.3752C158.056 74.9579 157.885 74.6708 157.662 74.4631L157.661 74.4616C157.447 74.2615 157.208 74.1181 156.933 74.0275L157.61 77.0111Z" fill="#6D45FF"/>
<path d="M152.328 88.3923L162.146 88.3941L162.146 89.8515L160.663 89.8512L160.663 89.9535C161.149 90.1325 161.543 90.4565 161.845 90.9253C162.148 91.3941 162.299 91.9225 162.299 92.5106C162.299 92.6214 162.297 92.7599 162.293 92.9261C162.288 93.0923 162.282 93.218 162.273 93.3032L160.739 93.3029C160.752 93.2518 160.771 93.1346 160.797 92.9514C160.827 92.7724 160.842 92.5828 160.842 92.3825C160.842 91.9052 160.742 91.479 160.541 91.104C160.346 90.7332 160.073 90.4391 159.723 90.2218C159.378 90.0086 158.984 89.902 158.541 89.9019L152.328 89.9008L152.328 88.3923Z" fill="white"/>
<path fill-rule="evenodd" clip-rule="evenodd" d="M151.328 87.3921L163.146 87.3943L163.146 90.8517L162.944 90.8516C163.182 91.3667 163.299 91.924 163.299 92.5108C163.299 92.6332 163.296 92.7809 163.292 92.9519C163.288 93.1244 163.28 93.2799 163.268 93.4029L163.178 94.3034L159.458 94.3027L159.767 93.069C159.767 93.068 159.767 93.0668 159.767 93.0655C159.769 93.0552 159.772 93.0389 159.776 93.015C159.784 92.9672 159.794 92.9006 159.806 92.813L159.808 92.7999L159.81 92.7868C159.83 92.6674 159.841 92.5331 159.841 92.3823C159.842 92.0489 159.773 91.788 159.659 91.575L159.657 91.5713C159.543 91.3544 159.392 91.1937 159.197 91.0718C159.024 90.9655 158.815 90.902 158.541 90.9019L151.328 90.9006L151.328 87.3921ZM160.453 90.9506C160.484 91.0002 160.513 91.0513 160.541 91.104C160.73 91.4581 160.83 91.8577 160.841 92.3029C160.841 92.3293 160.841 92.3558 160.841 92.3825C160.841 92.5828 160.827 92.7724 160.797 92.9514C160.771 93.1346 160.752 93.2518 160.739 93.3029L162.273 93.3032C162.282 93.218 162.288 93.0923 162.292 92.9261C162.297 92.7599 162.299 92.6214 162.299 92.5106C162.299 91.9225 162.148 91.3941 161.845 90.9253C161.829 90.9002 161.813 90.8756 161.796 90.8514C161.614 90.5864 161.4 90.3709 161.155 90.2049C161.003 90.1021 160.839 90.0183 160.663 89.9535L160.663 89.8512L162.146 89.8515L162.146 88.3941L152.328 88.3923L152.328 89.9008L158.541 89.9019C158.958 89.902 159.332 89.9967 159.663 90.1859C159.683 90.1975 159.703 90.2094 159.723 90.2218C159.971 90.3759 160.18 90.5687 160.351 90.8C160.387 90.8485 160.421 90.8987 160.453 90.9506Z" fill="#6D45FF"/>
<path d="M159.529 110.756L150.716 105.107L151.044 103.609L161.412 102.165L161.062 103.763L152.839 104.735L152.817 104.835L159.879 109.158L159.529 110.756Z" fill="white"/>
<path fill-rule="evenodd" clip-rule="evenodd" d="M160.198 112.373L149.59 105.573L150.216 102.714L162.696 100.976L161.886 104.673L155.668 105.407L161.008 108.676L160.198 112.373ZM152.817 104.835L152.839 104.735L161.062 103.763L161.412 102.165L151.044 103.609L150.716 105.107L159.529 110.756L159.879 109.158L152.817 104.835Z" fill="#6D45FF"/>
<path d="M147.648 114.722L156.659 118.62L156.06 120.005L147.049 116.106L147.648 114.722ZM157.856 119.974C157.973 119.704 158.166 119.511 158.434 119.395C158.701 119.283 158.963 119.283 159.222 119.395C159.48 119.506 159.659 119.698 159.76 119.969C159.859 120.244 159.851 120.516 159.734 120.786C159.617 121.056 159.425 121.247 159.159 121.359C158.89 121.475 158.627 121.477 158.369 121.366C158.111 121.254 157.932 121.061 157.833 120.786C157.732 120.514 157.74 120.244 157.856 119.974Z" fill="white"/>
<path fill-rule="evenodd" clip-rule="evenodd" d="M147.127 113.407L157.974 118.1L157.744 118.631C157.836 118.573 157.934 118.522 158.037 118.477L158.046 118.473C158.556 118.259 159.102 118.253 159.618 118.477C160.134 118.7 160.504 119.102 160.697 119.62L160.7 119.63C160.886 120.146 160.868 120.681 160.651 121.183C160.434 121.684 160.057 122.065 159.55 122.279C159.041 122.498 158.492 122.509 157.971 122.283C157.45 122.058 157.082 121.65 156.893 121.13C156.854 121.023 156.824 120.916 156.802 120.808L156.58 121.32L145.734 116.627L147.127 113.407ZM157.832 120.786C157.931 121.061 158.11 121.254 158.368 121.366C158.626 121.477 158.89 121.475 159.158 121.359C159.425 121.247 159.617 121.056 159.733 120.786C159.85 120.516 159.859 120.244 159.76 119.969C159.659 119.698 159.479 119.506 159.221 119.395C158.963 119.283 158.701 119.283 158.434 119.395C158.165 119.511 157.973 119.704 157.856 119.974C157.739 120.244 157.731 120.514 157.832 120.786ZM147.648 114.722L147.049 116.106L156.06 120.005L156.659 118.62L147.648 114.722Z" fill="#6D45FF"/>
<path d="M141.045 126.407C141.572 125.652 142.203 125.126 142.94 124.829C143.676 124.532 144.46 124.455 145.29 124.597C146.121 124.74 146.938 125.091 147.742 125.651C148.561 126.221 149.178 126.875 149.594 127.612C150.011 128.354 150.208 129.12 150.183 129.908C150.16 130.702 149.895 131.462 149.388 132.189C148.994 132.756 148.533 133.193 148.007 133.501C147.48 133.81 146.927 133.978 146.347 134.005C145.767 134.032 145.201 133.905 144.649 133.624L145.512 132.386C145.944 132.548 146.416 132.564 146.926 132.437C147.436 132.315 147.882 131.981 148.262 131.436C148.598 130.953 148.767 130.442 148.769 129.903C148.771 129.37 148.616 128.844 148.303 128.324C147.991 127.811 147.53 127.342 146.922 126.918C146.3 126.485 145.689 126.205 145.091 126.079C144.491 125.957 143.938 125.987 143.432 126.169C142.923 126.355 142.498 126.693 142.157 127.182C141.933 127.504 141.786 127.835 141.715 128.175C141.644 128.515 141.65 128.849 141.733 129.177C141.816 129.505 141.978 129.81 142.218 130.091L141.356 131.329C140.929 130.928 140.621 130.456 140.432 129.915C140.245 129.379 140.196 128.807 140.287 128.2C140.378 127.599 140.631 127.002 141.045 126.407Z" fill="white"/>
<path fill-rule="evenodd" clip-rule="evenodd" d="M150.464 127.12L150.465 127.122C150.964 128.01 151.213 128.953 151.182 129.938C151.153 130.948 150.813 131.894 150.208 132.761C149.742 133.431 149.178 133.974 148.511 134.364C147.853 134.75 147.143 134.969 146.393 135.004C145.629 135.039 144.891 134.869 144.195 134.515L143.172 133.995L145.134 131.178L145.86 131.449C146.078 131.531 146.34 131.552 146.682 131.467L146.693 131.464C146.907 131.413 147.162 131.263 147.441 130.864C147.672 130.532 147.767 130.217 147.768 129.9L147.768 129.898C147.77 129.574 147.678 129.226 147.447 128.842C147.222 128.473 146.869 128.101 146.35 127.739C145.813 127.365 145.326 127.151 144.888 127.058C144.444 126.969 144.082 126.998 143.772 127.109C143.477 127.217 143.213 127.416 142.977 127.754C142.82 127.979 142.733 128.186 142.693 128.379C142.652 128.574 142.657 128.755 142.702 128.932C142.744 129.097 142.828 129.267 142.978 129.443L143.479 130.03L141.514 132.851L140.67 132.058C140.129 131.549 139.731 130.941 139.488 130.244C139.242 129.543 139.185 128.807 139.297 128.053L139.298 128.05C139.416 127.271 139.739 126.532 140.224 125.836C140.844 124.947 141.621 124.282 142.565 123.902C143.485 123.531 144.457 123.44 145.459 123.612C146.456 123.783 147.408 124.2 148.313 124.831C149.233 125.472 149.962 126.231 150.464 127.12ZM140.432 129.915C140.505 130.125 140.596 130.324 140.705 130.513C140.877 130.811 141.094 131.083 141.355 131.329L142.217 130.091C141.977 129.81 141.816 129.505 141.733 129.177C141.65 128.849 141.643 128.515 141.714 128.175C141.785 127.835 141.933 127.504 142.157 127.182C142.498 126.693 142.923 126.355 143.431 126.169C143.937 125.987 144.491 125.957 145.091 126.079C145.689 126.205 146.299 126.485 146.921 126.918C147.53 127.342 147.99 127.811 148.302 128.324C148.615 128.844 148.771 129.37 148.768 129.903C148.766 130.442 148.597 130.953 148.261 131.436C147.881 131.981 147.436 132.315 146.925 132.437C146.415 132.564 145.944 132.548 145.511 132.386L144.649 133.624C144.972 133.789 145.301 133.9 145.634 133.959C145.869 134.001 146.107 134.016 146.347 134.005C146.926 133.978 147.48 133.81 148.006 133.501C148.532 133.193 148.993 132.756 149.388 132.189C149.894 131.462 150.159 130.702 150.183 129.908C150.207 129.12 150.011 128.354 149.594 127.612C149.177 126.875 148.56 126.221 147.742 125.651C146.938 125.091 146.12 124.74 145.29 124.597C144.459 124.455 143.676 124.532 142.939 124.829C142.202 125.126 141.571 125.652 141.045 126.407C140.631 127.002 140.378 127.599 140.286 128.2C140.196 128.807 140.244 129.379 140.432 129.915Z" fill="#6D45FF"/>
<path d="M130.769 137.874C131.483 137.253 132.236 136.875 133.028 136.74C133.819 136.611 134.602 136.709 135.377 137.035C136.151 137.367 136.868 137.912 137.528 138.671C138.188 139.43 138.631 140.219 138.858 141.038C139.085 141.863 139.09 142.655 138.874 143.413C138.658 144.178 138.215 144.851 137.546 145.432C137.16 145.768 136.723 146.035 136.235 146.233C135.747 146.432 135.223 146.521 134.663 146.5C134.105 146.482 133.529 146.317 132.935 146.003C132.34 145.69 131.743 145.188 131.141 144.496L130.722 144.014L136.433 139.048L137.288 140.032L132.735 143.991C133.099 144.409 133.507 144.71 133.959 144.892C134.408 145.078 134.868 145.132 135.339 145.056C135.806 144.983 136.245 144.768 136.657 144.41C137.11 144.015 137.405 143.562 137.54 143.049C137.675 142.541 137.676 142.033 137.542 141.522C137.409 141.011 137.164 140.552 136.809 140.143L136.239 139.487C135.752 138.928 135.243 138.537 134.712 138.316C134.18 138.101 133.653 138.043 133.129 138.142C132.609 138.245 132.118 138.496 131.659 138.896C131.36 139.156 131.126 139.433 130.957 139.726C130.788 140.026 130.69 140.337 130.661 140.662C130.635 140.989 130.686 141.323 130.813 141.665L129.445 142.312C129.236 141.839 129.146 141.341 129.173 140.821C129.203 140.303 129.35 139.791 129.615 139.284C129.883 138.78 130.268 138.31 130.769 137.874Z" fill="white"/>
<path fill-rule="evenodd" clip-rule="evenodd" d="M132.867 135.753C133.853 135.592 134.826 135.718 135.765 136.113L135.771 136.116C136.708 136.517 137.543 137.164 138.283 138.015C139.023 138.866 139.549 139.784 139.822 140.771L139.823 140.774C140.093 141.759 140.106 142.738 139.836 143.687C139.561 144.659 139 145.493 138.203 146.187C137.731 146.597 137.199 146.921 136.612 147.16C135.986 147.415 135.32 147.525 134.628 147.499C133.892 147.475 133.169 147.257 132.469 146.888C131.733 146.5 131.042 145.906 130.387 145.153L129.311 143.916L130.406 142.964L128.944 143.656L128.53 142.715C128.258 142.097 128.139 141.444 128.175 140.768L128.175 140.763C128.214 140.09 128.406 139.44 128.729 138.821L128.733 138.815C129.066 138.186 129.534 137.623 130.113 137.119C130.941 136.4 131.857 135.925 132.86 135.754L132.867 135.753ZM131.886 141.677L134.559 139.352C134.482 139.309 134.406 139.272 134.332 139.241C133.968 139.094 133.637 139.064 133.32 139.124C132.995 139.189 132.662 139.349 132.315 139.651C132.087 139.849 131.931 140.04 131.827 140.221C131.726 140.401 131.674 140.573 131.658 140.745C131.646 140.911 131.669 141.098 131.75 141.315L131.886 141.677ZM130.661 140.662C130.69 140.337 130.789 140.026 130.958 139.726C131.126 139.433 131.36 139.156 131.659 138.896C132.119 138.496 132.609 138.245 133.13 138.142C133.653 138.043 134.181 138.101 134.712 138.316C134.927 138.406 135.138 138.523 135.346 138.668C135.604 138.847 135.856 139.07 136.102 139.335L130.722 144.014L131.142 144.496C131.222 144.589 131.303 144.679 131.383 144.764C131.903 145.319 132.42 145.732 132.935 146.003C133.529 146.317 134.105 146.482 134.663 146.5C135.223 146.521 135.748 146.432 136.236 146.233C136.724 146.035 137.161 145.768 137.546 145.432C138.215 144.851 138.658 144.178 138.874 143.413C139.09 142.655 139.085 141.863 138.859 141.038C138.785 140.771 138.687 140.506 138.567 140.245C138.454 140 138.321 139.757 138.167 139.518C137.983 139.231 137.77 138.949 137.528 138.671C137.286 138.393 137.037 138.143 136.78 137.923C136.681 137.838 136.581 137.757 136.48 137.681C136.126 137.414 135.759 137.198 135.377 137.035C134.602 136.709 133.819 136.611 133.028 136.74C132.236 136.875 131.483 137.253 130.77 137.874C130.268 138.31 129.883 138.78 129.616 139.284C129.351 139.791 129.203 140.303 129.173 140.821C129.164 140.993 129.168 141.162 129.185 141.329C129.219 141.667 129.306 141.995 129.445 142.312L130.813 141.664C130.686 141.323 130.636 140.989 130.661 140.662ZM137.448 141.218C137.331 140.897 137.167 140.599 136.955 140.322L132.735 143.991C132.971 144.262 133.224 144.483 133.497 144.655C133.645 144.749 133.8 144.828 133.959 144.892C134.409 145.078 134.869 145.132 135.339 145.056C135.806 144.983 136.246 144.768 136.657 144.41C137.111 144.015 137.405 143.562 137.54 143.049C137.675 142.541 137.676 142.033 137.543 141.522C137.516 141.419 137.484 141.317 137.448 141.218ZM134.304 143.953C134.314 143.957 134.324 143.961 134.334 143.965L134.341 143.968C134.623 144.084 134.896 144.115 135.18 144.069L135.184 144.068C135.439 144.029 135.709 143.909 136.001 143.655C136.324 143.374 136.496 143.088 136.574 142.793L136.574 142.791C136.649 142.508 136.663 142.23 136.612 141.945L134.304 143.953Z" fill="#6D45FF"/>
<path d="M119.203 154.674L120.223 153.704C120.404 153.864 120.618 153.999 120.864 154.11C121.108 154.227 121.388 154.282 121.702 154.276C122.017 154.269 122.368 154.163 122.756 153.959C123.288 153.679 123.666 153.323 123.892 152.891C124.115 152.465 124.129 152.066 123.932 151.692C123.757 151.361 123.499 151.162 123.156 151.097C122.814 151.032 122.352 151.07 121.772 151.212L120.316 151.574C119.44 151.795 118.709 151.811 118.124 151.624C117.54 151.44 117.089 151.044 116.769 150.437C116.507 149.939 116.416 149.419 116.496 148.876C116.572 148.335 116.805 147.817 117.195 147.323C117.585 146.829 118.117 146.404 118.792 146.048C119.678 145.582 120.513 145.388 121.296 145.466C122.079 145.545 122.743 145.913 123.286 146.571L122.186 147.555C121.819 147.151 121.407 146.92 120.948 146.863C120.486 146.808 119.981 146.925 119.434 147.213C118.812 147.54 118.388 147.932 118.161 148.389C117.933 148.851 117.917 149.269 118.113 149.642C118.272 149.944 118.511 150.141 118.829 150.233C119.149 150.33 119.555 150.313 120.046 150.185L121.673 149.762C122.567 149.531 123.306 149.515 123.888 149.715C124.468 149.92 124.915 150.322 125.231 150.922C125.489 151.412 125.58 151.918 125.503 152.44C125.423 152.964 125.2 153.459 124.834 153.926C124.465 154.396 123.975 154.791 123.364 155.113C122.504 155.565 121.73 155.732 121.041 155.613C120.349 155.497 119.736 155.184 119.203 154.674Z" fill="white"/>
<path fill-rule="evenodd" clip-rule="evenodd" d="M117.754 154.673L119.839 152.69C119.124 152.796 118.442 152.775 117.821 152.577C116.956 152.303 116.311 151.712 115.885 150.903C115.527 150.224 115.396 149.491 115.507 148.733C115.611 147.993 115.928 147.315 116.41 146.704C116.903 146.079 117.553 145.571 118.327 145.163C119.339 144.63 120.371 144.368 121.396 144.471C122.465 144.579 123.361 145.092 124.058 145.934L124.671 146.675L122.521 148.597C123.118 148.544 123.688 148.589 124.212 148.769L124.221 148.772C125.064 149.07 125.696 149.658 126.116 150.456C126.468 151.123 126.602 151.842 126.493 152.585L126.492 152.591C126.383 153.304 126.081 153.957 125.622 154.543L125.62 154.545C125.152 155.14 124.546 155.621 123.831 155.997C122.851 156.513 121.85 156.767 120.874 156.599C119.975 156.447 119.183 156.037 118.513 155.398L117.754 154.673ZM121.869 148.692L121.447 148.227C121.211 147.968 121.007 147.879 120.828 147.856C120.623 147.832 120.324 147.874 119.901 148.097C119.396 148.363 119.161 148.624 119.058 148.833C118.941 149.07 118.982 149.145 118.997 149.173C118.997 149.174 118.998 149.175 118.998 149.176C119.022 149.222 119.041 149.239 119.048 149.245C119.055 149.251 119.071 149.262 119.108 149.273L119.117 149.276C119.193 149.298 119.395 149.322 119.793 149.217L119.795 149.217L121.424 148.793C121.573 148.755 121.721 148.721 121.869 148.692ZM118.162 148.389C118.388 147.932 118.813 147.54 119.435 147.213C119.981 146.925 120.486 146.808 120.948 146.863C121.407 146.92 121.82 147.151 122.187 147.555L123.287 146.571C123.223 146.494 123.158 146.421 123.091 146.352C122.918 146.174 122.735 146.022 122.54 145.897C122.166 145.656 121.751 145.512 121.296 145.466C120.513 145.388 119.679 145.582 118.793 146.048C118.118 146.404 117.585 146.829 117.195 147.323C116.806 147.817 116.573 148.335 116.496 148.876C116.416 149.419 116.507 149.939 116.769 150.437C117.089 151.044 117.541 151.44 118.124 151.624C118.709 151.811 119.44 151.795 120.316 151.574L121.772 151.212C122.353 151.07 122.814 151.032 123.157 151.097C123.499 151.162 123.758 151.361 123.933 151.692C124.129 152.066 124.116 152.465 123.892 152.891C123.667 153.323 123.288 153.679 122.757 153.959C122.369 154.163 122.017 154.269 121.703 154.276C121.388 154.282 121.109 154.227 120.864 154.11C120.618 153.999 120.405 153.864 120.224 153.704L119.204 154.674C119.46 154.919 119.734 155.118 120.026 155.272C120.343 155.439 120.682 155.553 121.042 155.613C121.731 155.732 122.505 155.565 123.365 155.113C123.975 154.791 124.465 154.396 124.835 153.926C125.2 153.459 125.424 152.964 125.504 152.44C125.581 151.918 125.49 151.412 125.232 150.922C124.916 150.322 124.468 149.92 123.888 149.715C123.306 149.515 122.568 149.531 121.673 149.762L120.047 150.185C119.556 150.313 119.15 150.33 118.83 150.233C118.511 150.141 118.273 149.944 118.114 149.642C117.917 149.269 117.933 148.851 118.162 148.389ZM122.012 152.183C122.011 152.183 122.011 152.183 122.01 152.183L120.56 152.544C120.56 152.544 120.559 152.544 120.559 152.545C120.523 152.553 120.488 152.562 120.453 152.57L120.887 152.955C120.984 153.041 121.11 153.124 121.275 153.199L121.285 153.203L121.295 153.208C121.378 153.248 121.498 153.28 121.682 153.276C121.792 153.274 121.989 153.233 122.291 153.074C122.685 152.866 122.894 152.642 123.006 152.429L123.007 152.427C123.063 152.32 123.07 152.26 123.071 152.238C123.071 152.222 123.07 152.2 123.048 152.158C123.032 152.129 123.02 152.111 123.012 152.101C123.004 152.092 122.999 152.088 122.999 152.088C122.999 152.088 122.998 152.088 122.998 152.087C122.997 152.087 122.997 152.087 122.996 152.087C122.994 152.086 122.986 152.082 122.97 152.079C122.834 152.054 122.537 152.055 122.012 152.183Z" fill="#6D45FF"/>
</svg>
