<svg xmlns="http://www.w3.org/2000/svg" width="201" height="50" fill="none" viewBox="0 0 201 50"><path fill="white" d="M12.1437 47.2618C10.7146 47.2618 10 46.8638 10 46.0677V20.3534C10 19.5573 10.7146 19.1592 12.1437 19.1592H13.1361C14.5388 19.1592 15.2401 19.5573 15.2401 20.3534V46.0677C15.2401 46.8638 14.5388 47.2618 13.1361 47.2618H12.1437ZM29.8721 47.4211C28.0989 47.4211 26.5176 47.2353 25.1282 46.8638C23.7388 46.4923 22.6603 46.0279 21.8928 45.4706C21.2312 44.9664 20.9004 44.5153 20.9004 44.1172C20.9004 43.613 21.165 42.9828 21.6943 42.2264C22.2236 41.4701 22.6603 41.092 23.0044 41.092C23.1632 41.092 23.494 41.2379 23.9968 41.5299C24.8172 41.9544 25.6244 42.2994 26.4184 42.5648C27.2123 42.8302 28.1386 42.9628 29.1972 42.9628C30.3882 42.9628 31.3872 42.6776 32.1944 42.107C33.0016 41.5365 33.4052 40.6807 33.4052 39.5396C33.4052 38.8231 33.2001 38.2194 32.7899 37.7284C32.3797 37.2375 31.8702 36.8262 31.2615 36.4945C30.6528 36.1628 29.8059 35.7713 28.7209 35.3202L27.3314 34.7231C26.114 34.1924 25.0951 33.6285 24.2747 33.0314C23.4543 32.4343 22.7794 31.6316 22.2501 30.6232C21.7208 29.6148 21.4562 28.341 21.4562 26.8019C21.4562 25.13 21.873 23.7037 22.7066 22.5228C23.5403 21.3419 24.6584 20.4595 26.0611 19.8757C27.4638 19.2919 28.9987 19 30.6661 19C31.857 19 33.0082 19.1327 34.1198 19.3981C35.2313 19.6634 36.0914 20.0217 36.7001 20.4728C37.2559 20.8709 37.5338 21.2689 37.5338 21.667C37.5338 22.1446 37.3088 22.7616 36.8589 23.5179C36.409 24.2742 36.012 24.6524 35.668 24.6524C35.5357 24.6524 35.324 24.586 35.0328 24.4533C34.7417 24.3207 34.5168 24.2145 34.358 24.1349C33.2994 23.6838 32.1746 23.4582 30.9836 23.4582C29.5545 23.4582 28.5025 23.7435 27.8277 24.314C27.1528 24.8846 26.8154 25.6077 26.8154 26.4834C26.8154 27.253 27.0139 27.8832 27.4108 28.3742C27.8078 28.8651 28.2974 29.2565 28.8797 29.5484C29.4619 29.8403 30.322 30.2119 31.46 30.663C32.9685 31.2733 34.2124 31.8704 35.1916 32.4542C36.1708 33.038 37.0111 33.8673 37.7124 34.9421C38.4138 36.0168 38.7644 37.3901 38.7644 39.0619C38.7644 41.8483 37.9176 43.9381 36.2238 45.3313C34.53 46.7245 32.4128 47.4211 29.8721 47.4211ZM46.489 47.222C45.0863 47.222 44.385 46.8372 44.385 46.0677V20.7514C44.385 20.2472 44.4975 19.8757 44.7224 19.6369C44.9474 19.3981 45.3113 19.2786 45.8141 19.2786H53.1979C56.5061 19.2786 58.9607 19.889 60.5619 21.1097C62.163 22.3304 62.9636 24.1614 62.9636 26.6028C62.9636 28.142 62.5534 29.4688 61.733 30.5834C60.9125 31.6979 59.7878 32.5338 58.3587 33.0911V33.2503C58.9409 33.4626 59.4967 33.9337 60.026 34.6634C60.5553 35.3932 61.0316 36.2888 61.4551 37.3503L64.8294 45.789C64.9353 46.1606 64.9882 46.3861 64.9882 46.4657C64.9882 46.9699 64.2736 47.222 62.8445 47.222H61.6536C60.4891 47.222 59.801 46.9699 59.5893 46.4657L56.4929 38.6639C56.0165 37.5758 55.4541 36.8196 54.8057 36.395C54.1573 35.9704 53.1715 35.7581 51.8482 35.7581H49.5854V46.0677C49.5854 46.8372 48.8841 47.222 47.4814 47.222H46.489ZM53.8728 31.2601C54.8785 31.2601 55.7518 30.8686 56.4929 30.0858C57.2339 29.303 57.6044 28.3808 57.6044 27.3193C57.6044 26.1782 57.2471 25.2959 56.5326 24.6723C55.818 24.0486 54.8388 23.7368 53.5949 23.7368H49.5854V31.2601H53.8728ZM69.3781 47.222C67.9225 47.222 67.1947 46.9567 67.1947 46.4259C67.1947 46.3463 67.2477 46.1207 67.3535 45.7492L76.3253 19.9553C76.4841 19.4511 77.1589 19.199 78.3499 19.199H80.0966C81.261 19.199 81.9359 19.4511 82.1212 19.9553L91.0929 45.7492C91.1723 46.0146 91.212 46.2402 91.212 46.4259C91.212 46.9567 90.5768 47.222 89.3065 47.222H88.0758C86.9114 47.222 86.2365 46.9699 86.0512 46.4657L84.2251 41.0124H74.0625L72.2364 46.4657C72.0511 46.9699 71.4689 47.222 70.4897 47.222H69.3781ZM82.7166 36.5542L79.8187 27.797C79.607 27.1866 79.4217 26.364 79.2629 25.3291H79.1041C79.0776 25.4883 79.0115 25.8333 78.9056 26.364C78.7998 26.8947 78.6674 27.3724 78.5086 27.797L75.5313 36.5542H82.7166ZM97.7059 47.1424C97.203 47.1424 96.8325 47.023 96.5943 46.7842C96.3562 46.5453 96.2371 46.1738 96.2371 45.6696V20.7514C96.2371 20.2207 96.3562 19.8425 96.5943 19.617C96.8325 19.3914 97.203 19.2786 97.7059 19.2786H111.6C111.971 19.2786 112.242 19.4113 112.414 19.6767C112.586 19.9421 112.672 20.3799 112.672 20.9903V22.0252C112.672 22.6356 112.586 23.0734 112.414 23.3388C112.242 23.6042 111.971 23.7368 111.6 23.7368H101.437V30.663H110.489C110.859 30.663 111.13 30.7957 111.302 31.061C111.474 31.3264 111.56 31.7643 111.56 32.3746V33.4096C111.56 34.0199 111.474 34.4578 111.302 34.7231C111.13 34.9885 110.859 35.1212 110.489 35.1212H101.437V42.6842H111.64C112.01 42.6842 112.282 42.8169 112.454 43.0823C112.626 43.3476 112.712 43.7855 112.712 44.3958V45.4308C112.712 46.0411 112.626 46.479 112.454 46.7444C112.282 47.0097 112.01 47.1424 111.64 47.1424H97.7059ZM120.952 47.1424C120.449 47.1424 120.079 47.023 119.841 46.7842C119.603 46.5453 119.483 46.1738 119.483 45.6696V20.3534C119.483 19.5838 120.185 19.199 121.587 19.199H122.58C123.321 19.199 123.857 19.2919 124.188 19.4777C124.519 19.6634 124.684 19.9553 124.684 20.3534V42.6842H134.092C134.463 42.6842 134.727 42.8235 134.886 43.1022C135.045 43.3808 135.124 43.812 135.124 44.3958V45.4308C135.124 46.0146 135.045 46.4458 134.886 46.7245C134.727 47.0031 134.463 47.1424 134.092 47.1424H120.952Z"/><path fill="#0AAAE3" d="M173.915 49.6244C172.592 49.7266 171.284 49.0166 170.69 47.7477L170.613 47.5835C170.331 47.2119 170.133 46.7854 170.029 46.3357L159.704 24.2738C158.939 22.6392 159.648 20.6961 161.289 19.9339L163.543 18.8869C165.183 18.1246 167.134 18.8318 167.899 20.4665L174.83 35.2765L191.958 1.78382C192.78 0.176785 194.754 -0.462184 196.367 0.356639L198.582 1.48138C200.195 2.3002 200.837 4.26674 200.015 5.87377L178.361 48.2162C177.539 49.8232 175.565 50.4622 173.952 49.6434L173.915 49.6244ZM160.991 15.7635C160.875 15.7933 160.638 15.8401 160.068 15.9335C157.999 16.2729 157.545 18.2813 157.54 19.6928C157.53 22.0368 157.53 30.5571 157.538 45.2539C157.539 47.0575 156.072 48.5204 154.262 48.5214C154.261 48.5214 154.261 48.5214 154.26 48.5214H151.74C149.942 48.5214 148.48 47.0779 148.463 45.2863C148.385 37.0619 148.397 29.3252 148.498 22.0763C148.52 20.4722 146.866 18.3388 144.026 18.7439L143.683 18.8041C143.648 18.8115 143.612 18.8192 143.577 18.8274C143.546 18.8344 143.519 18.8376 143.494 18.8374L141.168 19.246C139.385 19.5592 137.685 18.3732 137.371 16.597L136.939 14.1572C136.625 12.381 137.815 10.6872 139.598 10.374L179.446 3.37336C181.229 3.06017 182.929 4.24618 183.244 6.02239L183.675 8.4622C183.99 10.2384 182.799 11.9322 181.017 12.2454L160.991 15.7635Z"/></svg>