<svg width="20" height="20" viewBox="0 0 20 20" fill="none" xmlns="http://www.w3.org/2000/svg">
<path d="M10.1665 14.4834C9.58318 14.4834 8.99151 14.2584 8.54985 13.8168C8.11651 13.3834 7.87485 12.8084 7.87485 12.2001C7.87485 11.5918 8.11651 11.0084 8.54985 10.5834L9.72482 9.40844C9.96649 9.16678 10.3665 9.16678 10.6082 9.40844C10.8498 9.65011 10.8498 10.0501 10.6082 10.2918L9.43318 11.4668C9.23318 11.6668 9.12485 11.9251 9.12485 12.2001C9.12485 12.4751 9.23318 12.7418 9.43318 12.9334C9.84151 13.3418 10.4999 13.3418 10.9082 12.9334L12.7582 11.0834C13.8165 10.0251 13.8165 8.30845 12.7582 7.25011C11.6998 6.19178 9.98319 6.19178 8.92486 7.25011L6.90815 9.26676C6.48315 9.69176 6.24984 10.2501 6.24984 10.8418C6.24984 11.4334 6.48315 12.0001 6.90815 12.4168C7.14982 12.6584 7.14982 13.0584 6.90815 13.3001C6.66649 13.5418 6.26649 13.5418 6.02482 13.3001C5.36649 12.6418 5.00818 11.7668 5.00818 10.8334C5.00818 9.9001 5.36649 9.02511 6.02482 8.36678L8.04152 6.3501C9.58319 4.80843 12.0998 4.80843 13.6415 6.3501C15.1832 7.89176 15.1832 10.4084 13.6415 11.9501L11.7915 13.8001C11.3415 14.2584 10.7582 14.4834 10.1665 14.4834Z" fill="#232323"/>
<path d="M9.99996 18.9584C5.05829 18.9584 1.04163 14.9417 1.04163 10.0001C1.04163 5.05842 5.05829 1.04175 9.99996 1.04175C14.9416 1.04175 18.9583 5.05842 18.9583 10.0001C18.9583 14.9417 14.9416 18.9584 9.99996 18.9584ZM9.99996 2.29175C5.74996 2.29175 2.29163 5.75008 2.29163 10.0001C2.29163 14.2501 5.74996 17.7084 9.99996 17.7084C14.25 17.7084 17.7083 14.2501 17.7083 10.0001C17.7083 5.75008 14.25 2.29175 9.99996 2.29175Z" fill="#232323"/>
</svg>
