<svg width="24" height="25" viewBox="0 0 24 25" fill="none" xmlns="http://www.w3.org/2000/svg">
<path fill-rule="evenodd" clip-rule="evenodd" d="M11.67 10.3899C11.6891 11.0468 11.2866 11.6425 10.67 11.8699C11.4732 12.0869 12.0126 12.8395 11.96 13.6699C11.96 15.6699 9.77 15.7299 9.45 15.7299H6.02V8.6299H9.4C11.59 8.6299 11.67 9.8499 11.67 10.3899ZM9.05 9.8699H7.58V11.5299H9.17C9.41128 11.5589 9.65329 11.4819 9.83354 11.3189C10.0138 11.1559 10.1146 10.9229 10.11 10.6799C10.11 9.84202 9.28573 9.86386 9.08072 9.86929C9.06797 9.86963 9.05761 9.8699 9.05 9.8699ZM9.25 14.5499H7.58V12.5499H9.27C9.55691 12.5123 9.84605 12.6008 10.0627 12.7925C10.2794 12.9843 10.4025 13.2605 10.4 13.5499C10.4 14.5199 9.39999 14.5199 9.25 14.5199V14.5499Z" fill="#828282"/>
<path d="M16.5 9.2899H13.85V9.9399H16.5V9.2899Z" fill="#828282"/>
<path fill-rule="evenodd" clip-rule="evenodd" d="M13.457 11.2258C13.9254 10.7498 14.5728 10.4935 15.24 10.5199C17.04 10.5199 17.6 12.0399 17.56 13.3299H14.15C14.1065 13.6542 14.2123 13.9807 14.4377 14.2178C14.6632 14.4549 14.9839 14.577 15.31 14.5499C15.7374 14.552 16.1274 14.3064 16.31 13.9199H17.42C17.173 14.9258 16.2324 15.6038 15.2 15.5199C14.535 15.5507 13.8889 15.2943 13.4259 14.816C12.9629 14.3377 12.7276 13.6835 12.78 13.0199C12.7428 12.3532 12.9887 11.7017 13.457 11.2258ZM14.19 12.1999C14.1526 12.3026 14.1324 12.4107 14.13 12.5199H16.24C16.2243 12.2409 16.1191 11.9744 15.94 11.7599C15.7415 11.5786 15.4784 11.4849 15.21 11.4999C15.0312 11.4923 14.8532 11.5266 14.69 11.5999C14.5583 11.6639 14.4422 11.7561 14.35 11.8699C14.2751 11.9681 14.2206 12.0803 14.19 12.1999Z" fill="#828282"/>
<path fill-rule="evenodd" clip-rule="evenodd" d="M17.56 2.3999H6C3.79086 2.3999 2 4.19076 2 6.3999V17.9599C2 20.169 3.79086 21.9599 6 21.9599H17.56C19.7691 21.9599 21.56 20.169 21.56 17.9599V6.3999C21.56 4.19076 19.7691 2.3999 17.56 2.3999ZM20.06 17.9599C20.06 19.3406 18.9407 20.4599 17.56 20.4599H6C4.61929 20.4599 3.5 19.3406 3.5 17.9599V6.3999C3.5 5.01919 4.61929 3.8999 6 3.8999H17.56C18.9407 3.8999 20.06 5.01919 20.06 6.3999V17.9599Z" fill="#828282"/>
</svg>
