<svg width="21" height="20" viewBox="0 0 21 20" fill="none" xmlns="http://www.w3.org/2000/svg">
<path d="M7.16663 4.79175C6.82496 4.79175 6.54163 4.50841 6.54163 4.16675V1.66675C6.54163 1.32508 6.82496 1.04175 7.16663 1.04175C7.50829 1.04175 7.79163 1.32508 7.79163 1.66675V4.16675C7.79163 4.50841 7.50829 4.79175 7.16663 4.79175Z" fill="white"/>
<path d="M13.8334 4.79175C13.4917 4.79175 13.2084 4.50841 13.2084 4.16675V1.66675C13.2084 1.32508 13.4917 1.04175 13.8334 1.04175C14.175 1.04175 14.4584 1.32508 14.4584 1.66675V4.16675C14.4584 4.50841 14.175 4.79175 13.8334 4.79175Z" fill="white"/>
<path d="M7.58333 12.0834C7.475 12.0834 7.36667 12.0584 7.26667 12.0168C7.15833 11.9751 7.075 11.9168 6.99167 11.8418C6.84167 11.6834 6.75 11.4751 6.75 11.2501C6.75 11.1418 6.775 11.0334 6.81667 10.9334C6.85833 10.8334 6.91667 10.7418 6.99167 10.6584C7.075 10.5834 7.15833 10.5251 7.26667 10.4834C7.56667 10.3584 7.94167 10.4251 8.175 10.6584C8.325 10.8168 8.41667 11.0334 8.41667 11.2501C8.41667 11.3001 8.40833 11.3584 8.4 11.4168C8.39167 11.4668 8.375 11.5168 8.35 11.5668C8.33333 11.6168 8.30833 11.6668 8.275 11.7168C8.25 11.7584 8.20833 11.8001 8.175 11.8418C8.01667 11.9918 7.8 12.0834 7.58333 12.0834Z" fill="white"/>
<path d="M10.5 12.0832C10.3916 12.0832 10.2833 12.0582 10.1833 12.0166C10.075 11.9749 9.99163 11.9166 9.90829 11.8416C9.75829 11.6832 9.66663 11.4749 9.66663 11.2499C9.66663 11.1416 9.69163 11.0332 9.73329 10.9332C9.77496 10.8332 9.83329 10.7416 9.90829 10.6582C9.99163 10.5832 10.075 10.5249 10.1833 10.4832C10.4833 10.3499 10.8583 10.4249 11.0916 10.6582C11.2416 10.8166 11.3333 11.0332 11.3333 11.2499C11.3333 11.2999 11.325 11.3582 11.3166 11.4166C11.3083 11.4666 11.2916 11.5166 11.2666 11.5666C11.25 11.6166 11.225 11.6666 11.1916 11.7166C11.1666 11.7582 11.125 11.7999 11.0916 11.8416C10.9333 11.9916 10.7166 12.0832 10.5 12.0832Z" fill="white"/>
<path d="M13.4167 12.0832C13.3084 12.0832 13.2 12.0582 13.1 12.0166C12.9917 11.9749 12.9084 11.9166 12.825 11.8416C12.7917 11.7999 12.7584 11.7582 12.725 11.7166C12.6917 11.6666 12.6667 11.6166 12.65 11.5666C12.625 11.5166 12.6084 11.4666 12.6 11.4166C12.5917 11.3582 12.5834 11.2999 12.5834 11.2499C12.5834 11.0332 12.675 10.8166 12.825 10.6582C12.9084 10.5832 12.9917 10.5249 13.1 10.4832C13.4084 10.3499 13.775 10.4249 14.0084 10.6582C14.1584 10.8166 14.25 11.0332 14.25 11.2499C14.25 11.2999 14.2417 11.3582 14.2334 11.4166C14.225 11.4666 14.2084 11.5166 14.1834 11.5666C14.1667 11.6166 14.1417 11.6666 14.1084 11.7166C14.0834 11.7582 14.0417 11.7999 14.0084 11.8416C13.85 11.9916 13.6334 12.0832 13.4167 12.0832Z" fill="white"/>
<path d="M7.58333 15C7.475 15 7.36667 14.975 7.26667 14.9333C7.16667 14.8917 7.075 14.8333 6.99167 14.7583C6.84167 14.6 6.75 14.3833 6.75 14.1667C6.75 14.0583 6.775 13.95 6.81667 13.85C6.85833 13.7417 6.91667 13.65 6.99167 13.575C7.3 13.2667 7.86667 13.2667 8.175 13.575C8.325 13.7333 8.41667 13.95 8.41667 14.1667C8.41667 14.3833 8.325 14.6 8.175 14.7583C8.01667 14.9083 7.8 15 7.58333 15Z" fill="white"/>
<path d="M10.5 15C10.2833 15 10.0666 14.9083 9.90829 14.7583C9.75829 14.6 9.66663 14.3833 9.66663 14.1667C9.66663 14.0583 9.69163 13.95 9.73329 13.85C9.77496 13.7417 9.83329 13.65 9.90829 13.575C10.2166 13.2667 10.7833 13.2667 11.0916 13.575C11.1666 13.65 11.225 13.7417 11.2666 13.85C11.3083 13.95 11.3333 14.0583 11.3333 14.1667C11.3333 14.3833 11.2416 14.6 11.0916 14.7583C10.9333 14.9083 10.7166 15 10.5 15Z" fill="white"/>
<path d="M13.4167 14.9999C13.2 14.9999 12.9834 14.9083 12.825 14.7583C12.75 14.6833 12.6917 14.5916 12.65 14.4833C12.6084 14.3833 12.5834 14.2749 12.5834 14.1666C12.5834 14.0583 12.6084 13.9499 12.65 13.8499C12.6917 13.7416 12.75 13.6499 12.825 13.5749C13.0167 13.3833 13.3084 13.2916 13.575 13.3499C13.6334 13.3583 13.6834 13.3749 13.7334 13.3999C13.7834 13.4166 13.8334 13.4416 13.8834 13.4749C13.925 13.4999 13.9667 13.5416 14.0084 13.5749C14.1584 13.7333 14.25 13.9499 14.25 14.1666C14.25 14.3833 14.1584 14.5999 14.0084 14.7583C13.85 14.9083 13.6334 14.9999 13.4167 14.9999Z" fill="white"/>
<path d="M17.5833 8.19995H3.41663C3.07496 8.19995 2.79163 7.91662 2.79163 7.57495C2.79163 7.23328 3.07496 6.94995 3.41663 6.94995H17.5833C17.925 6.94995 18.2083 7.23328 18.2083 7.57495C18.2083 7.91662 17.925 8.19995 17.5833 8.19995Z" fill="white"/>
<path d="M13.8333 18.9584H7.16667C4.125 18.9584 2.375 17.2084 2.375 14.1667V7.08341C2.375 4.04175 4.125 2.29175 7.16667 2.29175H13.8333C16.875 2.29175 18.625 4.04175 18.625 7.08341V14.1667C18.625 17.2084 16.875 18.9584 13.8333 18.9584ZM7.16667 3.54175C4.78333 3.54175 3.625 4.70008 3.625 7.08341V14.1667C3.625 16.5501 4.78333 17.7084 7.16667 17.7084H13.8333C16.2167 17.7084 17.375 16.5501 17.375 14.1667V7.08341C17.375 4.70008 16.2167 3.54175 13.8333 3.54175H7.16667Z" fill="white"/>
</svg>
