<svg width="50" height="51" viewBox="0 0 50 51" fill="none" xmlns="http://www.w3.org/2000/svg">
<path d="M11.1053 32.4157L49 1M11.1053 32.4157L5.84211 30.0595L2.10161 28.1989C0.723124 27.5133 0.603847 25.5924 1.88692 24.7415L2.15789 24.5618L49 1M11.1053 32.4157L15.8421 45.5056L17.4211 49.1707M49 1L19.5263 36.0809M49 1L39 39.746L38.5868 40.7051C37.9396 42.2074 36.2082 42.9143 34.6944 42.2943L31.3684 40.9318L25.3158 38.4524M19.5263 36.0809L25.3158 38.4524M19.5263 36.0809L17.9474 46.0292L17.4211 49.1707M17.4211 49.1707L19.5263 46.0292L25.3158 38.4524" stroke="white"/>
</svg>
