<svg width="24" height="25" viewBox="0 0 24 25" fill="none" xmlns="http://www.w3.org/2000/svg">
<path fill-rule="evenodd" clip-rule="evenodd" d="M7.55834 8.39994C6.51861 8.40866 5.47864 8.40676 4.43882 8.40097C4.14502 8.39923 3.99947 8.50065 4 8.83504C4.00651 12.5637 4.00398 16.2924 4.00475 20.0209C4.00483 20.1629 3.98308 20.3189 4.15789 20.3835C4.16455 20.4063 7.83017 20.4048 7.84004 20.3823C8.033 20.3071 7.9941 20.1322 7.99418 19.981C7.99586 16.2786 7.99288 12.5762 8 8.87387C8.00053 8.5379 7.88553 8.39717 7.55834 8.39994Z" fill="#828282"/>
<path fill-rule="evenodd" clip-rule="evenodd" d="M5.99997 3.3999C4.89547 3.3999 4 4.29537 4 5.39987C4 6.50451 4.89547 7.3999 5.99997 7.3999C7.10453 7.3999 8 6.50451 8 5.39987C8 4.29537 7.10453 3.3999 5.99997 3.3999Z" fill="#828282"/>
<path fill-rule="evenodd" clip-rule="evenodd" d="M20.9481 19.8251C20.9505 17.9139 20.9602 16.0027 20.9447 14.0916C20.9379 13.2545 20.9078 12.4152 20.7319 11.5913C20.4435 10.2406 19.7945 9.18596 18.5054 8.69419C17.6453 8.36614 16.7461 8.34502 15.848 8.47219C15.0935 8.57902 14.3985 8.8664 13.7653 9.40055C13.7653 9.20621 13.7647 9.07733 13.7655 8.94861C13.7674 8.65951 13.6329 8.52884 13.3557 8.53016C12.3708 8.53476 11.3859 8.53359 10.4008 8.53094C10.1297 8.53016 9.99963 8.64214 10 8.94689C10.0052 12.6143 10.0033 16.2817 10.0034 19.9491C10.0034 20.0897 9.98491 20.2394 10.1477 20.3086C10.1649 20.3313 13.7208 20.3398 13.7207 20.3167C13.9539 20.2119 13.8822 19.9908 13.8826 19.8108C13.8858 18.002 13.875 16.1931 13.8847 14.3843C13.8877 13.8187 13.9086 13.2473 14.1529 12.7206C14.4424 12.0965 15.0415 11.8261 15.8854 11.9368C16.4659 12.0128 16.8365 12.4059 16.9519 13.0908C16.9946 13.3438 17.0265 13.6025 17.028 13.8588C17.0393 15.8484 17.0409 17.8381 17.0491 19.8278C17.05 20.0115 16.9948 20.2284 17.2315 20.3208C17.2234 20.3469 20.8039 20.3311 20.8048 20.3058C20.9975 20.1935 20.9479 19.9976 20.9481 19.8251Z" fill="#828282"/>
</svg>
