<svg aria-hidden="true" style="position: absolute; width: 0; height: 0; overflow: hidden;" version="1.1" xmlns="http://www.w3.org/2000/svg" xmlns:xlink="http://www.w3.org/1999/xlink">
<defs>
<symbol id="icon-coffee" viewBox="0 0 32 32">
<path d="M18.107 30.333h-9.827c-3.653 0-6.613-2.973-6.613-6.613v-9.76c0-3.653 2.973-6.613 6.613-6.613h9.827c3.653 0 6.613 2.973 6.613 6.613v9.76c0 3.64-2.973 6.613-6.613 6.613zM8.28 9.347c-2.547 0-4.613 2.067-4.613 4.613v9.76c0 2.547 2.067 4.613 4.613 4.613h9.827c2.547 0 4.613-2.067 4.613-4.613v-9.76c0-2.547-2.067-4.613-4.613-4.613h-9.827z"></path>
<path d="M7.333 6.333c-0.547 0-1-0.453-1-1v-2.333c0-0.547 0.453-1 1-1s1 0.453 1 1v2.333c0 0.547-0.453 1-1 1z"></path>
<path d="M12.667 6.333c-0.547 0-1-0.453-1-1v-2.333c0-0.547 0.453-1 1-1s1 0.453 1 1v2.333c0 0.547-0.453 1-1 1z"></path>
<path d="M18 6.333c-0.547 0-1-0.453-1-1v-2.333c0-0.547 0.453-1 1-1s1 0.453 1 1v2.333c0 0.547-0.453 1-1 1z"></path>
<path d="M23.72 24.16c-0.547 0-1-0.453-1-1v-11.227c0-0.547 0.453-1 1-1 3.653 0 6.613 2.973 6.613 6.613s-2.973 6.613-6.613 6.613zM24.72 13.040v9.013c2.067-0.453 3.613-2.307 3.613-4.507s-1.547-4.053-3.613-4.507z"></path>
<path d="M23.347 17h-20.68c-0.547 0-1-0.453-1-1s0.453-1 1-1h20.68c0.547 0 1 0.453 1 1s-0.453 1-1 1z"></path>
</symbol>
<symbol id="icon-ok" viewBox="0 0 32 32">
<path d="M16 30.333c-7.907 0-14.333-6.427-14.333-14.333s6.427-14.333 14.333-14.333c7.907 0 14.333 6.427 14.333 14.333s-6.427 14.333-14.333 14.333zM16 3.667c-6.8 0-12.333 5.533-12.333 12.333s5.533 12.333 12.333 12.333c6.8 0 12.333-5.533 12.333-12.333s-5.533-12.333-12.333-12.333z"></path>
<path d="M14.107 20.773c-0.267 0-0.52-0.107-0.707-0.293l-3.773-3.773c-0.387-0.387-0.387-1.027 0-1.413s1.027-0.387 1.413 0l3.067 3.067 6.853-6.853c0.387-0.387 1.027-0.387 1.413 0s0.387 1.027 0 1.413l-7.56 7.56c-0.187 0.187-0.44 0.293-0.707 0.293z"></path>
</symbol>
<symbol id="icon-star" viewBox="0 0 32 32">
<path d="M23.547 30.227c-0.707 0-1.613-0.227-2.747-0.893l-3.987-2.36c-0.413-0.24-1.213-0.24-1.613 0l-4 2.36c-2.36 1.4-3.747 0.84-4.373 0.387-0.613-0.453-1.573-1.613-0.947-4.28l0.947-4.093c0.107-0.427-0.107-1.16-0.427-1.48l-3.307-3.307c-1.653-1.653-1.52-3.067-1.293-3.76s0.947-1.92 3.24-2.307l4.253-0.707c0.4-0.067 0.973-0.493 1.147-0.853l2.36-4.707c1.067-2.147 2.467-2.467 3.2-2.467s2.133 0.32 3.2 2.467l2.347 4.693c0.187 0.36 0.76 0.787 1.16 0.853l4.253 0.707c2.307 0.387 3.027 1.613 3.24 2.307s0.347 2.107-1.293 3.76l-3.307 3.32c-0.32 0.32-0.52 1.040-0.427 1.48l0.947 4.093c0.613 2.667-0.333 3.827-0.947 4.28-0.333 0.24-0.867 0.507-1.627 0.507zM16 24.787c0.653 0 1.307 0.16 1.827 0.467l3.987 2.36c1.16 0.693 1.893 0.693 2.173 0.493s0.48-0.907 0.187-2.213l-0.947-4.093c-0.253-1.107 0.16-2.533 0.96-3.347l3.307-3.307c0.653-0.653 0.947-1.293 0.813-1.733-0.147-0.44-0.76-0.8-1.667-0.947l-4.253-0.707c-1.027-0.173-2.147-1-2.613-1.933l-2.347-4.693c-0.427-0.853-0.96-1.36-1.427-1.36s-1 0.507-1.413 1.36l-2.36 4.693c-0.467 0.933-1.587 1.76-2.613 1.933l-4.24 0.707c-0.907 0.147-1.52 0.507-1.667 0.947s0.16 1.093 0.813 1.733l3.307 3.307c0.8 0.8 1.213 2.24 0.96 3.347l-0.947 4.093c-0.307 1.32-0.093 2.013 0.187 2.213s1 0.187 2.173-0.493l3.987-2.36c0.507-0.307 1.16-0.467 1.813-0.467z"></path>
</symbol>
<symbol id="icon-info-circle" viewBox="0 0 32 32">
<path d="M16 30.333c-7.907 0-14.333-6.427-14.333-14.333s6.427-14.333 14.333-14.333c7.907 0 14.333 6.427 14.333 14.333s-6.427 14.333-14.333 14.333zM16 3.667c-6.8 0-12.333 5.533-12.333 12.333s5.533 12.333 12.333 12.333c6.8 0 12.333-5.533 12.333-12.333s-5.533-12.333-12.333-12.333z"></path>
<path d="M16 18.333c-0.547 0-1-0.453-1-1v-6.667c0-0.547 0.453-1 1-1s1 0.453 1 1v6.667c0 0.547-0.453 1-1 1z"></path>
<path d="M16 22.667c-0.173 0-0.347-0.040-0.507-0.107s-0.307-0.16-0.44-0.28c-0.12-0.133-0.213-0.267-0.28-0.44-0.067-0.16-0.107-0.333-0.107-0.507s0.040-0.347 0.107-0.507 0.16-0.307 0.28-0.44c0.133-0.12 0.28-0.213 0.44-0.28 0.32-0.133 0.693-0.133 1.013 0 0.16 0.067 0.307 0.16 0.44 0.28 0.12 0.133 0.213 0.28 0.28 0.44s0.107 0.333 0.107 0.507c0 0.173-0.040 0.347-0.107 0.507-0.067 0.173-0.16 0.307-0.28 0.44-0.133 0.12-0.28 0.213-0.44 0.28s-0.333 0.107-0.507 0.107z"></path>
</symbol>
<symbol id="icon-attach" viewBox="0 0 32 32">
<path d="M16.266 23.173c-0.933 0-1.88-0.36-2.587-1.067-0.693-0.693-1.080-1.613-1.080-2.587s0.387-1.907 1.080-2.587l1.88-1.88c0.387-0.387 1.027-0.387 1.413 0s0.387 1.027 0 1.413l-1.88 1.88c-0.32 0.32-0.493 0.733-0.493 1.173s0.173 0.867 0.493 1.173c0.653 0.653 1.707 0.653 2.36 0l2.96-2.96c1.693-1.693 1.693-4.44 0-6.133s-4.44-1.693-6.133 0l-3.227 3.227c-0.68 0.68-1.053 1.573-1.053 2.52s0.373 1.853 1.053 2.52c0.387 0.387 0.387 1.027 0 1.413s-1.027 0.387-1.413 0c-1.053-1.053-1.627-2.453-1.627-3.947s0.573-2.893 1.627-3.947l3.227-3.227c2.467-2.467 6.493-2.467 8.96 0s2.467 6.493 0 8.96l-2.96 2.96c-0.72 0.733-1.653 1.093-2.6 1.093z"></path>
<path d="M16 30.333c-7.907 0-14.333-6.427-14.333-14.333s6.427-14.333 14.333-14.333c7.907 0 14.333 6.427 14.333 14.333s-6.427 14.333-14.333 14.333zM16 3.667c-6.8 0-12.333 5.533-12.333 12.333s5.533 12.333 12.333 12.333c6.8 0 12.333-5.533 12.333-12.333s-5.533-12.333-12.333-12.333z"></path>
</symbol>
<symbol id="icon-calendar" viewBox="0 0 32 32">
<path d="M10.921 8.064c-0.521 0-0.952-0.432-0.952-0.952v-3.81c0-0.521 0.432-0.952 0.952-0.952s0.952 0.432 0.952 0.952v3.81c0 0.521-0.432 0.952-0.952 0.952z"></path>
<path d="M21.079 8.064c-0.521 0-0.952-0.432-0.952-0.952v-3.81c0-0.521 0.432-0.952 0.952-0.952s0.952 0.432 0.952 0.952v3.81c0 0.521-0.432 0.952-0.952 0.952z"></path>
<path d="M11.556 19.175c-0.165 0-0.33-0.038-0.483-0.102-0.165-0.064-0.292-0.152-0.419-0.267-0.229-0.241-0.368-0.559-0.368-0.902 0-0.165 0.038-0.33 0.102-0.483s0.152-0.292 0.267-0.419c0.127-0.114 0.254-0.203 0.419-0.267 0.457-0.19 1.029-0.089 1.384 0.267 0.229 0.241 0.368 0.571 0.368 0.902 0 0.076-0.013 0.165-0.025 0.254-0.013 0.076-0.038 0.152-0.076 0.229-0.025 0.076-0.063 0.152-0.114 0.229-0.038 0.063-0.102 0.127-0.152 0.19-0.241 0.229-0.571 0.368-0.902 0.368z"></path>
<path d="M16 19.174c-0.165 0-0.33-0.038-0.483-0.102-0.165-0.064-0.292-0.152-0.419-0.267-0.229-0.241-0.368-0.559-0.368-0.902 0-0.165 0.038-0.33 0.102-0.483s0.152-0.292 0.267-0.419c0.127-0.114 0.254-0.203 0.419-0.267 0.457-0.203 1.029-0.089 1.384 0.267 0.229 0.241 0.368 0.571 0.368 0.902 0 0.076-0.013 0.165-0.025 0.254-0.013 0.076-0.038 0.152-0.076 0.229-0.025 0.076-0.063 0.152-0.114 0.229-0.038 0.063-0.102 0.127-0.152 0.19-0.241 0.229-0.571 0.368-0.902 0.368z"></path>
<path d="M20.445 19.174c-0.165 0-0.33-0.038-0.483-0.102-0.165-0.064-0.292-0.152-0.419-0.267-0.051-0.064-0.102-0.127-0.152-0.19-0.051-0.076-0.089-0.152-0.114-0.229-0.038-0.076-0.063-0.152-0.076-0.229-0.013-0.089-0.025-0.178-0.025-0.254 0-0.33 0.14-0.66 0.368-0.902 0.127-0.114 0.254-0.203 0.419-0.267 0.47-0.203 1.029-0.089 1.384 0.267 0.229 0.241 0.368 0.571 0.368 0.902 0 0.076-0.013 0.165-0.025 0.254-0.013 0.076-0.038 0.152-0.076 0.229-0.025 0.076-0.064 0.152-0.114 0.229-0.038 0.063-0.102 0.127-0.152 0.19-0.241 0.229-0.571 0.368-0.902 0.368z"></path>
<path d="M11.556 23.619c-0.165 0-0.33-0.038-0.483-0.102s-0.292-0.152-0.419-0.267c-0.229-0.241-0.368-0.571-0.368-0.901 0-0.165 0.038-0.33 0.102-0.483 0.063-0.165 0.152-0.305 0.267-0.419 0.47-0.47 1.333-0.47 1.803 0 0.229 0.241 0.368 0.571 0.368 0.902s-0.14 0.66-0.368 0.901c-0.241 0.229-0.571 0.368-0.902 0.368z"></path>
<path d="M16 23.619c-0.33 0-0.66-0.14-0.902-0.368-0.229-0.241-0.368-0.571-0.368-0.901 0-0.165 0.038-0.33 0.102-0.483 0.063-0.165 0.152-0.305 0.267-0.419 0.47-0.47 1.333-0.47 1.803 0 0.114 0.114 0.203 0.254 0.267 0.419 0.064 0.152 0.102 0.317 0.102 0.483 0 0.33-0.14 0.66-0.368 0.901-0.241 0.229-0.571 0.368-0.902 0.368z"></path>
<path d="M20.445 23.619c-0.33 0-0.66-0.14-0.902-0.368-0.114-0.114-0.203-0.254-0.267-0.419-0.063-0.152-0.102-0.318-0.102-0.483s0.038-0.33 0.102-0.483c0.064-0.165 0.152-0.305 0.267-0.419 0.292-0.292 0.737-0.432 1.143-0.343 0.089 0.013 0.165 0.038 0.241 0.076 0.076 0.025 0.152 0.064 0.229 0.114 0.063 0.038 0.127 0.102 0.19 0.152 0.229 0.241 0.368 0.571 0.368 0.902s-0.14 0.66-0.368 0.902c-0.241 0.229-0.571 0.368-0.902 0.368z"></path>
<path d="M26.794 13.257h-21.587c-0.521 0-0.952-0.432-0.952-0.952s0.432-0.952 0.952-0.952h21.587c0.521 0 0.952 0.432 0.952 0.952s-0.432 0.952-0.952 0.952z"></path>
<path d="M21.079 29.651h-10.159c-4.635 0-7.302-2.667-7.302-7.302v-10.794c0-4.635 2.667-7.302 7.302-7.302h10.159c4.635 0 7.302 2.667 7.302 7.302v10.794c0 4.635-2.667 7.302-7.302 7.302zM10.921 6.159c-3.632 0-5.397 1.765-5.397 5.397v10.794c0 3.632 1.765 5.397 5.397 5.397h10.159c3.632 0 5.397-1.765 5.397-5.397v-10.794c0-3.632-1.765-5.397-5.397-5.397h-10.159z"></path>
</symbol>
<symbol id="icon-arrow-down" viewBox="0 0 32 32">
<path d="M16 22.4c-0.933 0-1.867-0.36-2.573-1.067l-8.693-8.693c-0.387-0.387-0.387-1.027 0-1.413s1.027-0.387 1.413 0l8.693 8.693c0.64 0.64 1.68 0.64 2.32 0l8.693-8.693c0.387-0.387 1.027-0.387 1.413 0s0.387 1.027 0 1.413l-8.693 8.693c-0.707 0.707-1.64 1.067-2.573 1.067z"></path>
</symbol>
<symbol id="icon-arrow-right" viewBox="0 0 32 32">
<path d="M19.24 25.093c-0.253 0-0.507-0.093-0.707-0.293-0.387-0.387-0.387-1.027 0-1.413l7.387-7.387-7.387-7.387c-0.387-0.387-0.387-1.027 0-1.413s1.027-0.387 1.413 0l8.093 8.093c0.387 0.387 0.387 1.027 0 1.413l-8.093 8.093c-0.2 0.2-0.453 0.293-0.707 0.293z"></path>
<path d="M27.107 17h-22.44c-0.547 0-1-0.453-1-1s0.453-1 1-1h22.44c0.547 0 1 0.453 1 1s-0.453 1-1 1z"></path>
</symbol>
<symbol id="icon-location" viewBox="0 0 32 32">
<path d="M16 18.893c-2.84 0-5.16-2.307-5.16-5.16s2.32-5.147 5.16-5.147c2.84 0 5.16 2.307 5.16 5.16s-2.32 5.147-5.16 5.147zM16 10.587c-1.733 0-3.16 1.413-3.16 3.16s1.413 3.16 3.16 3.16c1.747 0 3.16-1.413 3.16-3.16s-1.427-3.16-3.16-3.16z"></path>
<path d="M16 30.347c-1.973 0-3.96-0.747-5.507-2.227-3.933-3.787-8.28-9.827-6.64-17.013 1.48-6.52 7.173-9.44 12.147-9.44 0 0 0 0 0.013 0 4.973 0 10.667 2.92 12.147 9.453 1.627 7.187-2.72 13.213-6.653 17-1.547 1.48-3.533 2.227-5.507 2.227zM16 3.667c-3.88 0-8.867 2.067-10.187 7.88-1.44 6.28 2.507 11.693 6.080 15.12 2.307 2.227 5.92 2.227 8.227 0 3.56-3.427 7.507-8.84 6.093-15.12-1.333-5.813-6.333-7.88-10.213-7.88z"></path>
</symbol>
<symbol id="icon-call" viewBox="0 0 32 32">
<path d="M23.267 30.333c-1.507 0-3.093-0.36-4.733-1.053-1.6-0.68-3.213-1.613-4.787-2.747-1.56-1.147-3.067-2.427-4.493-3.827-1.413-1.427-2.693-2.933-3.827-4.48-1.147-1.6-2.067-3.2-2.72-4.747-0.693-1.653-1.040-3.253-1.040-4.76 0-1.040 0.187-2.027 0.547-2.947 0.373-0.947 0.973-1.827 1.787-2.587 1.027-1.013 2.2-1.52 3.453-1.52 0.52 0 1.053 0.12 1.507 0.333 0.52 0.24 0.96 0.6 1.28 1.080l3.093 4.36c0.28 0.387 0.493 0.76 0.64 1.133 0.173 0.4 0.267 0.8 0.267 1.187 0 0.507-0.147 1-0.427 1.467-0.2 0.36-0.507 0.747-0.893 1.133l-0.907 0.947c0.013 0.040 0.027 0.067 0.040 0.093 0.16 0.28 0.48 0.76 1.093 1.48 0.653 0.747 1.267 1.427 1.88 2.053 0.787 0.773 1.44 1.387 2.053 1.893 0.76 0.64 1.253 0.96 1.547 1.107l-0.027 0.067 0.973-0.96c0.413-0.413 0.813-0.72 1.2-0.92 0.733-0.453 1.667-0.533 2.6-0.147 0.347 0.147 0.72 0.347 1.12 0.627l4.427 3.147c0.493 0.333 0.853 0.76 1.067 1.267 0.2 0.507 0.293 0.973 0.293 1.44 0 0.64-0.147 1.28-0.427 1.88s-0.627 1.12-1.067 1.6c-0.76 0.84-1.587 1.44-2.547 1.827-0.92 0.373-1.92 0.573-2.973 0.573zM7.453 3.667c-0.733 0-1.413 0.32-2.067 0.96-0.613 0.573-1.040 1.2-1.307 1.88-0.28 0.693-0.413 1.427-0.413 2.213 0 1.24 0.293 2.587 0.88 3.973 0.6 1.413 1.44 2.88 2.507 4.347s2.28 2.893 3.613 4.24c1.333 1.32 2.773 2.547 4.253 3.627 1.44 1.053 2.92 1.907 4.387 2.52 2.28 0.973 4.413 1.2 6.173 0.467 0.68-0.28 1.28-0.707 1.827-1.32 0.307-0.333 0.547-0.693 0.747-1.12 0.16-0.333 0.24-0.68 0.24-1.027 0-0.213-0.040-0.427-0.147-0.667-0.040-0.080-0.12-0.227-0.373-0.4l-4.427-3.147c-0.267-0.187-0.507-0.32-0.733-0.413-0.293-0.12-0.413-0.24-0.867 0.040-0.267 0.133-0.507 0.333-0.773 0.6l-1.013 1c-0.52 0.507-1.32 0.627-1.933 0.4l-0.36-0.16c-0.547-0.293-1.187-0.747-1.893-1.347-0.64-0.547-1.333-1.187-2.173-2.013-0.653-0.667-1.307-1.373-1.987-2.16-0.627-0.733-1.080-1.36-1.36-1.88l-0.16-0.4c-0.080-0.307-0.107-0.48-0.107-0.667 0-0.48 0.173-0.907 0.507-1.24l1-1.040c0.267-0.267 0.467-0.52 0.6-0.747 0.107-0.173 0.147-0.32 0.147-0.453 0-0.107-0.040-0.267-0.107-0.427-0.093-0.213-0.24-0.453-0.427-0.707l-3.093-4.373c-0.133-0.187-0.293-0.32-0.493-0.413-0.213-0.093-0.44-0.147-0.667-0.147zM18.6 20.013l-0.213 0.907 0.36-0.933c-0.067-0.013-0.12 0-0.147 0.027z"></path>
</symbol>
<symbol id="icon-sms" viewBox="0 0 32 32">
<path d="M22.667 28.333h-13.333c-4.867 0-7.667-2.8-7.667-7.667v-9.333c0-4.867 2.8-7.667 7.667-7.667h13.333c4.867 0 7.667 2.8 7.667 7.667v9.333c0 4.867-2.8 7.667-7.667 7.667zM9.333 5.667c-3.813 0-5.667 1.853-5.667 5.667v9.333c0 3.813 1.853 5.667 5.667 5.667h13.333c3.813 0 5.667-1.853 5.667-5.667v-9.333c0-3.813-1.853-5.667-5.667-5.667h-13.333z"></path>
<path d="M16 17.16c-1.12 0-2.253-0.347-3.12-1.053l-4.173-3.333c-0.427-0.347-0.507-0.973-0.16-1.4s0.973-0.507 1.4-0.16l4.173 3.333c1.013 0.813 2.733 0.813 3.747 0l4.173-3.333c0.427-0.347 1.067-0.28 1.4 0.16 0.347 0.427 0.28 1.067-0.16 1.4l-4.173 3.333c-0.853 0.707-1.987 1.053-3.107 1.053z"></path>
</symbol>
<symbol id="icon-facebook" viewBox="0 0 32 32">
<path d="M19.667 30.333h-6v-9.667h-1.267c-0.773 0-1.4-0.627-1.4-1.4v-2.533c0-0.773 0.627-1.4 1.4-1.4h1.267v-3.333c0-2.76 2.24-5 5-5h3.6c0.773 0 1.4 0.627 1.4 1.4v3.2c0 0.773-0.627 1.4-1.4 1.4h-2.6v2.333h2.507c0.427 0 0.813 0.187 1.080 0.507s0.373 0.747 0.293 1.16l-0.507 2.533c-0.133 0.653-0.707 1.12-1.373 1.12h-2v9.68zM15.667 28.333h2v-9.667h3.52l0.267-1.333h-3.773v-4.933c0-0.773 0.627-1.4 1.4-1.4h2.6v-2h-3.013c-1.653 0-3 1.347-3 3v5.333h-2.667v1.333h2.667v9.667z"></path>
<path d="M20 30.333h-8c-7.24 0-10.333-3.093-10.333-10.333v-8c0-7.24 3.093-10.333 10.333-10.333h8c7.24 0 10.333 3.093 10.333 10.333v8c0 7.24-3.093 10.333-10.333 10.333zM12 3.667c-6.147 0-8.333 2.187-8.333 8.333v8c0 6.147 2.187 8.333 8.333 8.333h8c6.147 0 8.333-2.187 8.333-8.333v-8c0-6.147-2.187-8.333-8.333-8.333h-8z"></path>
</symbol>
<symbol id="icon-whatsapp" viewBox="0 0 32 32">
<path d="M2.667 30.333c-0.267 0-0.52-0.107-0.707-0.293-0.253-0.253-0.36-0.627-0.267-0.973l1.68-6.28c-1.12-2.080-1.707-4.427-1.707-6.8 0-7.907 6.427-14.333 14.333-14.333s14.333 6.427 14.333 14.333-6.427 14.333-14.333 14.333c-2.413 0-4.773-0.6-6.88-1.747l-6.187 1.72c-0.093 0.027-0.173 0.040-0.267 0.040zM9.254 26.507c0.173 0 0.347 0.053 0.507 0.133 1.88 1.107 4.040 1.693 6.24 1.693 6.8 0 12.333-5.533 12.333-12.333s-5.533-12.333-12.333-12.333c-6.8 0-12.333 5.533-12.333 12.333 0 2.173 0.573 4.293 1.653 6.16 0.133 0.227 0.173 0.507 0.107 0.76l-1.333 4.987 4.907-1.36c0.080-0.027 0.173-0.040 0.253-0.040z"></path>
<path d="M19.653 23.68c-0.827 0-1.68-0.187-2.573-0.573-0.84-0.36-1.68-0.84-2.493-1.44-0.8-0.587-1.587-1.253-2.307-1.973-0.72-0.733-1.387-1.507-1.973-2.307-0.6-0.84-1.080-1.667-1.427-2.48-0.373-0.88-0.56-1.747-0.56-2.573 0-0.587 0.107-1.147 0.307-1.667 0.213-0.547 0.56-1.040 1.013-1.467 0.853-0.84 2.080-1.147 3.053-0.68 0.333 0.147 0.613 0.387 0.827 0.707l1.547 2.173c0.16 0.213 0.28 0.44 0.373 0.667 0.107 0.267 0.173 0.533 0.173 0.787 0 0.347-0.093 0.693-0.28 1-0.12 0.2-0.293 0.44-0.52 0.667l-0.173 0.187c0.080 0.107 0.173 0.24 0.32 0.4 0.28 0.32 0.587 0.667 0.92 1 0.333 0.32 0.667 0.64 1 0.92 0.16 0.133 0.293 0.24 0.4 0.307l0.187-0.187c0.24-0.24 0.48-0.427 0.72-0.547 0.44-0.28 1.12-0.347 1.72-0.093 0.213 0.080 0.427 0.2 0.653 0.36l2.227 1.573c0.307 0.213 0.547 0.507 0.707 0.84 0.133 0.333 0.187 0.627 0.187 0.933 0 0.4-0.093 0.787-0.267 1.16-0.173 0.347-0.373 0.653-0.613 0.933-0.427 0.467-0.92 0.813-1.453 1.040s-1.107 0.333-1.693 0.333zM11.72 10.32c-0.080 0-0.347 0-0.68 0.333-0.253 0.24-0.427 0.493-0.547 0.773s-0.173 0.6-0.173 0.92c0 0.56 0.133 1.16 0.4 1.8 0.28 0.667 0.693 1.373 1.2 2.080 0.52 0.707 1.107 1.413 1.76 2.067 0.653 0.64 1.347 1.24 2.067 1.773 0.693 0.507 1.4 0.907 2.107 1.213 1.013 0.44 1.947 0.547 2.707 0.227 0.267-0.107 0.507-0.293 0.747-0.533 0.12-0.133 0.213-0.267 0.293-0.44 0.040-0.093 0.067-0.2 0.067-0.293 0-0.027 0-0.067-0.040-0.147l-2.227-1.547c-0.093-0.067-0.187-0.12-0.267-0.147-0.053 0.027-0.133 0.067-0.28 0.213l-0.507 0.507c-0.387 0.387-1 0.493-1.493 0.32l-0.24-0.107c-0.307-0.16-0.653-0.4-1.040-0.733-0.373-0.32-0.733-0.653-1.12-1.027-0.373-0.387-0.707-0.747-1.027-1.12-0.347-0.413-0.587-0.747-0.747-1.027l-0.147-0.347c-0.040-0.133-0.053-0.28-0.053-0.413 0-0.373 0.133-0.707 0.387-0.973l0.507-0.52c0.147-0.147 0.2-0.227 0.227-0.28-0.040-0.093-0.093-0.173-0.16-0.267l-1.56-2.2-0.16-0.107z"></path>
</symbol>
<symbol id="icon-dribbble" viewBox="0 0 32 32">
<path d="M9.16 16.373c-0.56 0-1.133-0.027-1.693-0.080l-4.227-0.387c-0.547-0.053-0.96-0.533-0.907-1.093 0.053-0.547 0.52-0.96 1.093-0.907l4.227 0.387c6.533 0.6 12.88-2.707 16.147-8.413 0.28-0.48 0.88-0.64 1.36-0.373 0.48 0.28 0.64 0.88 0.373 1.36-3.36 5.907-9.667 9.507-16.373 9.507z"></path>
<path d="M7.333 26.827c-0.173 0-0.333-0.040-0.493-0.133-0.48-0.28-0.64-0.88-0.373-1.36 3.653-6.387 10.747-10.093 18.067-9.413l4.227 0.387c0.547 0.053 0.96 0.533 0.907 1.093-0.053 0.547-0.52 0.947-1.093 0.907l-4.227-0.387c-6.533-0.6-12.88 2.707-16.147 8.413-0.187 0.32-0.52 0.493-0.867 0.493z"></path>
<path d="M16 30.333c-7.907 0-14.333-6.427-14.333-14.333s6.427-14.333 14.333-14.333c7.907 0 14.333 6.427 14.333 14.333s-6.427 14.333-14.333 14.333zM16 3.667c-6.8 0-12.333 5.533-12.333 12.333s5.533 12.333 12.333 12.333c6.8 0 12.333-5.533 12.333-12.333s-5.533-12.333-12.333-12.333z"></path>
<path d="M21.96 28.933c-0.453 0-0.853-0.307-0.973-0.76l-1.613-6.653c-1.027-4.213-3-8.227-5.733-11.613l-4.24-5.267c-0.347-0.427-0.28-1.053 0.147-1.4s1.053-0.28 1.4 0.147l4.24 5.267c2.907 3.613 5.027 7.893 6.12 12.387l1.613 6.653c0.133 0.533-0.2 1.080-0.733 1.213-0.067 0.013-0.147 0.027-0.227 0.027z"></path>
</symbol>
</defs>
</svg>
