<svg width="827" height="738" viewBox="0 0 827 738" fill="none" xmlns="http://www.w3.org/2000/svg">
<path d="M432.808 1L583.064 142.727M432.808 1V322.342M432.808 1L279.745 142.727M432.808 488.626V322.342M432.808 488.626V641.58M432.808 488.626L379.447 555.28M432.808 488.626L488.979 555.28M583.064 142.727L486.22 258.495M583.064 142.727L531.106 296.382M432.808 322.342L420.252 307.608M432.808 322.342L445.134 307.608M279.745 142.727L333.808 296.382M279.745 142.727L378.399 258.495M333.808 296.382L378.399 258.495M333.808 296.382L326.085 322.342L354.872 355.318M378.399 258.495L420.252 307.608M486.22 258.495L531.106 296.382M486.22 258.495L445.134 307.608M531.106 296.382V322.342L502.319 355.318M354.872 355.318L420.252 307.608M354.872 355.318L333.808 398.956M420.252 307.608L340.884 488.626M445.134 307.608L502.319 355.318M445.134 307.608L524.069 488.626M502.319 355.318L531.544 396.012M531.106 504.764L524.069 488.626M531.106 504.764L639.936 577.03M531.106 504.764L592.864 641.58M552.872 727.177L605.532 669.644L592.864 641.58M552.872 727.177L549.011 674.556M552.872 727.177H502.319M292.383 727.177L255.17 669.644L277.925 621.934M292.383 727.177L333.808 737L345.254 727.177M292.383 727.177L309.234 674.556M686.277 480.207L620.277 460.561L605.532 451.611M686.277 480.207L620.277 496.344L524.069 488.626M686.277 480.207L724.191 414.956L734.021 355.318L714.362 283.051M340.884 488.626L333.808 504.764L322.766 527.917M340.884 488.626L248.149 496.344L163.894 480.207M163.894 480.207L255.17 460.561M163.894 480.207L118.255 374.964L132.693 276.035M255.17 460.561L163.894 396.012L154.064 307.608L137.915 240.253M255.17 460.561L263.596 455.143M605.532 451.611L545.149 414.956L531.544 396.012M605.532 451.611L686.277 396.012L705.936 251.479M605.532 451.611L653.277 396.012V330.762L620.277 283.051L564.106 307.608M705.936 251.479H778.957L714.362 283.051M705.936 251.479L714.362 283.051M137.915 240.253L60.6808 258.495L132.693 276.035M137.915 240.253L132.693 276.035M322.766 527.917L210.234 577.03M322.766 527.917L277.925 621.934M210.234 577.03L68.4043 470.384M210.234 577.03L183.553 621.934M68.4043 470.384L1 516.691L88.0638 504.764M68.4043 470.384L88.0638 504.764M88.0638 504.764L183.553 621.934M183.553 621.934H277.925M432.808 641.58L393.489 685.782L345.254 727.177M432.808 641.58L453.872 674.556L502.319 727.177M309.234 674.556L326.085 621.934L379.447 555.28M309.234 674.556L345.254 727.177M309.234 674.556L361.894 652.806L379.447 555.28M488.979 555.28L545.149 621.934L549.011 674.556M488.979 555.28V652.806L549.011 674.556M549.011 674.556L502.319 727.177M639.936 577.03L760.702 470.384M639.936 577.03L663.106 621.934M760.702 470.384L826 516.691L738.562 504.764M760.702 470.384L738.562 504.764M663.106 621.934L592.864 641.58M663.106 621.934L738.562 504.764M564.106 307.608L576.043 330.762L592.864 322.342L564.106 307.608ZM564.106 307.608H620.277V361.633L531.544 396.012M333.808 398.956L326.085 414.956L263.596 455.143M333.808 398.956L229.894 355.318L240.426 303.398L286.064 307.608M286.064 307.608L248.149 283.051L199 322.342V396.012L263.596 455.143M286.064 307.608L263.596 330.762H286.064V307.608Z" stroke="white" stroke-opacity="0.1"/>
</svg>
