<svg width="443" height="763" viewBox="0 0 443 763" fill="none" xmlns="http://www.w3.org/2000/svg">
<path d="M1 381.893L364.315 1M1 381.893L178.342 332.416L237.395 227.18M1 381.893L414.536 762M1 381.893L178.342 355.976L248.697 476.92M364.315 1L237.395 227.18M364.315 1L256.338 242.886M414.536 762L248.697 476.92M414.536 762L279.692 476.92M237.395 227.18L256.338 242.886M237.395 227.18L248.697 476.92M364.315 332.416L442 227.18M364.315 332.416L350.583 349.579M364.315 332.416L356.468 325.91M248.697 476.92L268.176 452.574M442 227.18L336.851 309.644M442 227.18L356.468 325.91M336.851 309.644L356.468 325.91M336.851 309.644L256.338 242.886M336.851 366.742L414.536 476.92M336.851 366.742L350.583 349.579M336.851 366.742L324.728 381.893M414.536 476.92L350.583 349.579M414.536 476.92L336.851 394.719M324.728 381.893L336.851 394.719M324.728 381.893L296.452 417.233M268.176 452.574L279.692 476.92M268.176 452.574L296.452 417.233M279.692 476.92L336.851 394.719M279.692 476.92L296.452 417.233" stroke="white" stroke-opacity="0.1"/>
</svg>
