<svg width="390" height="156" viewBox="0 0 390 156" fill="none" xmlns="http://www.w3.org/2000/svg">
<g clip-path="url(#clip0_1259_24631)">
<rect width="390" height="156" fill="#3C3A41"/>
<path d="M282 100.761L522.562 -152M282 100.761L399.423 67.9278L438.524 -1.90713M282 100.761L555.815 353M282 100.761L399.423 83.5624L446.008 163.82M522.562 -152L438.524 -1.90713M522.562 -152L451.067 8.516M555.815 353L446.008 163.82M555.815 353L466.531 163.82M438.524 -1.90713L451.067 8.516M438.524 -1.90713L446.008 163.82M522.562 67.9278L574 -1.90713M522.562 67.9278L513.47 79.3172M522.562 67.9278L517.367 63.6101M446.008 163.82L458.906 147.665M574 -1.90713L504.377 52.8161M574 -1.90713L517.367 63.6101M504.377 52.8161L517.367 63.6101M504.377 52.8161L451.067 8.516M504.377 90.7066L555.815 163.82M504.377 90.7066L513.47 79.3172M504.377 90.7066L496.351 100.761M555.815 163.82L513.47 79.3172M555.815 163.82L504.377 109.272M496.351 100.761L504.377 109.272M496.351 100.761L477.628 124.213M458.906 147.665L466.531 163.82M458.906 147.665L477.628 124.213M466.531 163.82L504.377 109.272M466.531 163.82L477.628 124.213" stroke="white" stroke-opacity="0.1"/>
</g>
<defs>
<clipPath id="clip0_1259_24631">
<rect width="390" height="156" fill="white"/>
</clipPath>
</defs>
</svg>
