<svg width="390" height="156" viewBox="0 0 390 156" fill="none" xmlns="http://www.w3.org/2000/svg">
<g clip-path="url(#clip0_1259_24632)">
<rect width="390" height="156" fill="#3C3A41"/>
<path d="M324.582 -2.64793L673.595 -11.1426M324.582 -2.64793L430.909 57.2396L507.97 35.5258M324.582 -2.64793L339.991 369.531M324.582 -2.64793L419.852 68.2965L396.063 158.026M673.595 -11.1426L507.97 35.5258M673.595 -11.1426L509.476 51.7744M339.991 369.531L396.063 158.026M339.991 369.531L410.588 172.551M507.97 35.5258L509.476 51.7744M507.97 35.5258L396.063 158.026M518.061 144.392L603.854 131.409M518.061 144.392L503.571 146.011M518.061 144.392L517.437 137.661M396.063 158.026L416.617 155.729M603.854 131.409L515.877 120.834M603.854 131.409L517.437 137.661M515.877 120.834L517.437 137.661M515.877 120.834L509.476 51.7744M489.081 147.63L473.78 235.742M489.081 147.63L503.571 146.011M489.081 147.63L476.29 149.06M473.78 235.742L503.571 146.011M473.78 235.742L475.951 160.76M476.29 149.06L475.951 160.76M476.29 149.06L446.454 152.394M416.617 155.729L410.588 172.551M416.617 155.729L446.454 152.394M410.588 172.551L475.951 160.76M410.588 172.551L446.454 152.394" stroke="white" stroke-opacity="0.1"/>
</g>
<defs>
<clipPath id="clip0_1259_24632">
<rect width="390" height="156" fill="white"/>
</clipPath>
</defs>
</svg>
