<svg width="109" height="156" viewBox="0 0 109 156" fill="none" xmlns="http://www.w3.org/2000/svg">
<path d="M1 100.761L241.562 -152M1 100.761L118.423 67.9278L157.524 -1.90713M1 100.761L274.815 353M1 100.761L118.423 83.5624L165.008 163.82M241.562 -152L157.524 -1.90713M241.562 -152L170.067 8.516M274.815 353L165.008 163.82M274.815 353L185.531 163.82M157.524 -1.90713L170.067 8.516M157.524 -1.90713L165.008 163.82M241.562 67.9278L293 -1.90713M241.562 67.9278L232.47 79.3172M241.562 67.9278L236.367 63.6101M165.008 163.82L177.906 147.665M293 -1.90713L223.377 52.8161M293 -1.90713L236.367 63.6101M223.377 52.8161L236.367 63.6101M223.377 52.8161L170.067 8.516M223.377 90.7066L274.815 163.82M223.377 90.7066L232.47 79.3172M223.377 90.7066L215.351 100.761M274.815 163.82L232.47 79.3172M274.815 163.82L223.377 109.272M215.351 100.761L223.377 109.272M215.351 100.761L196.628 124.213M177.906 147.665L185.531 163.82M177.906 147.665L196.628 124.213M185.531 163.82L223.377 109.272M185.531 163.82L196.628 124.213" stroke="white" stroke-opacity="0.1"/>
</svg>
