<svg width="390" height="156" viewBox="0 0 390 156" fill="none" xmlns="http://www.w3.org/2000/svg">
<g clip-path="url(#clip0_1259_24644)">
<rect width="390" height="156" fill="#3C3A41"/>
<path d="M531.244 -3.01648L539.739 345.996M531.244 -3.01648L471.357 103.31L493.071 180.372M531.244 -3.01648L159.065 12.3922M531.244 -3.01648L460.3 92.2532L370.57 68.4648M539.739 345.996L493.071 180.372M539.739 345.996L476.822 181.878M159.065 12.3922L370.57 68.4648M159.065 12.3922L356.045 82.9897M493.071 180.372L476.822 181.878M493.071 180.372L370.57 68.4648M384.205 190.462L397.187 276.255M384.205 190.462L382.585 175.972M384.205 190.462L390.935 189.838M370.57 68.4648L372.867 89.0187M397.187 276.255L407.762 188.279M397.187 276.255L390.935 189.838M407.762 188.279L390.935 189.838M407.762 188.279L476.822 181.878M380.966 161.482L292.854 146.181M380.966 161.482L382.585 175.972M380.966 161.482L379.536 148.691M292.854 146.181L382.585 175.972M292.854 146.181L367.836 148.353M379.536 148.691L367.836 148.353M379.536 148.691L376.202 118.855M372.867 89.0187L356.045 82.9897M372.867 89.0187L376.202 118.855M356.045 82.9897L367.836 148.353M356.045 82.9897L376.202 118.855" stroke="white" stroke-opacity="0.1"/>
</g>
<defs>
<clipPath id="clip0_1259_24644">
<rect width="390" height="156" fill="white"/>
</clipPath>
</defs>
</svg>
