<svg width="390" height="156" viewBox="0 0 390 156" fill="none" xmlns="http://www.w3.org/2000/svg">
<g clip-path="url(#clip0_1259_24638)">
<rect width="390" height="156" fill="#3C3A41"/>
<path d="M428.239 -46L681 195.386M428.239 -46L461.072 71.8256L530.907 111.06M428.239 -46L176 228.753M428.239 -46L445.438 71.8256L365.18 118.57M681 195.386L530.907 111.06M681 195.386L520.484 123.646M176 228.753L365.18 118.57M176 228.753L365.18 139.163M530.907 111.06L520.484 123.646M530.907 111.06L365.18 118.57M461.072 195.386L530.907 247M461.072 195.386L449.683 186.262M461.072 195.386L465.39 190.173M365.18 118.57L381.335 131.512M530.907 247L476.184 177.139M530.907 247L465.39 190.173M476.184 177.139L465.39 190.173M476.184 177.139L520.484 123.646M438.293 177.139L365.18 228.753M438.293 177.139L449.683 186.262M438.293 177.139L428.239 169.085M365.18 228.753L449.683 186.262M365.18 228.753L419.728 177.139M428.239 169.085L419.728 177.139M428.239 169.085L404.787 150.298M381.335 131.512L365.18 139.163M381.335 131.512L404.787 150.298M365.18 139.163L419.728 177.139M365.18 139.163L404.787 150.298" stroke="white" stroke-opacity="0.1"/>
</g>
<defs>
<clipPath id="clip0_1259_24638">
<rect width="390" height="156" fill="white"/>
</clipPath>
</defs>
</svg>
