<svg width="28" height="21" viewBox="0 0 28 21" fill="none" xmlns="http://www.w3.org/2000/svg">
<path d="M27.72 0L22.08 12.06L21.42 7.98C22.62 7.98 23.68 8.26 24.6 8.82C25.56 9.38 26.32 10.14 26.88 11.1C27.48 12.02 27.78 13.06 27.78 14.22C27.78 15.34 27.48 16.38 26.88 17.34C26.32 18.26 25.56 19 24.6 19.56C23.68 20.12 22.62 20.4 21.42 20.4C20.26 20.4 19.2 20.12 18.24 19.56C17.28 19 16.52 18.24 15.96 17.28C15.4 16.32 15.12 15.24 15.12 14.04C15.12 12.92 15.38 11.74 15.9 10.5C16.42 9.22 17.34 7.6 18.66 5.64L22.32 0H27.72ZM12.66 0L6.96 12.06L6.3 7.98C7.5 7.98 8.58 8.26 9.54 8.82C10.5 9.38 11.26 10.14 11.82 11.1C12.38 12.02 12.66 13.06 12.66 14.22C12.66 15.34 12.38 16.38 11.82 17.34C11.26 18.26 10.5 19 9.54 19.56C8.58 20.12 7.5 20.4 6.3 20.4C5.18 20.4 4.12 20.12 3.12 19.56C2.16 19 1.4 18.24 0.84 17.28C0.28 16.32 0 15.24 0 14.04C0 12.92 0.26 11.74 0.78 10.5C1.3 9.22 2.22 7.6 3.54 5.64L7.2 0H12.66Z" fill="#6D45FF"/>
</svg>
