<svg width="68" height="60" viewBox="0 0 68 60" fill="none" xmlns="http://www.w3.org/2000/svg">
  <path
    d="M7.114 45.551L8.21239 44.0382L1.5 32.5414L13.4603 35.4459M7.114 45.551L8.5175 53.2962M7.114 45.551L18.22 47.0637M8.5175 53.2962L10.7753 57.1688M8.5175 53.2962L18.22 47.0637M10.7753 57.1688L14.9858 58.5M10.7753 57.1688L18.22 47.0637M14.9858 58.5H22.0033M14.9858 58.5L18.22 47.0637M22.0033 58.5L23.8273 56.9873M22.0033 58.5L18.22 47.0637M32.0719 50.1497L41.9574 22.5573M32.0719 50.1497L39.0284 57.7739L38.1131 58.5L23.8273 56.9873M32.0719 50.1497L23.8273 56.9873M32.0719 50.1497L18.22 47.0637M41.9574 22.5573C41.9574 22.5573 42.4473 20.9738 42.9948 20.0764C43.2515 19.6557 43.4129 19.4282 43.7271 19.0478C43.9728 18.7501 44.1002 18.5679 44.3983 18.3217C44.7594 18.0233 44.9969 17.8838 45.4357 17.7166C45.9331 17.527 46.1916 17.4411 46.7171 17.3535C47.5247 17.2189 48.0365 17.2364 48.8529 17.172C49.8269 17.0951 50.3811 17.0915 51.3548 17.172C52.8359 17.2945 53.6393 17.5853 55.0771 17.9586C56.4771 18.322 57.204 18.7347 58.6164 19.0478C59.8859 19.3292 60.6126 19.4617 61.9115 19.5318C63.5087 19.6181 66 19.2898 66 19.2898L65.3898 18.5032M41.9574 22.5573L18.22 47.0637M65.3898 18.5032L65.6949 18.3217L65.3898 17.4745H64.7185L64.0473 16.9904M65.3898 18.5032L64.0473 18.3217C64.0473 18.3217 62.2617 18.1034 61.1183 17.9586C59.664 17.7744 58.844 17.702 57.3959 17.4745C55.8633 17.2338 53.4905 16.7484 53.4905 16.7484L49.4021 16.2038L46.7781 16.7484L42.9948 17.4745M13.4603 35.4459C13.4603 35.4459 18.9672 30.6809 22.8576 28.1242C25.6172 26.3107 30.1802 23.8885 30.1802 23.8885L40.0047 17.9586M13.4603 35.4459L18.22 47.0637M40.0047 17.9586L41.9574 16.7484L43.9711 14.7516L46.0459 12.5732L47.9376 10.6975M40.0047 17.9586C40.0047 17.9586 26.1372 32.2259 20.1727 43.2516C19.3767 44.723 18.22 47.0637 18.22 47.0637M47.9376 10.6975L48.6698 9.48726L53.6736 1.5L53.8567 2.58917M47.9376 10.6975L42.9948 17.4745M47.9376 10.6975L53.8567 2.58917M53.8567 2.58917L54.4669 2.40764V4.0414M54.4669 4.0414L55.6873 5.55414V8.15605L56.3586 11.1815M54.4669 4.0414L49.4021 15.3567M56.3586 11.1815L62.5218 15.7803L63.6202 16.2038M56.3586 11.1815L49.4021 15.3567M63.6202 16.2038L64.0473 16.9904M63.6202 16.2038L49.4021 15.3567M64.0473 16.9904L49.4021 15.3567M18.22 47.0637L40.0047 20.8631L42.9948 17.4745M42.9948 17.4745L49.4021 15.3567"
    stroke="none"/>
  <style>
    path {
    stroke: black;
    }
    @media (prefers-color-scheme: dark) {
    path {
    stroke: white;
    }
    }
  </style>
</svg>
