<svg width="40" height="40" viewBox="0 0 40 40" fill="none" xmlns="http://www.w3.org/2000/svg">
<path fill-rule="evenodd" clip-rule="evenodd" d="M4.2999 18.5596V10.9586L19.2846 1.96776V9.82818L4.2999 18.5596ZM2.7999 19.8646V10.534L3.16403 9.89084L19.6488 0L20.0347 0.218522L20.4207 0L28.663 4.94542L28.6631 4.94553L28.6633 4.94544L36.9056 9.89086L37.2698 10.534L37.2698 19.3025L37.2696 19.3027L37.2697 28.6333L36.9103 29.2736L21.0595 38.9452V39L19.9463 39.6562L11.7064 35.0944L11.7064 35.0944L3.18918 30.4238L2.7998 29.7661V19.8647L2.7999 19.8646ZM11.3464 24.2204L11.3172 24.2374V24.271L11.317 24.2712L11.317 33.1702L4.29981 29.3221L4.29981 20.3061L20.04 11.1244L26.736 14.9187L11.6929 23.5876L11.6931 23.6211L11.6925 23.6214L11.3464 24.2204ZM13.6084 24.2486L20.3011 28.0411L35.7698 18.8648L35.7698 10.9586L29.0274 6.9132L29.0274 14.8961L29.0272 14.8965V14.9299L28.998 14.9469L28.6519 15.5459L28.6513 15.5462L28.6515 15.5797L13.6084 24.2486ZM20.7848 1.96776V9.82217L27.5272 13.6428V6.01318L20.7848 1.96776ZM19.5595 37.7275L19.5595 29.3451L12.8172 25.5245V33.9948L19.5595 37.7275ZM35.7696 20.6188L35.7697 28.2124L21.0597 37.188V29.3355L35.7696 20.6188Z" fill="#6D45FF"/>
</svg>
