<svg width="40" height="40" viewBox="0 0 40 40" fill="none" xmlns="http://www.w3.org/2000/svg">
<path fill-rule="evenodd" clip-rule="evenodd" d="M20.0565 0L29.0374 5.01776L38.0397 10L38.0184 20L38.0397 30L29.0374 34.9822L20.0565 40L11.0755 34.9822L2.07321 30L2.0945 20L2.0902 17.9787L1.89844 17.6274L2.08923 17.5233L2.07321 10L11.0755 5.01776L20.0565 0ZM3.59113 18.4124L3.5945 19.9968L3.59451 20.0032L3.57509 29.1168L11.8018 33.6698L11.8071 33.6727L20.0565 38.2818L28.3058 33.6728L28.3111 33.6698L36.5378 29.1168L36.5251 23.1458L20.4205 32.0844L20.0519 32.2889L19.6856 32.0804L6.63312 24.6518L5.48042 23.9958L6.63673 23.3461L13.7562 19.3461L13.7643 19.3416L13.7725 19.3373L19.7055 16.1944L20.0566 16.0084L20.4076 16.1944L25.9789 19.1457L31.5853 15.9958L20.0489 9.43005L3.59113 18.4124ZM36.5215 21.4322L20.0612 30.5682L8.52777 24.0042L14.1342 20.8543L19.7055 23.8056L20.0566 23.9916L20.4076 23.8056L26.3406 20.6628L26.3488 20.6584L26.3569 20.6539L33.4764 16.6539L34.6327 16.0042L33.48 15.3482L20.4275 7.91962L20.0642 7.71283L19.6972 7.91311L3.58749 16.7055L3.57509 10.8832L11.8018 6.33017L11.8018 6.33018L11.8071 6.32724L20.0565 1.71824L28.3058 6.32725L28.3111 6.33017L36.5378 10.8832L36.5184 19.9968L36.5184 20.0032L36.5215 21.4322ZM20.0566 17.7059L24.3873 20L20.0566 22.2941L15.7258 20L20.0566 17.7059Z" fill="#6D45FF"/>
</svg>
