<svg width="40" height="41" viewBox="0 0 40 41" fill="none" xmlns="http://www.w3.org/2000/svg">
<path fill-rule="evenodd" clip-rule="evenodd" d="M30.6318 14.8861L35.9148 12.2391L35.9148 28.6877L20.4581 37.9621L20.4579 32.6522L30.1596 27.0078L30.1478 26.9874C30.1822 26.9743 30.216 26.9586 30.2487 26.9403C30.4853 26.8075 30.6318 26.5574 30.6318 26.2861V14.8861ZM18.9574 32.6495V37.9621L3.50057 28.6877L3.50057 12.2384L8.78307 14.8796V26.2861C8.78307 26.5574 8.92958 26.8075 9.1662 26.9403C9.25425 26.9896 9.34967 27.0199 9.44671 27.0311L18.9574 32.6495ZM19.7168 40.0367C19.8476 40.0351 19.9779 39.9995 20.094 39.9298L37.0507 29.7555C37.2766 29.6199 37.4148 29.3758 37.4148 29.1123L37.4148 11.0246C37.4148 10.7646 37.2802 10.5232 37.0591 10.3866L37.0421 10.3764L20.0262 0.107864C19.787 -0.0364546 19.4875 -0.0359165 19.2489 0.109259L2.3602 10.3838C2.1276 10.5253 1.99 10.7817 2.00057 11.0537L2.00057 29.1123C2.00057 29.3758 2.13879 29.6199 2.3647 29.7555L19.3216 39.9298C19.443 40.0027 19.58 40.0384 19.7168 40.0367ZM4.2988 10.9602L19.6402 1.62693L35.111 10.963L29.9183 13.5593L20.1005 7.55955C20.0939 7.55554 20.0874 7.55162 20.0807 7.5478L20.0743 7.54418C19.8673 7.42807 19.6195 7.41771 19.4057 7.5117C19.3813 7.52243 19.3573 7.53453 19.3339 7.54798C19.3273 7.55175 19.3208 7.5556 19.3144 7.55955L9.49668 13.5593L4.2988 10.9602ZM19.71 31.3519L11.0516 26.237L19.7074 20.9474L28.4307 26.2783L19.71 31.3519ZM10.2831 14.8366L18.9574 9.53562V19.6478L10.2831 24.9488V14.8366ZM29.1318 24.9488L20.4574 19.6478V9.53562L29.1318 14.8366V24.9488Z" fill="#6D45FF"/>
</svg>
