<svg width="40" height="40" viewBox="0 0 40 40" fill="none" xmlns="http://www.w3.org/2000/svg">
<path fill-rule="evenodd" clip-rule="evenodd" d="M33.9393 16.0607L37.8787 20L20 37.8787L2.12132 20L6.06066 16.0607L18.9393 28.9393L20 30L21.0607 28.9393L33.9393 16.0607ZM32.8787 15L28.9393 11.0607L21.0607 18.9393L20 20L18.9393 18.9393L11.0607 11.0607L7.12132 15L20 27.8787L32.8787 15ZM24.9393 7.06066L27.8787 10L20 17.8787L12.1213 10L15.0607 7.06066L18.9393 10.9393L20 12L21.0607 10.9393L24.9393 7.06066ZM23.8787 6L20 2.12132L16.1213 6L20 9.87868L23.8787 6ZM26 6L28.9393 8.93934L30 10L33.9393 13.9393L35 15L38.9393 18.9393L40 20L38.9393 21.0607L21.0607 38.9393L20 40L18.9393 38.9393L1.06066 21.0607L3.47396e-07 20L1.06066 18.9393L5 15L6.06066 13.9393L10 10L11.0607 8.93934L14 6L15.0607 4.93934L18.9393 1.06066L20 0L21.0607 1.06066L24.9393 4.93934L26 6Z" fill="#6D45FF"/>
</svg>
