<svg width="142" height="50" viewBox="0 0 142 50" fill="none" xmlns="http://www.w3.org/2000/svg">
<path fill-rule="evenodd" clip-rule="evenodd" d="M0.0537253 0H6.63267V25C6.63267 25 6.49508 27.494 7.94846 28.9474C9.40184 30.4007 11.8958 30.2632 11.8958 30.2632H21.1064V23.6842C21.1064 19.0789 25.7117 13.1579 31.9616 13.1579C38.2116 13.1579 44.7906 17.1053 44.7906 25C44.7906 32.8947 38.2116 36.8421 32.9484 36.8421H27.6853V50H21.1064V36.8421H11.8958C11.8958 36.8421 5.97472 37.5 2.68522 34.2105C-0.604271 30.9211 0.0537253 25 0.0537253 25V0ZM32.9487 30.2632C35.8555 30.2632 38.2119 27.9068 38.2119 25C38.2119 22.0932 35.8555 19.7368 32.9487 19.7368C30.0419 19.7368 27.6855 22.0932 27.6855 25V30.2632H32.9487Z" fill="white"/>
<path d="M141.997 15.2271L133.902 38.9133C133.529 39.9826 133.044 40.8157 132.447 41.4125C131.453 42.4072 130.06 42.9046 128.27 42.9046H125.994V38.5403H127.486C128.183 38.5403 128.692 38.416 129.016 38.1673C129.364 37.9435 129.662 37.4834 129.911 36.7872L130.284 35.7427L123.868 15.2271H128.978L132.783 30.0356L136.886 15.2271H141.997Z" fill="black"/>
<path d="M121.175 36.526H117.929L116.437 33.9522L111.252 36.7498C108.368 36.7498 106.428 35.7054 105.433 33.6165C104.936 32.597 104.588 31.5028 104.389 30.334C104.215 29.1404 104.128 27.9094 104.128 26.6412C104.128 25.3481 104.14 24.4031 104.165 23.8063C104.19 23.1846 104.252 22.4759 104.352 21.6801C104.451 20.8595 104.588 20.1757 104.762 19.6286C104.961 19.0815 105.235 18.522 105.583 17.95C105.931 17.3532 106.354 16.8807 106.851 16.5326C107.97 15.7617 109.425 15.3762 111.215 15.3762H116.325L121.175 15.0778V36.526ZM116.325 29.7372V19.7405H112.633C111.265 19.7405 110.307 20.2627 109.76 21.3071C109.238 22.3516 108.977 23.9182 108.977 26.0071C108.977 28.0711 109.226 29.5258 109.723 30.3713C110.245 31.2168 111.215 31.6396 112.633 31.6396L116.325 29.7372Z" fill="black"/>
<path d="M100.216 12.2803C101.758 13.7972 102.529 16.0353 102.529 18.9945C102.529 21.9537 101.758 24.2042 100.216 25.746C98.6991 27.2629 96.5481 28.0214 93.7629 28.0214H88.6526V36.5261H83.4678V9.96759H93.7629C96.5481 9.96759 98.6991 10.7385 100.216 12.2803ZM97.3438 18.9945C97.3438 16.0601 96.0632 14.5929 93.5018 14.5929H88.6526V23.3587H93.5018C94.7452 23.3587 95.6901 23.023 96.3367 22.3516C97.0081 21.6802 97.3438 20.5611 97.3438 18.9945Z" fill="black"/>
<path d="M75.2822 7.0954C76.4509 7.0954 77.2094 7.2819 77.5575 7.65492C77.9057 8.00306 78.0798 8.76152 78.0798 9.93029C78.0798 11.0742 77.8932 11.8327 77.5202 12.2057C77.1721 12.5538 76.4136 12.7279 75.2449 12.7279C74.101 12.7279 73.3425 12.5414 72.9695 12.1684C72.6213 11.7954 72.4473 11.0369 72.4473 9.89299C72.4473 8.74908 72.6213 8.00306 72.9695 7.65492C73.3425 7.2819 74.1134 7.0954 75.2822 7.0954ZM77.6694 36.5261H72.8203V16.0104H77.6694V36.5261Z" fill="black"/>
<path d="M69.0608 36.5261H61.1529C58.1688 36.5261 56.0054 35.9541 54.6625 34.8102C53.3445 33.6414 52.6855 31.7515 52.6855 29.1404V9.96759H57.8704V29.1404C57.8704 30.1849 58.1067 30.906 58.5791 31.3039C59.0516 31.7018 59.9095 31.9007 61.1529 31.9007H69.0608V36.5261Z" fill="black"/>
</svg>
